<svg width="29" height="32" viewBox="0 0 29 32" fill="none" xmlns="http://www.w3.org/2000/svg">
<path fill-rule="evenodd" clip-rule="evenodd" d="M27.3187 10.7364C25.6691 8.68078 23.3547 7.49158 21.1699 7.49158C18.2795 7.49158 17.0583 8.86478 15.0531 8.86478C12.9863 8.86478 11.4147 7.49358 8.91472 7.49358C6.45912 7.49358 3.84833 8.98518 2.19313 11.5344C-0.136075 15.1192 0.258325 21.864 4.03513 27.6116C5.38593 29.6668 7.18993 31.978 9.54873 32C11.6451 32.0192 12.2383 30.6628 15.0827 30.6468C17.9275 30.6312 18.4655 32.0148 20.5615 31.9952C22.9203 31.9728 24.8235 29.4136 26.1735 27.358C27.1411 25.8856 27.5015 25.1416 28.2531 23.4772C22.7927 21.414 21.9147 13.6984 27.3187 10.7364V10.7364Z" fill="black"/>
<path fill-rule="evenodd" clip-rule="evenodd" d="M18.9775 5.1952C20.0275 3.848 20.8251 1.9448 20.5355 0C18.8203 0.1184 16.8139 1.2092 15.6427 2.632C14.5795 3.9232 13.7016 5.838 14.0432 7.6992C15.9156 7.7572 17.8531 6.6384 18.9775 5.1952V5.1952Z" fill="black"/>
</svg>
