<svg width="20" height="26" viewBox="0 0 20 26" fill="none" xmlns="http://www.w3.org/2000/svg">
<path d="M4.53121 7.39619V3.75036C4.53123 3.11039 4.6997 2.48169 5.01969 1.92747C5.33969 1.37325 5.79993 0.913018 6.35417 0.59304C6.9084 0.273062 7.5371 0.10461 8.17707 0.104614C8.81704 0.104618 9.44573 0.273079 9.99996 0.593063C10.5542 0.273079 11.1829 0.104618 11.8229 0.104614C12.4628 0.10461 13.0915 0.273062 13.6458 0.59304C14.2 0.913018 14.6602 1.37325 14.9802 1.92747C15.3002 2.48169 15.4687 3.11039 15.4687 3.75036V7.39619H16.3802C17.1054 7.39619 17.8009 7.68427 18.3137 8.19707C18.8265 8.70986 19.1145 9.40536 19.1145 10.1306V21.9795C19.1146 22.8618 18.7946 23.7142 18.214 24.3786C17.6334 25.043 16.8316 25.4743 15.9572 25.5925C15.3132 25.4917 14.7263 25.1641 14.3025 24.6687C13.8787 24.1734 13.6458 23.5429 13.6458 22.891V3.75036C13.646 3.47203 13.5825 3.19735 13.4601 2.94738C13.3377 2.69741 13.1597 2.47878 12.9397 2.30826C12.7198 2.13774 12.4637 2.01985 12.1911 1.96363C11.9185 1.90742 11.6366 1.91437 11.3671 1.98395C11.6588 2.50713 11.8229 3.11051 11.8229 3.75036V22.891C11.8229 23.9173 12.1619 24.8634 12.7343 25.6254H4.53121C3.56427 25.6254 2.63694 25.2412 1.95322 24.5575C1.26949 23.8738 0.885376 22.9465 0.885376 21.9795V10.1306C0.885376 9.40536 1.17346 8.70986 1.68626 8.19707C2.19905 7.68427 2.89455 7.39619 3.61975 7.39619H4.53121ZM6.35413 3.75036V7.39619H9.99996V3.75036C9.99996 3.26689 9.8079 2.80322 9.46604 2.46136C9.12418 2.11949 8.66051 1.92744 8.17704 1.92744C7.69357 1.92744 7.22991 2.11949 6.88805 2.46136C6.54618 2.80322 6.35413 3.26689 6.35413 3.75036Z" fill="white"/>
</svg>
