<svg width="802" height="1401" viewBox="0 0 802 1401" fill="none" xmlns="http://www.w3.org/2000/svg">
<path opacity="0.789" fill-rule="evenodd" clip-rule="evenodd" d="M376.065 981.388V1248.52L363.276 1292.02L258.612 1338.52L161.081 1358.39L268.573 1385.02H479.815L659.944 1358.39L670.88 1338.52L479.815 1271.71V968.02L376.065 981.388Z" fill="#DAEEFF"/>
<path fill-rule="evenodd" clip-rule="evenodd" d="M609.611 148.575C464.406 159.535 310.949 192.238 164.195 149.584C101.23 187.938 408.815 189.954 416.058 187.153C450.039 181.125 635.572 173.449 609.611 148.575ZM153.297 138.932C426.043 51.6357 639.655 116.628 652.298 140.105C727.878 541.529 918.401 773.82 635.747 920.461C429.488 1011.33 -3.53754 987.145 18.8647 695.79C19.323 695.785 19.7779 695.78 20.2345 695.775C21.8635 496.409 126.116 126.992 153.297 138.932Z" fill="#FEE966"/>
<path fill-rule="evenodd" clip-rule="evenodd" d="M574.449 865.466C574.233 864.847 574.015 864.226 573.797 863.605C571.559 864.591 569.32 865.578 567.082 866.566C567.365 867.203 567.65 867.839 567.933 868.476C570.105 867.472 572.278 866.47 574.449 865.466ZM738.806 683.322C745.56 884.895 458.418 927.377 481.091 881.475C547.965 822.487 619.427 790.671 641.659 704.14C683.785 477.095 739.309 531.517 738.806 683.322Z" fill="#F7DF45"/>
<path fill-rule="evenodd" clip-rule="evenodd" d="M702.062 471.781C738.497 479.278 728.631 538.833 691.322 533.116C658.788 527.338 667.094 466.91 702.062 471.781Z" fill="#F7DF45"/>
<path fill-rule="evenodd" clip-rule="evenodd" d="M701.849 473.501C699.976 473.499 698.103 473.497 696.23 473.496C698.105 470.63 699.979 470.623 701.849 473.501Z" fill="#FEE863"/>
<path fill-rule="evenodd" clip-rule="evenodd" d="M585.685 873.098C583.512 874.102 581.341 875.103 579.169 876.107C578.884 875.471 578.601 874.834 578.318 874.198L585.033 871.236C585.251 871.857 585.467 872.478 585.685 873.098Z" fill="#F7DF46"/>
<path fill-rule="evenodd" clip-rule="evenodd" d="M190.941 1362.01C340.53 1401.11 588.704 1378.45 659.944 1345.62C592.345 1324.94 470.991 1302.9 467.101 1248.03C475.186 906.02 482.131 993.963 387.647 985.929C394.745 1315.82 422.922 1303.61 190.941 1362.01ZM389.582 965.861C1003.48 943.024 730.148 514.321 666.281 217.365C655.416 190.041 660.843 156.357 643.826 132.792C568.181 100.88 485.41 93.6973 403.237 95.7122C306.436 98.2249 143.775 131.072 137.891 151.834C108.415 245.674 73.955 332.262 56.2204 428.926C-16.6673 799.279 -6.61777 942.13 389.582 965.861ZM486.628 979.897C514.268 1300.37 398.093 1254.72 690.089 1331.3C728.199 1427.86 41.7149 1412.58 162.982 1347.53C406.589 1297.94 364.718 1267 370.818 1177.23C370.643 954.283 375.802 988.896 346.594 983.62C-95.7696 946.762 -10.1009 688.665 47.6911 375.176C83.0694 255.229 113.707 140.951 132.169 125.442C296.753 74.586 480.92 49.5243 645.487 112.182C680.685 120.209 668.854 158.3 678.454 186.643C762.226 540.009 987.004 898.834 486.628 979.897Z" fill="black"/>
<path opacity="0.909" fill-rule="evenodd" clip-rule="evenodd" d="M103.033 106.922C133.922 69.0795 157.301 63.4997 180.124 71.6528C186.672 41.0036 208.382 18.984 232.688 33.4358L232.679 33.4254C264.908 59.5242 307.008 21.0818 347.603 26.3368C362.205 -2.74553 383.645 -7.10438 409.525 20.6856C409.822 21.1932 409.525 20.6856 410.5 22.123C422.022 23.5785 440.839 31.079 454.697 20.7477C467.491 7.87318 486.807 -3.31272 502.671 8.08038C555 61.7852 627.471 52.71 675.2 123.317C699.966 154.893 694.169 204.133 687.265 249.426C669.897 365.384 589.809 345.281 527.907 355.149C510.125 393.871 501.902 413.93 467.539 408.473C424.795 460.715 408.563 466.706 338.229 485.413C219.203 493.739 239.289 349.273 148.594 352.373C126.326 349.902 108.209 338.18 89.2849 320.185C74.9048 292.571 61.5673 256.82 64.6865 217.095C69.6173 178.428 80.4245 137.261 103.033 106.922Z" fill="#FFF3C8"/>
<path fill-rule="evenodd" clip-rule="evenodd" d="M565.91 321.536C551.838 324.807 523.123 290.878 553.753 285.757C575.987 280.56 591.453 309.722 565.91 321.536Z" fill="#FDEFC2"/>
<path fill-rule="evenodd" clip-rule="evenodd" d="M522.044 356.217C524.5 373.543 487.731 387 485.216 358.523C485.245 338.277 516.468 331.789 522.044 356.217Z" fill="#FDEFC2"/>
<path fill-rule="evenodd" clip-rule="evenodd" d="M156.042 383.007C156.202 395.663 130.712 402.113 125.893 385.947C124.68 362.984 149.002 353.212 156.042 383.007Z" fill="#FDEFC2"/>
<path fill-rule="evenodd" clip-rule="evenodd" d="M384.235 418.98C412.303 376.832 430.715 445.08 387.067 429.225C386.597 426.18 384.091 426.874 384.235 418.98Z" fill="#FEF5C8"/>
<path fill-rule="evenodd" clip-rule="evenodd" d="M143.57 330.923C125.257 330.169 132.931 302.616 149.51 307.308C160.54 312.014 158.918 330.988 143.57 330.923Z" fill="#FDEFC2"/>
<path fill-rule="evenodd" clip-rule="evenodd" d="M561.454 501.38C579.495 501.67 569.024 528.494 553.908 524.045C543.025 519.104 549.203 501.984 561.454 501.38Z" fill="#FDEFC3"/>
<path fill-rule="evenodd" clip-rule="evenodd" d="M226.28 580.05C238.501 580.185 243.329 598.874 228.06 602.478C215.401 600.447 208.711 581.987 226.28 580.05Z" fill="#FDEFC3"/>
<path fill-rule="evenodd" clip-rule="evenodd" d="M348.687 0.977539C362.094 3.78988 362.872 20.3 348.064 24.6163C333.134 23.8592 335.171 5.49137 348.687 0.977539Z" fill="#FEF5C8"/>
<path fill-rule="evenodd" clip-rule="evenodd" d="M333.794 462.986C346.58 463.586 350.29 482.807 334.681 485.413C321.95 483.873 317.156 465.138 333.794 462.986Z" fill="#FDEFC3"/>
<path fill-rule="evenodd" clip-rule="evenodd" d="M127.513 471.412C143.96 471.934 137.599 497.697 123.881 494.112C113.622 489.637 114.315 472.396 127.513 471.412Z" fill="#FDEFC3"/>
<path fill-rule="evenodd" clip-rule="evenodd" d="M212.001 418.288C210.767 433.471 189.856 434.463 191.904 415.077C194.476 403.964 211.066 403.847 212.001 418.288Z" fill="#FDF0C3"/>
<path fill-rule="evenodd" clip-rule="evenodd" d="M652.982 538.222C654.108 553.273 630.954 554.104 633.748 534.756C636.134 523.752 653.521 523.28 652.982 538.222Z" fill="#FDEFC3"/>
<path fill-rule="evenodd" clip-rule="evenodd" d="M609.083 357.156C610.849 370.186 591.071 375.478 588.452 359.019C588.871 349.052 605.572 341.472 609.083 357.156Z" fill="#FDF0C3"/>
<path fill-rule="evenodd" clip-rule="evenodd" d="M146.533 575.207C146.298 588.132 127.349 591.202 125.938 575.449C126.005 564.47 145.974 560.103 146.533 575.207Z" fill="#FDEFC3"/>
<path fill-rule="evenodd" clip-rule="evenodd" d="M331.041 558.51C320.894 559.528 317.633 540.707 328.592 538.159C342.528 533.522 346.629 558.098 331.041 558.51Z" fill="#FDEFC3"/>
<path fill-rule="evenodd" clip-rule="evenodd" d="M597.151 589.413C611.992 590.761 608.041 613.893 591.977 609.055C582.422 604.258 584.835 591.382 597.151 589.413Z" fill="#FDF0C3"/>
<path fill-rule="evenodd" clip-rule="evenodd" d="M688.554 390.874C696.991 394.562 692.179 416.006 678.902 410.327C666.105 403.691 673.614 389.346 688.554 390.874Z" fill="#FDF0C3"/>
<path fill-rule="evenodd" clip-rule="evenodd" d="M711.023 484.812C709.52 499.749 687.236 495.541 691.195 479.726C695.046 470.874 710.285 473.142 711.023 484.812Z" fill="#FDEFC3"/>
<path fill-rule="evenodd" clip-rule="evenodd" d="M226.104 504.068C226.576 516.725 203.384 519.011 206.961 501.187C209.569 491.953 226.052 490.328 226.104 504.068Z" fill="#FDEFC3"/>
<path fill-rule="evenodd" clip-rule="evenodd" d="M404.472 524.796C417.073 524.546 417.708 544.193 402.471 544.338C392.175 542.91 390.524 525.895 404.472 524.796Z" fill="#FDEFC3"/>
<path fill-rule="evenodd" clip-rule="evenodd" d="M422.512 475.954C421.687 490.684 399.429 487.99 403.796 471.811C407.615 463.527 422.459 463.472 422.512 475.954Z" fill="#FDEFC3"/>
<path fill-rule="evenodd" clip-rule="evenodd" d="M241.082 663.535C241.319 674.659 222.974 678.063 221.535 663.605C221.014 652.605 240.188 649.715 241.082 663.535Z" fill="#FDEFC3"/>
<path fill-rule="evenodd" clip-rule="evenodd" d="M212.826 354.348C225.921 354.068 225.818 377.395 208.893 372.249C200.521 368.774 200.277 354.867 212.826 354.348Z" fill="#FDEFC3"/>
<path fill-rule="evenodd" clip-rule="evenodd" d="M342.186 634.679C342.773 646.698 319.632 645.812 324.397 630.534C327.985 622.738 341.877 622.916 342.186 634.679Z" fill="#FDF0C3"/>
<path fill-rule="evenodd" clip-rule="evenodd" d="M501.328 620.293C502.076 632.261 479.236 632.122 483.451 617.025C486.978 608.808 500.715 608.834 501.328 620.293Z" fill="#FDF0C4"/>
<path fill-rule="evenodd" clip-rule="evenodd" d="M240.067 41.4568C244.128 43.0381 248.188 44.6194 252.249 46.2007C232.576 37.6881 208.782 48.4413 202.155 71.5358C195.953 56.219 222.287 37.9508 240.067 41.4568Z" fill="#FEF6CD"/>
<path fill-rule="evenodd" clip-rule="evenodd" d="M257.263 738.33C257.258 734.23 257.258 730.132 257.258 725.723C260.859 729.972 260.761 734.689 257.263 738.33Z" fill="#FEF5C8"/>
<path fill-rule="evenodd" clip-rule="evenodd" d="M250.579 253.276C225.177 248.855 221.063 222.565 250.424 217.804C276.489 219.74 277.193 248.487 250.579 253.276Z" fill="#FEE967"/>
<path fill-rule="evenodd" clip-rule="evenodd" d="M390.876 337.042C389.894 361.951 357.128 366.012 355.442 338.039C356.033 314.359 389.604 314.119 390.876 337.042Z" fill="#FEE967"/>
<path fill-rule="evenodd" clip-rule="evenodd" d="M322.663 429C321.681 453.909 288.914 457.97 287.229 429.997C287.819 406.317 321.391 406.077 322.663 429Z" fill="#FEE967"/>
<path fill-rule="evenodd" clip-rule="evenodd" d="M552.629 89.3871C570.643 121.357 509.941 127.306 525.734 91.2432L525.719 91.2569C532.235 87.9398 542.962 81.9236 552.629 89.3871Z" fill="#FEE967"/>
<path fill-rule="evenodd" clip-rule="evenodd" d="M273.848 84.6175C273.857 72.9509 294.03 66.9965 297.016 83.1735C296.879 91.2071 275.568 102.851 273.848 84.6175Z" fill="#FEE969"/>
<path fill-rule="evenodd" clip-rule="evenodd" d="M591.141 208.143C581.338 212.559 559.777 195.221 585.577 187.577C596.401 188.3 601.349 202.887 591.141 208.143Z" fill="#FEE968"/>
<path fill-rule="evenodd" clip-rule="evenodd" d="M336.949 284.103C352.877 283.93 347.988 307.799 331.21 303.69C321.88 298.289 324.274 284.983 336.949 284.103Z" fill="#FEE968"/>
<path fill-rule="evenodd" clip-rule="evenodd" d="M213.968 224.199C215.211 242.413 186.465 238.254 196.722 218.762C201.728 211.91 214.097 212.921 213.968 224.199Z" fill="#FEE968"/>
<path fill-rule="evenodd" clip-rule="evenodd" d="M142.692 287.754C143.934 305.967 115.189 301.809 125.445 282.317C130.451 275.464 142.82 276.476 142.692 287.754Z" fill="#FEE968"/>
<path fill-rule="evenodd" clip-rule="evenodd" d="M256.692 331.754C257.934 349.967 229.189 345.809 239.445 326.317C244.451 319.464 256.82 320.476 256.692 331.754Z" fill="#FEE968"/>
<path fill-rule="evenodd" clip-rule="evenodd" d="M380.691 213.754C381.934 231.967 353.189 227.809 363.445 208.317C368.451 201.464 380.82 202.476 380.691 213.754Z" fill="#FEE968"/>
<path fill-rule="evenodd" clip-rule="evenodd" d="M597.692 303.754C598.934 321.967 570.189 317.809 580.445 298.317C585.451 291.464 597.82 292.476 597.692 303.754Z" fill="#FEE968"/>
<path fill-rule="evenodd" clip-rule="evenodd" d="M464.238 347.039C465.024 335.037 486.373 331.073 484.087 350.787C480.165 360.108 463.788 361.653 464.238 347.039Z" fill="#FEE969"/>
<path fill-rule="evenodd" clip-rule="evenodd" d="M488.238 246.039C489.024 234.037 510.373 230.073 508.087 249.787C504.165 259.108 487.788 260.653 488.238 246.039Z" fill="#FEE969"/>
<path fill-rule="evenodd" clip-rule="evenodd" d="M469.498 180.161C470.747 181.579 475.676 181.579 476.05 187.654C473.102 186.136 471.873 186.289 465.753 184.838C467.001 183.279 468.248 181.72 469.498 180.161Z" fill="#FEF6D4"/>
<path fill-rule="evenodd" clip-rule="evenodd" d="M585.578 187.579C582.789 188.585 580 189.593 577.211 190.601C577.959 189.332 578.709 188.065 579.458 186.796C581.385 187.936 584 183.694 585.578 187.579Z" fill="#FEF7DA"/>
<path fill-rule="evenodd" clip-rule="evenodd" d="M442.222 236.351C442.308 237.894 442.396 239.439 442.483 240.983C439.296 239.613 439.511 238.052 442.222 236.351Z" fill="#FEF7DA"/>
<path fill-rule="evenodd" clip-rule="evenodd" d="M578.082 206.537C579.044 207.061 580.007 207.583 580.97 208.106C578.59 210.194 578.154 208.704 578.082 206.537Z" fill="#FEF7DA"/>
<path fill-rule="evenodd" clip-rule="evenodd" d="M251.376 44.3555C251.68 44.3641 251.984 44.3778 252.284 44.3967C251.982 44.3829 251.679 44.3692 251.376 44.3555Z" fill="#FEF6CD"/>
<path fill-rule="evenodd" clip-rule="evenodd" d="M599.684 434.009C650.18 414.829 593.245 483.735 599.677 434.018L599.684 434.009Z" fill="#FDEFC3"/>
<path fill-rule="evenodd" clip-rule="evenodd" d="M624.866 298.141C623.726 285.566 641.412 282.438 644.477 296.138C644.17 306.566 626.16 315.027 624.866 298.141Z" fill="#FDEFC3"/>
<path fill-rule="evenodd" clip-rule="evenodd" d="M474.952 558.511C460.337 558.7 465.228 534.123 480.436 538.689C490.069 543.084 487.031 557.311 474.952 558.511Z" fill="#FDEFC3"/>
<path fill-rule="evenodd" clip-rule="evenodd" d="M518.82 402.087C534.376 404.049 527.888 426.689 513.075 421.595C504.86 415.982 506.997 403.187 518.82 402.087Z" fill="#FDEFC2"/>
<path fill-rule="evenodd" clip-rule="evenodd" d="M445.753 402.153C459.807 404.109 456.153 425.672 441.059 421.218C431.901 416.309 434.187 404.36 445.753 402.153Z" fill="#FDF0C4"/>
<path fill-rule="evenodd" clip-rule="evenodd" d="M541.547 5.05654C538.816 46.9035 502.746 -10.7805 541.555 5.05654H541.547Z" fill="#FEF5C8"/>
<path fill-rule="evenodd" clip-rule="evenodd" d="M470.193 171.119C461.418 177.891 434.73 186.965 420.429 175.918C404.493 162.294 392.904 180.128 365.584 180.161C336.014 181.015 321.996 167.722 300.399 168.294C274.765 168.974 246.262 183.26 229.934 183.907C129.196 187.9 186.6 160.774 162.541 159.551C138.482 158.329 123.221 123.515 177.348 120.935C201.947 119.762 257.217 99.8193 305.723 100.86C336.489 101.52 370.039 99.5651 381.5 95.3986C395.493 91.7038 434.82 95.3961 462.048 94.3041C515.405 96.1189 551.459 100.629 599.725 115.91C598.603 130.664 618.17 145.079 603.365 159.551C549.001 167.125 549.001 165.173 511.995 173.056" fill="#FFFEF7" fill-opacity="0.94"/>
<path fill-rule="evenodd" clip-rule="evenodd" d="M179.918 126.998C189.576 135.251 182.424 149.569 168.591 146.41C155.429 139.741 165.823 123.938 179.918 126.998Z" fill="#FEE968"/>
<path fill-rule="evenodd" clip-rule="evenodd" d="M401.159 164.236C402.539 160.959 404.683 162.279 406.776 163.304C404.904 163.615 403.032 163.925 401.159 164.236Z" fill="#FEF6D4"/>
<path fill-rule="evenodd" clip-rule="evenodd" d="M376.82 165.173C377.86 162.249 379.631 163 381.5 164.241C379.94 164.552 378.38 164.863 376.82 165.173Z" fill="#FEF6D4"/>
<path fill-rule="evenodd" clip-rule="evenodd" d="M647.365 211.193C647.27 214.907 645.206 220.245 639.72 222.705C609.959 226.702 641.032 180.46 647.365 211.193Z" fill="#FEE968"/>
<path fill-rule="evenodd" clip-rule="evenodd" d="M483.822 162.842C462.921 159.702 476.536 137.273 494.423 141.04C510.721 146.916 502.601 162.638 483.822 162.842Z" fill="#FEE968"/>
<path fill-rule="evenodd" clip-rule="evenodd" d="M304.865 136.124C318.267 135.153 323.786 157.608 306.717 159.552C293.821 159.032 287.076 137.96 304.865 136.124Z" fill="#FEE967"/>
<path fill-rule="evenodd" clip-rule="evenodd" d="M377.118 144.681C377.252 142.771 382.617 134.793 384.275 143.345C383.11 142.656 379.514 148.12 377.118 144.681Z" fill="#FEF7D7"/>
<path fill-rule="evenodd" clip-rule="evenodd" d="M439.056 172.78C441.512 190.106 404.743 203.563 402.229 175.086C402.258 154.84 433.48 148.351 439.056 172.78Z" fill="#FFEA4A"/>
<path opacity="0.384" fill-rule="evenodd" clip-rule="evenodd" d="M349.6 189.5C303.223 187.085 131.889 185.278 155.566 150.671C339.066 181.376 462.349 168.471 597.135 144.956C689.325 171.369 356.496 193.744 349.6 189.5Z" fill="black"/>
</svg>
