<svg width="30" height="31" viewBox="0 0 30 31" fill="none" xmlns="http://www.w3.org/2000/svg">
<g clip-path="url(#clip0_204_1465)">
<path fill-rule="evenodd" clip-rule="evenodd" d="M3.75 29.8125V4.5C3.75 3.50544 4.14509 2.55161 4.84835 1.84835C5.55161 1.14509 6.50544 0.75 7.5 0.75L22.5 0.75C23.4946 0.75 24.4484 1.14509 25.1516 1.84835C25.8549 2.55161 26.25 3.50544 26.25 4.5V29.8125C26.2501 29.9753 26.2078 30.1353 26.1273 30.2768C26.0468 30.4183 25.9308 30.5364 25.7908 30.6195C25.6508 30.7025 25.4916 30.7477 25.3288 30.7505C25.166 30.7534 25.0053 30.7138 24.8625 30.6356L15 25.2544L5.1375 30.6356C4.99468 30.7138 4.83397 30.7534 4.6712 30.7505C4.50842 30.7477 4.34919 30.7025 4.20917 30.6195C4.06916 30.5364 3.95318 30.4183 3.87267 30.2768C3.79216 30.1353 3.74988 29.9753 3.75 29.8125ZM20.3513 11.7263C20.5273 11.5502 20.6262 11.3115 20.6262 11.0625C20.6262 10.8135 20.5273 10.5748 20.3513 10.3987C20.1752 10.2227 19.9365 10.1238 19.6875 10.1238C19.4385 10.1238 19.1998 10.2227 19.0237 10.3987L14.0625 15.3619L11.9138 13.2112C11.8266 13.1241 11.7231 13.0549 11.6092 13.0078C11.4953 12.9606 11.3733 12.9363 11.25 12.9363C11.1267 12.9363 11.0047 12.9606 10.8908 13.0078C10.7769 13.0549 10.6734 13.1241 10.5863 13.2112C10.4991 13.2984 10.4299 13.4019 10.3828 13.5158C10.3356 13.6297 10.3113 13.7517 10.3113 13.875C10.3113 13.9983 10.3356 14.1203 10.3828 14.2342C10.4299 14.3481 10.4991 14.4516 10.5863 14.5388L13.3987 17.3513C13.4858 17.4386 13.5893 17.5078 13.7032 17.5551C13.8171 17.6023 13.9392 17.6267 14.0625 17.6267C14.1858 17.6267 14.3079 17.6023 14.4218 17.5551C14.5357 17.5078 14.6392 17.4386 14.7263 17.3513L20.3513 11.7263Z" fill="#E0E0E0"/>
</g>
<defs>
<clipPath id="clip0_204_1465">
<rect width="30" height="30" fill="white" transform="translate(0 0.75)"/>
</clipPath>
</defs>
</svg>
