<svg width="1275" height="1458" viewBox="0 0 1275 1458" fill="none" xmlns="http://www.w3.org/2000/svg">
<path fill-rule="evenodd" clip-rule="evenodd" d="M1054.77 1244.58C1154.47 1201.73 1219.53 1206.14 1245.61 1303.66C1247.03 1337.76 1224.08 1365.03 1203.96 1390.68C1130.45 1405.76 1063.51 1420.09 985.27 1424.21C900.515 1428.16 814.643 1449.29 724.915 1444.95C609.708 1430.87 -36.2026 1427.6 39.8859 1261.35C44.2032 1221.84 134.074 1168.56 165.834 1185.9C195.776 1221.58 242.837 1233.96 279.65 1271.67C383.014 1302.4 488.068 1310.51 598.257 1322.41C716.127 1338.68 1068.25 1286.19 1054.77 1244.58Z" fill="#FFB78E"/>
<path fill-rule="evenodd" clip-rule="evenodd" d="M631.597 1425.28C1147.33 1423.55 1246.64 1385.42 1236.74 1297.18C1214.47 1198.45 1138.93 1246.4 1124.65 1231.53C1109.46 1217.88 1127.21 1199.73 1146.75 1198.94C1220.75 1189.57 1272.41 1243.79 1273.5 1304.49C1296.61 1495.41 697.865 1451.27 602.98 1456.56C-231.14 1453.88 -9.96173 1152.98 162.954 1164.98C224.75 1205.52 77.1508 1201.13 62.9811 1227.41C-87.4694 1419.23 544.994 1421.51 631.599 1423.84C631.599 1424.32 631.597 1424.8 631.597 1425.28Z" fill="black"/>
<path fill-rule="evenodd" clip-rule="evenodd" d="M172.655 814.696C185.845 780.574 264.692 762.368 299.702 739.494C968.291 443.519 861.257 455.799 1013.98 646.487C1087.44 753.053 1188.32 854.947 1178.59 875.84C1082.09 899.735 972.21 893.498 870.46 899.79C590.957 889.286 317.929 897.093 172.655 814.696Z" fill="#2D1D13"/>
<path fill-rule="evenodd" clip-rule="evenodd" d="M1149.63 1274.89C1081 1327.15 971.259 1310.03 852.701 1310.62C560.792 1312.07 200.08 1240.64 156.011 1262.18C160.781 1201.19 188.073 888.799 183.761 828.405C465.117 941.676 1063.44 903.06 1154.79 887.364C1156.52 936.004 1161.64 1068.18 1162.25 1163.9C1162.62 1220.25 1172.25 1257.66 1149.63 1274.89Z" fill="#442B10"/>
<path fill-rule="evenodd" clip-rule="evenodd" d="M1127.19 1287.61C713.715 1345.96 114.486 1294.94 164.902 1242.76C170.608 1203.77 171.169 1165.51 172.655 1131.93C177.322 1026.48 189.953 966.277 289.21 1082.9C311.693 1103.08 345.562 1115.4 371.992 1099.34C545.678 898.183 508.607 1207.28 647.243 1120.45C803.299 958.927 781.975 1150.85 895.065 1150.1C915.139 1147.75 924.278 1138.45 936.9 1119.87C1035.69 949.009 1040.92 1118.84 1154.4 1089.4C1150.55 1152.43 1159.69 1292.6 1127.19 1287.61Z" fill="#664522"/>
<path d="M220.919 1116.87C225.775 1116.87 229.712 1112.98 229.712 1108.18C229.712 1103.38 225.775 1099.49 220.919 1099.49C216.063 1099.49 212.126 1103.38 212.126 1108.18C212.126 1112.98 216.063 1116.87 220.919 1116.87Z" fill="#442B10"/>
<path d="M271.61 1228.31C276.466 1228.31 280.403 1224.42 280.403 1219.62C280.403 1214.82 276.466 1210.93 271.61 1210.93C266.754 1210.93 262.817 1214.82 262.817 1219.62C262.817 1224.42 266.754 1228.31 271.61 1228.31Z" fill="#442B10"/>
<path d="M367.82 1152.66C372.676 1152.66 376.613 1148.77 376.613 1143.97C376.613 1139.17 372.676 1135.27 367.82 1135.27C362.964 1135.27 359.027 1139.17 359.027 1143.97C359.027 1148.77 362.964 1152.66 367.82 1152.66Z" fill="#442B10"/>
<path d="M408.167 1245.7C413.023 1245.7 416.96 1241.8 416.96 1237C416.96 1232.2 413.023 1228.31 408.167 1228.31C403.311 1228.31 399.374 1232.2 399.374 1237C399.374 1241.8 403.311 1245.7 408.167 1245.7Z" fill="#442B10"/>
<path d="M466.1 1108.69C470.956 1108.69 474.893 1104.8 474.893 1100C474.893 1095.2 470.956 1091.31 466.1 1091.31C461.243 1091.31 457.307 1095.2 457.307 1100C457.307 1104.8 461.243 1108.69 466.1 1108.69Z" fill="#442B10"/>
<path d="M560.241 1263.08C565.097 1263.08 569.034 1259.19 569.034 1254.39C569.034 1249.59 565.097 1245.69 560.241 1245.69C555.385 1245.69 551.448 1249.59 551.448 1254.39C551.448 1259.19 555.385 1263.08 560.241 1263.08Z" fill="#442B10"/>
<path d="M508.515 1183.33C513.371 1183.33 517.308 1179.44 517.308 1174.64C517.308 1169.84 513.371 1165.95 508.515 1165.95C503.658 1165.95 499.722 1169.84 499.722 1174.64C499.722 1179.44 503.658 1183.33 508.515 1183.33Z" fill="#442B10"/>
<path d="M684.383 1152.66C689.239 1152.66 693.176 1148.77 693.176 1143.97C693.176 1139.17 689.239 1135.27 684.383 1135.27C679.527 1135.27 675.59 1139.17 675.59 1143.97C675.59 1148.77 679.527 1152.66 684.383 1152.66Z" fill="#442B10"/>
<path d="M640.933 1280.46C645.789 1280.46 649.726 1276.57 649.726 1271.77C649.726 1266.97 645.789 1263.08 640.933 1263.08C636.076 1263.08 632.14 1266.97 632.14 1271.77C632.14 1276.57 636.076 1280.46 640.933 1280.46Z" fill="#442B10"/>
<path d="M558.172 1060.64C561.885 1060.64 564.896 1057.43 564.896 1053.48C564.896 1049.53 561.885 1046.32 558.172 1046.32C554.458 1046.32 551.448 1049.53 551.448 1053.48C551.448 1057.43 554.458 1060.64 558.172 1060.64Z" fill="#664522"/>
<path d="M640.933 1210.93C645.789 1210.93 649.726 1207.04 649.726 1202.24C649.726 1197.44 645.789 1193.55 640.933 1193.55C636.076 1193.55 632.14 1197.44 632.14 1202.24C632.14 1207.04 636.076 1210.93 640.933 1210.93Z" fill="#442B10"/>
<path d="M558.172 1005.43C561.885 1005.43 564.896 1002.22 564.896 998.27C564.896 994.318 561.885 991.113 558.172 991.113C554.458 991.113 551.448 994.318 551.448 998.27C551.448 1002.22 554.458 1005.43 558.172 1005.43Z" fill="#664522"/>
<path d="M749.557 1237.52C754.413 1237.52 758.35 1233.63 758.35 1228.83C758.35 1224.03 754.413 1220.13 749.557 1220.13C744.7 1220.13 740.764 1224.03 740.764 1228.83C740.764 1233.63 744.7 1237.52 749.557 1237.52Z" fill="#442B10"/>
<path d="M631.105 1002.36C635.104 1002.36 638.347 999.156 638.347 995.203C638.347 991.251 635.104 988.046 631.105 988.046C627.105 988.046 623.863 991.251 623.863 995.203C623.863 999.156 627.105 1002.36 631.105 1002.36Z" fill="#664522"/>
<path d="M866.975 1082.11C870.975 1082.11 874.217 1078.9 874.217 1074.95C874.217 1071 870.975 1067.79 866.975 1067.79C862.975 1067.79 859.733 1071 859.733 1074.95C859.733 1078.9 862.975 1082.11 866.975 1082.11Z" fill="#664522"/>
<path d="M767.144 1126.07C772 1126.07 775.937 1122.18 775.937 1117.38C775.937 1112.58 772 1108.69 767.144 1108.69C762.288 1108.69 758.351 1112.58 758.351 1117.38C758.351 1122.18 762.288 1126.07 767.144 1126.07Z" fill="#442B10"/>
<path d="M659.037 937.948C663.037 937.948 666.279 934.744 666.279 930.791C666.279 926.839 663.037 923.634 659.037 923.634C655.037 923.634 651.795 926.839 651.795 930.791C651.795 934.744 655.037 937.948 659.037 937.948Z" fill="#664522"/>
<path d="M850.94 1210.93C855.796 1210.93 859.733 1207.04 859.733 1202.24C859.733 1197.44 855.796 1193.55 850.94 1193.55C846.084 1193.55 842.147 1197.44 842.147 1202.24C842.147 1207.04 846.084 1210.93 850.94 1210.93Z" fill="#442B10"/>
<path d="M756.799 995.204C760.512 995.204 763.523 991.999 763.523 988.047C763.523 984.094 760.512 980.89 756.799 980.89C753.085 980.89 750.075 984.094 750.075 988.047C750.075 991.999 753.085 995.204 756.799 995.204Z" fill="#664522"/>
<path d="M939.908 1161.86C944.764 1161.86 948.701 1157.97 948.701 1153.17C948.701 1148.37 944.764 1144.48 939.908 1144.48C935.051 1144.48 931.115 1148.37 931.115 1153.17C931.115 1157.97 935.051 1161.86 939.908 1161.86Z" fill="#442B10"/>
<path d="M844.215 960.441C848.214 960.441 851.457 957.237 851.457 953.284C851.457 949.332 848.214 946.127 844.215 946.127C840.215 946.127 836.973 949.332 836.973 953.284C836.973 957.237 840.215 960.441 844.215 960.441Z" fill="#664522"/>
<path d="M957.495 1245.7C962.351 1245.7 966.288 1241.8 966.288 1237C966.288 1232.2 962.351 1228.31 957.495 1228.31C952.638 1228.31 948.702 1232.2 948.702 1237C948.702 1241.8 952.638 1245.7 957.495 1245.7Z" fill="#442B10"/>
<path d="M810.594 1033.03C814.308 1033.03 817.318 1029.83 817.318 1025.88C817.318 1021.92 814.308 1018.72 810.594 1018.72C806.881 1018.72 803.87 1021.92 803.87 1025.88C803.87 1029.83 806.881 1033.03 810.594 1033.03Z" fill="#664522"/>
<path d="M1024.74 1116.87C1029.6 1116.87 1033.53 1112.98 1033.53 1108.18C1033.53 1103.38 1029.6 1099.49 1024.74 1099.49C1019.88 1099.49 1015.95 1103.38 1015.95 1108.18C1015.95 1112.98 1019.88 1116.87 1024.74 1116.87Z" fill="#442B10"/>
<path d="M742.833 941.015C746.832 941.015 750.075 937.811 750.075 933.858C750.075 929.905 746.832 926.701 742.833 926.701C738.833 926.701 735.591 929.905 735.591 933.858C735.591 937.811 738.833 941.015 742.833 941.015Z" fill="#664522"/>
<path d="M1016.46 1193.55C1021.32 1193.55 1025.25 1189.66 1025.25 1184.86C1025.25 1180.06 1021.32 1176.17 1016.46 1176.17C1011.61 1176.17 1007.67 1180.06 1007.67 1184.86C1007.67 1189.66 1011.61 1193.55 1016.46 1193.55Z" fill="#442B10"/>
<path d="M870.078 1012.58C874.078 1012.58 877.32 1009.61 877.32 1005.94C877.32 1002.27 874.078 999.292 870.078 999.292C866.078 999.292 862.836 1002.27 862.836 1005.94C862.836 1009.61 866.078 1012.58 870.078 1012.58Z" fill="#664522"/>
<path d="M1090.95 1144.48C1095.8 1144.48 1099.74 1140.59 1099.74 1135.79C1099.74 1130.99 1095.8 1127.09 1090.95 1127.09C1086.09 1127.09 1082.15 1130.99 1082.15 1135.79C1082.15 1140.59 1086.09 1144.48 1090.95 1144.48Z" fill="#442B10"/>
<path d="M916.632 952.262C920.631 952.262 923.874 949.287 923.874 945.616C923.874 941.946 920.631 938.97 916.632 938.97C912.632 938.97 909.39 941.946 909.39 945.616C909.39 949.287 912.632 952.262 916.632 952.262Z" fill="#664522"/>
<path d="M1118.36 936.926C1122.36 936.926 1125.6 933.951 1125.6 930.28C1125.6 926.61 1122.36 923.634 1118.36 923.634C1114.36 923.634 1111.12 926.61 1111.12 930.28C1111.12 933.951 1114.36 936.926 1118.36 936.926Z" fill="#664522"/>
<path d="M1118.36 1032.01C1122.36 1032.01 1125.6 1029.03 1125.6 1025.36C1125.6 1021.69 1122.36 1018.72 1118.36 1018.72C1114.36 1018.72 1111.12 1021.69 1111.12 1025.36C1111.12 1029.03 1114.36 1032.01 1118.36 1032.01Z" fill="#664522"/>
<path d="M1049.05 977.822C1053.05 977.822 1056.29 974.847 1056.29 971.176C1056.29 967.506 1053.05 964.53 1049.05 964.53C1045.05 964.53 1041.81 967.506 1041.81 971.176C1041.81 974.847 1045.05 977.822 1049.05 977.822Z" fill="#664522"/>
<path d="M973.53 944.083C977.53 944.083 980.772 941.107 980.772 937.437C980.772 933.766 977.53 930.791 973.53 930.791C969.53 930.791 966.288 933.766 966.288 937.437C966.288 941.107 969.53 944.083 973.53 944.083Z" fill="#664522"/>
<path d="M1000.43 1005.43C1004.43 1005.43 1007.67 1002.45 1007.67 998.781C1007.67 995.111 1004.43 992.135 1000.43 992.135C996.427 992.135 993.185 995.111 993.185 998.781C993.185 1002.45 996.427 1005.43 1000.43 1005.43Z" fill="#664522"/>
<path d="M1090.95 1245.7C1095.8 1245.7 1099.74 1241.8 1099.74 1237C1099.74 1232.2 1095.8 1228.31 1090.95 1228.31C1086.09 1228.31 1082.15 1232.2 1082.15 1237C1082.15 1241.8 1086.09 1245.7 1090.95 1245.7Z" fill="#442B10"/>
<path d="M947.667 1016.67C951.666 1016.67 954.909 1013.47 954.909 1009.52C954.909 1005.56 951.666 1002.36 947.667 1002.36C943.667 1002.36 940.425 1005.56 940.425 1009.52C940.425 1013.47 943.667 1016.67 947.667 1016.67Z" fill="#664522"/>
<path d="M833.353 1272.28C838.209 1272.28 842.146 1268.39 842.146 1263.59C842.146 1258.79 838.209 1254.9 833.353 1254.9C828.497 1254.9 824.56 1258.79 824.56 1263.59C824.56 1268.39 828.497 1272.28 833.353 1272.28Z" fill="#442B10"/>
<path d="M692.141 1033.03C696.141 1033.03 699.383 1029.83 699.383 1025.88C699.383 1021.92 696.141 1018.72 692.141 1018.72C688.141 1018.72 684.899 1021.92 684.899 1025.88C684.899 1029.83 688.141 1033.03 692.141 1033.03Z" fill="#664522"/>
<path d="M303.68 1170.04C308.536 1170.04 312.473 1166.15 312.473 1161.35C312.473 1156.55 308.536 1152.66 303.68 1152.66C298.823 1152.66 294.887 1156.55 294.887 1161.35C294.887 1166.15 298.823 1170.04 303.68 1170.04Z" fill="#442B10"/>
<path d="M289.714 972.71C293.713 972.71 296.956 969.506 296.956 965.553C296.956 961.601 293.713 958.396 289.714 958.396C285.714 958.396 282.472 961.601 282.472 965.553C282.472 969.506 285.714 972.71 289.714 972.71Z" fill="#664522"/>
<path d="M212.643 1210.93C217.499 1210.93 221.436 1207.04 221.436 1202.24C221.436 1197.44 217.499 1193.55 212.643 1193.55C207.787 1193.55 203.85 1197.44 203.85 1202.24C203.85 1207.04 207.787 1210.93 212.643 1210.93Z" fill="#442B10"/>
<path d="M219.367 987.024C223.367 987.024 226.609 983.82 226.609 979.867C226.609 975.915 223.367 972.71 219.367 972.71C215.367 972.71 212.125 975.915 212.125 979.867C212.125 983.82 215.367 987.024 219.367 987.024Z" fill="#664522"/>
<path d="M233.851 890.918C237.851 890.918 241.093 887.713 241.093 883.76C241.093 879.808 237.851 876.604 233.851 876.604C229.851 876.604 226.609 879.808 226.609 883.76C226.609 887.713 229.851 890.918 233.851 890.918Z" fill="#664522"/>
<path d="M338.337 1053.48C342.336 1053.48 345.579 1050.28 345.579 1046.32C345.579 1042.37 342.336 1039.17 338.337 1039.17C334.337 1039.17 331.095 1042.37 331.095 1046.32C331.095 1050.28 334.337 1053.48 338.337 1053.48Z" fill="#664522"/>
<path d="M399.373 942.038C403.373 942.038 406.615 938.833 406.615 934.881C406.615 930.928 403.373 927.724 399.373 927.724C395.373 927.724 392.131 930.928 392.131 934.881C392.131 938.833 395.373 942.038 399.373 942.038Z" fill="#664522"/>
<path d="M459.375 992.136C463.374 992.136 466.617 988.932 466.617 984.979C466.617 981.027 463.374 977.822 459.375 977.822C455.375 977.822 452.133 981.027 452.133 984.979C452.133 988.932 455.375 992.136 459.375 992.136Z" fill="#664522"/>
<path d="M531.791 938.97C535.79 938.97 539.033 935.766 539.033 931.813C539.033 927.861 535.79 924.656 531.791 924.656C527.791 924.656 524.549 927.861 524.549 931.813C524.549 935.766 527.791 938.97 531.791 938.97Z" fill="#664522"/>
<path d="M616.622 1074.95C620.622 1074.95 623.864 1071.75 623.864 1067.8C623.864 1063.84 620.622 1060.64 616.622 1060.64C612.622 1060.64 609.38 1063.84 609.38 1067.8C609.38 1071.75 612.622 1074.95 616.622 1074.95Z" fill="#664522"/>
<path fill-rule="evenodd" clip-rule="evenodd" d="M1154.8 897.305C814.766 936.151 328.712 907.141 191.868 843.741C196.144 898.609 194.386 953.349 189.656 1008.76C292.601 978.441 291.176 1165.91 395.373 1042.27C416.189 1024.66 441.677 1012.94 472.751 1013.88C515.239 1016.74 533.357 1060.69 562.038 1088.49C618.636 1161.28 662.42 1035.81 730.127 1041.34C812.339 1023.51 849.192 1169.37 906.362 1111.62C928.011 1084.62 942.026 1049.05 979.273 1034.27C1045.53 1005.83 1069.64 1081.44 1127.78 1072.84C1175.47 1080.33 1145.04 917.841 1154.8 897.305ZM1149.63 1096.19C1054.37 1115.55 1042.18 1027.12 982.242 1062.76C953.563 1084.21 944.67 1113.97 917.528 1140.42C829.198 1193.79 796.592 1046.52 728.995 1068.51C704.859 1073.31 684.436 1086.16 666.071 1103.46C509.937 1245.68 542.255 911.482 371.906 1102.6C334.806 1126.15 296.278 1102.89 266.276 1075.06C151.697 925.939 186.067 1198.21 170.755 1252.2C459.894 1310.86 779.232 1308.5 989.248 1287.93C1037.96 1280.8 1088.95 1284.71 1134.74 1271.25C1155.61 1217.69 1144.85 1154.19 1149.63 1096.19ZM865.124 889.565C976.424 885.589 1171.83 881.437 1161.89 862.402C1101.05 768.155 1023.7 697.331 961.587 608.568C937.414 580.121 908.792 540.359 865.014 534.623C812.66 532.784 771.598 562.011 723.697 579.804C585.991 633.426 450.861 683.696 317.353 745.122C285.743 761.255 178.355 801.442 197.76 815.215C387.963 904.208 767.107 878.84 865.124 889.565ZM774.079 1327.44C554.089 1331.31 140.035 1300.32 139.589 1260.7C183.681 778.196 147.805 818.75 172.143 788.685C311.356 703.358 469.575 653.028 621.607 590.816C703.408 562.764 780.596 516.96 843.957 509.996C954.506 494.219 1070.52 732.593 1125.59 772.643C1220.38 880.85 1177.34 845.791 1180.22 933.459C1171.48 1324.6 1185.42 1296.73 1086.51 1305.61C980.68 1315.65 880.264 1324.6 774.137 1328.7L774.079 1327.44Z" fill="black"/>
<path fill-rule="evenodd" clip-rule="evenodd" d="M902.653 728.856C896.586 733.316 898.568 731.46 909.568 741.669C975.393 750.728 967.999 828.014 889.231 791.24C824.943 773.912 887.725 849.888 754.04 781.741C720.526 792.461 707.641 820.748 667.289 804.326C646.084 799.66 633.287 787.817 609.549 798.18C495.291 860.097 558.143 749.643 430.205 786.077C451.068 713.522 526.155 767.765 432.011 665.016C383.94 522.045 565.773 389.922 701.171 389.778C740.877 388.786 787.219 390.954 817.493 405.622C945.011 467.406 974.594 649.243 902.653 728.856Z" fill="#E2C0FF"/>
<path fill-rule="evenodd" clip-rule="evenodd" d="M705.885 389.776C502.045 396.509 350.278 612.974 485.459 708.207C510.12 730.225 400.969 777.486 451.214 778.155C530.025 753.154 510.092 792.926 559.794 805.039C658.154 780.282 597.633 771.625 691.186 800.746C702.443 802.161 712.465 799.902 724.287 792.658C779.556 746.29 785.095 806.525 837.099 803.928C857.296 800.039 863.688 768.998 890.304 783.533C980.881 817.312 944.429 754.006 888.001 737.008C996.376 605.808 894.723 383.465 705.885 389.776ZM926.937 725.17C1011.96 767.951 964.819 850.121 884.771 808.961C870.762 804.426 859.767 830.394 840.811 829.209C772.02 831.507 776.271 784.805 745.304 810.193C702.261 842.567 667.277 819.345 626.455 807.95C577.724 835.628 544.69 841.667 505.569 803.494C487.54 783.066 462.591 809.792 436.793 804.413C381.373 788.413 426.53 736.793 458.025 715.563C294.917 582.176 540.091 353.577 707.169 364.592C922.388 356.102 1016.44 607.931 926.937 725.17Z" fill="black"/>
<path fill-rule="evenodd" clip-rule="evenodd" d="M660.25 292.16H604.38L577.973 363.336L619.112 441.307L704.724 454.611L767.406 402.857L781.395 318.153L735.369 275.414L660.25 292.16Z" fill="#F33D61"/>
<path fill-rule="evenodd" clip-rule="evenodd" d="M674.309 307.523C683.618 315.599 700.541 357.731 666.476 344.999C655.449 332.017 651.591 313.443 629.43 309.343C570.005 307.646 588.661 394.514 619.692 418.143C784.242 525.087 823.845 222.185 674.309 307.523ZM634.784 283.901C620.169 187.942 664.597 -26.516 697.587 3.36919C708.334 13.5078 700.082 22.4461 695.667 37.2864C665.946 118.685 651.803 197.077 662.441 283.047C816.519 206.674 838.028 426.07 717.333 459.616C554.241 503.312 511.473 276.984 634.784 283.901Z" fill="black"/>
<path d="M536.359 562.778C556.379 578.594 572.381 577.699 584.364 560.094C602.34 533.686 622.602 554.74 623.833 559.109" stroke="#EDD8FF" stroke-width="14" stroke-linecap="round" stroke-linejoin="round"/>
<path d="M753.653 636.926C773.102 653.422 789.126 653.079 801.724 635.898C820.621 610.126 840.127 631.866 841.203 636.275" stroke="#EDD8FF" stroke-width="14" stroke-linecap="round" stroke-linejoin="round"/>
<path d="M848.303 495.276C835.738 517.349 820.562 522.441 802.775 510.553C776.095 492.721 765.293 519.741 765.808 524.247" stroke="#EDD8FF" stroke-width="14" stroke-linecap="round" stroke-linejoin="round"/>
<path d="M578.263 675.05C592.356 696.203 607.854 700.237 624.758 687.153C650.114 667.525 662.798 693.735 662.602 698.266" stroke="#EDD8FF" stroke-width="14" stroke-linecap="round" stroke-linejoin="round"/>
<path d="M303.675 805.533C363.113 823.314 417.113 834.647 465.675 839.533" stroke="#442B10" stroke-width="17" stroke-linecap="round" stroke-linejoin="round"/>
<path d="M507.675 844.533C508.042 845.056 508.375 845.389 508.675 845.533" stroke="#442B10" stroke-width="17" stroke-linecap="round" stroke-linejoin="round"/>
</svg>
