<svg width="1239" height="1075" viewBox="0 0 1239 1075" fill="none" xmlns="http://www.w3.org/2000/svg">
<path fill-rule="evenodd" clip-rule="evenodd" d="M90.5341 435.049C257.164 3.39365 661.988 -15.1878 824.3 40.7288C824.975 40.9612 823.634 51.0641 824.3 51.2987C965.708 98.3954 1066.33 218.066 1110.9 357.338C1119.82 394.162 1138.43 454.257 1128.95 491.177C975.796 589.22 778.352 565.775 601.211 575.084C327.081 573.013 48.5509 468.599 90.5341 435.049Z" fill="#FEE966"/>
<path fill-rule="evenodd" clip-rule="evenodd" d="M573.177 772.888C596.619 775.025 623.677 779.948 649.045 783.676C677.304 811.804 715.137 818.672 754.182 825.164C1143.81 884.691 1065.88 714.599 1101.79 797.121C1122.11 843.812 1106.84 891.835 1071.73 912.62C1044.79 928.572 1005.82 922.047 964.436 925.588C852.551 932.05 744.451 933.829 631.399 935.888C117.26 931.796 59.982 928.645 61.2294 848.416C61.3894 838.131 67.2071 823.018 68.2744 810.17C228.316 874.991 474.366 759.699 573.177 775.205V772.888Z" fill="#6F4F30"/>
<path fill-rule="evenodd" clip-rule="evenodd" d="M929.669 667.905C692.635 640.643 712.421 691.124 624.61 672.69C437.206 587.018 409.667 689.723 275.864 615.155C175.438 571.427 118.481 618.91 49.9567 616.141C15.8351 597.898 18.5717 548.277 46.1875 522.945C109.161 462.64 122.466 487.08 166.709 505.12C222.949 530.179 284.407 544.533 345.806 557.752C602.376 606.718 953.376 594.696 1089.16 522.98L1076.75 522.945C1089.86 520.265 1116.12 497.927 1132.7 505.12C1163.72 520.971 1264 584.268 1185.76 615.243C924.614 628.477 1043.13 643.534 929.669 667.905Z" fill="#BBFEB9"/>
<path fill-rule="evenodd" clip-rule="evenodd" d="M38.0851 912.621C48.768 909.35 65.5653 902.226 76.0097 912.621C123.113 940.115 179.706 945.842 234.085 950.573C458.61 959.152 661.024 951.736 817.252 946.274C946.014 941.772 1042.47 932.211 1097.81 912.621C1134.97 920.983 1135.64 965.063 1116.73 988.373C1044.3 1067.57 464.81 1049.92 437.829 1049.4C361.011 1050.87 -55.3182 1034.78 38.0851 912.621Z" fill="#FEE966"/>
<path fill-rule="evenodd" clip-rule="evenodd" d="M115.169 701.435C146.033 703.555 118.749 727.135 133.789 728.357C176.458 718.318 225.788 721.909 273.415 719.805C221.214 729.566 164.608 710.933 147.592 748.777C138.872 752.294 135.74 763.966 145.963 768.69C205.357 785.701 411.579 735.831 283.679 747.983C303.707 746.685 351.913 704.11 361.648 737.505C421.427 730.732 487.331 698.64 549.996 705.306C558.061 776.013 394.828 783.718 346.747 807.277C283.541 815.377 219.337 808.732 154.486 813.838C-13.1887 823.753 91.7228 691.949 115.169 701.435Z" fill="#E1BFFE"/>
<path fill-rule="evenodd" clip-rule="evenodd" d="M914.733 829.212C847.463 830.595 849.839 838.516 836.65 821.528C787.775 824.294 740.447 801.146 689.325 804.969C669.863 798.449 660.165 775.735 638.076 772.747C644.595 768.559 647.014 765.354 643.799 756.63C652.696 743.084 680.629 734.164 696.217 724.649C706.445 719.662 771.782 710.628 740.833 739.617C815.753 741.34 892.864 740.764 969.279 749.751C897.661 759.038 690.193 723.411 762.966 773.983V769.388C817.247 775.111 873.984 776.606 930.907 776.209C914.624 780.677 765.416 781.898 804.469 786.145C859.301 794.431 916.847 803.254 965.706 774.788C955.464 775.679 944.464 777.856 931.443 776.242C947.967 768.407 996.759 779.276 983.821 751.467C985.134 758.451 1086.83 711.598 1061.96 793.995C1017.33 824.007 965.14 818.82 914.733 829.212Z" fill="#E1C0FE"/>
<path fill-rule="evenodd" clip-rule="evenodd" d="M396.296 657.637C445.11 659.229 525.729 627.582 485.704 704.423C380.36 716.106 130.005 718.894 103.415 697.882C74.4308 634.305 99.573 626.293 127.557 620.534C190.218 605.427 255.839 617.367 313.262 647.495C345.317 655.318 372.995 658.699 396.296 657.637Z" fill="#FE7A95"/>
<path fill-rule="evenodd" clip-rule="evenodd" d="M591.388 768.511C574.721 771.23 577.297 774.637 557.497 763.309C528.681 772.283 517.218 748.706 566.6 722.456C561.882 718.073 560.152 708.594 569.043 700.701C558.461 692.714 492.629 690.445 507.428 659.936C510.141 639.5 528.509 667.832 540.284 659.936C578.785 670.226 620.358 686.445 663.821 691.401C677.154 691.198 717.134 661.963 721.064 690.158C726.202 696.652 727.693 705.381 717.52 709.472C690.412 719.8 656.807 717.665 645.672 752.28C645.782 792.256 617.118 765.535 591.388 768.511Z" fill="#FCEFC1"/>
<path fill-rule="evenodd" clip-rule="evenodd" d="M988.885 671.207C1017.72 650.238 1097.81 603.527 1091.29 678.687C1091.57 694.376 1098.64 716.42 1083.22 724.643C1003.8 733.156 925.414 729.432 845.814 728.542C861.569 732.916 858.442 690.504 850.155 678.687C860.217 683.402 877.848 674.857 917.105 681.894C934.956 680.368 950.253 681.894 988.885 671.207Z" fill="#FE7A95"/>
<path fill-rule="evenodd" clip-rule="evenodd" d="M749.4 760.849C749.166 741.548 770.014 746.638 788.65 744.477C852.206 749.855 912.382 753.943 976.734 749.05C1048.63 787.317 744.636 779.948 749.4 760.849Z" fill="#FDEEC2"/>
<path fill-rule="evenodd" clip-rule="evenodd" d="M156.092 768.462C118.815 772.414 155.833 727.446 178.861 725.458C277.563 724.602 337.499 702.908 323.943 731.983C277.947 765.742 176.923 740.456 156.092 768.462Z" fill="#FDEFC2"/>
<path fill-rule="evenodd" clip-rule="evenodd" d="M787.021 724.781C759.831 720.556 734.161 721.566 726.96 691.483C716.098 670.525 845.814 674.8 850.156 679.594C840.338 687.842 843.451 721.548 850.156 733.6C833.857 732.739 821.99 737.663 787.021 724.781Z" fill="#FE7B95"/>
<path fill-rule="evenodd" clip-rule="evenodd" d="M914.733 829.213C957.254 818.188 1047.49 824.345 1067.73 782.215C1101.7 810.427 908.334 853.578 914.733 829.213Z" fill="#D39FFE"/>
<path fill-rule="evenodd" clip-rule="evenodd" d="M988.886 671.207C995.99 682.919 988.993 733.876 970.061 706.751C968.719 694.647 967.423 657.966 988.886 671.207Z" fill="#F24063"/>
<path fill-rule="evenodd" clip-rule="evenodd" d="M843.518 728.195C834.594 718.014 838.731 668.413 859.356 689.941C861.339 701.886 866.354 732.635 843.518 728.195Z" fill="#F23E62"/>
<path fill-rule="evenodd" clip-rule="evenodd" d="M324.633 660.367C329.428 671.423 326.58 714.593 307.136 692.816C304.751 684.718 301.768 638.797 324.633 660.367Z" fill="#F23E62"/>
<path fill-rule="evenodd" clip-rule="evenodd" d="M917.022 691.618C922.677 707.804 913.433 738.257 898.427 712.635C892.168 697.373 898.851 660.707 917.022 691.618Z" fill="#F24063"/>
<path fill-rule="evenodd" clip-rule="evenodd" d="M392.308 668.625C394.327 678.133 396.54 713.611 375.044 695.09C367.609 683.333 373.131 646.955 392.308 668.625Z" fill="#F24063"/>
<path fill-rule="evenodd" clip-rule="evenodd" d="M787.021 724.78C776.282 716.265 773.477 674.999 796.188 690.874C801.5 699.133 808.053 729.757 787.021 724.78Z" fill="#F23E62"/>
<path fill-rule="evenodd" clip-rule="evenodd" d="M154.486 813.839C196.79 810.695 242.54 811.512 286.213 812.091C244.549 814.223 197.912 824.869 154.486 813.839Z" fill="#D4A2FE"/>
<path fill-rule="evenodd" clip-rule="evenodd" d="M516.619 689.043C525.388 694.493 555.74 688.459 549.996 705.307C533.298 702.169 511.981 706.528 491.624 707.731L516.619 689.043Z" fill="#D39FFE"/>
<path fill-rule="evenodd" clip-rule="evenodd" d="M458.288 778.832C476.705 768.785 501.115 761.447 523.404 753.183C507.008 770.721 468.503 790.951 458.288 778.832Z" fill="#D39FFE"/>
<path fill-rule="evenodd" clip-rule="evenodd" d="M89.3701 715.277C79.1375 727.935 69.6613 745.945 59.5009 760.81C44.3271 747.359 76.346 725.489 89.3701 715.277Z" fill="#D4A2FE"/>
<path fill-rule="evenodd" clip-rule="evenodd" d="M581.495 771.071C601.46 761.992 606.034 770.938 622.755 775.213C623.332 776.62 584.232 784.29 581.495 771.071Z" fill="#775839"/>
<path fill-rule="evenodd" clip-rule="evenodd" d="M734.722 718.122C723.559 726.569 713.153 716.233 698.067 723.305C707.234 721.503 724.299 704.851 734.722 718.122Z" fill="#D4A2FE"/>
<path fill-rule="evenodd" clip-rule="evenodd" d="M794.7 820.704C805.57 817.432 822.966 821.376 836.646 821.526C852.367 826.048 804.792 827.573 794.7 820.704Z" fill="#D4A2FE"/>
<path fill-rule="evenodd" clip-rule="evenodd" d="M411.228 790.79C420.508 784.401 436.003 781.308 450.002 778.855C438.84 782.512 426.226 794.69 411.228 790.79Z" fill="#D4A2FE"/>
<path fill-rule="evenodd" clip-rule="evenodd" d="M545.477 765.99C549.013 766.425 559.885 759.541 563.677 765.783C566.194 774.324 547.666 776.581 545.477 765.99Z" fill="#7A5D3E"/>
<path fill-rule="evenodd" clip-rule="evenodd" d="M524.197 658.978C522.933 653.062 537.764 654.464 540.281 659.932C536.029 664.067 532.975 662.484 524.197 658.978Z" fill="#7A5D3E"/>
<path fill-rule="evenodd" clip-rule="evenodd" d="M133.791 728.355C125.858 729.75 129.346 720.796 131.433 712.828C135.569 717.494 136.809 722.6 133.791 728.355Z" fill="#D4A2FE"/>
<path fill-rule="evenodd" clip-rule="evenodd" d="M671.219 689.463C665.473 693.193 655.819 691.165 646.467 688.545C654.719 688.851 662.968 689.157 671.219 689.463Z" fill="#876C4F"/>
<path fill-rule="evenodd" clip-rule="evenodd" d="M1095.81 839.602C1096.19 835.035 1096.56 830.468 1096.94 825.901C1097.91 830.578 1098.65 835.238 1095.81 839.602Z" fill="#E4DED8"/>
<path fill-rule="evenodd" clip-rule="evenodd" d="M815.945 824.275C819.975 824.492 824.005 824.707 828.034 824.922C823.931 826.08 819.826 827.292 815.945 824.275Z" fill="#E1C0FE"/>
<path fill-rule="evenodd" clip-rule="evenodd" d="M388.147 663.119C383.976 661.533 379.981 661.87 376.168 664.209C378.977 660.039 384.508 659.537 388.147 663.119Z" fill="#FEE2E7"/>
<path fill-rule="evenodd" clip-rule="evenodd" d="M622.62 776.191C622.401 775.753 623.921 773.34 627.81 775.664C626.08 775.839 624.351 776.015 622.62 776.191Z" fill="#E4DED8"/>
<path fill-rule="evenodd" clip-rule="evenodd" d="M601.212 568.227C603.508 568.08 605.805 567.934 608.102 567.788C605.805 567.934 603.508 568.081 601.212 568.227Z" fill="#FEFCF0"/>
<path fill-rule="evenodd" clip-rule="evenodd" d="M508.777 563.96C510.77 564.012 512.765 564.064 514.757 564.115C512.763 564.064 510.77 564.012 508.777 563.96Z" fill="#FEFCF0"/>
<path fill-rule="evenodd" clip-rule="evenodd" d="M627.81 775.663C627.55 775.315 627.291 774.97 627.03 774.622C629.188 774.295 631.345 773.968 633.502 773.64C631.604 774.314 629.707 774.989 627.81 775.663Z" fill="#775839"/>
<path fill-rule="evenodd" clip-rule="evenodd" d="M55.2031 749.723C55.2376 751.422 55.2722 753.119 55.3083 754.815C55.2737 753.118 55.2392 751.42 55.2031 749.723Z" fill="#E1BFFE"/>
<path fill-rule="evenodd" clip-rule="evenodd" d="M834.885 557.125C836.608 557.02 838.329 556.912 840.05 556.809C838.328 556.917 836.606 557.022 834.885 557.125Z" fill="#FEFCF0"/>
<path fill-rule="evenodd" clip-rule="evenodd" d="M764.719 562.307C766.15 562.195 767.581 562.082 769.01 561.973C767.579 562.086 766.15 562.197 764.719 562.307Z" fill="#FEFCF0"/>
<path fill-rule="evenodd" clip-rule="evenodd" d="M627.859 567.666C628.95 567.65 630.041 567.635 631.131 567.622C630.041 567.636 628.95 567.65 627.859 567.666Z" fill="#FEFCF0"/>
<path fill-rule="evenodd" clip-rule="evenodd" d="M437.829 1049.4C438.935 1049.37 440.042 1049.35 441.148 1049.32C440.042 1049.35 438.935 1049.37 437.829 1049.4Z" fill="#FEFCF0"/>
<path fill-rule="evenodd" clip-rule="evenodd" d="M819.478 558.831C820.344 558.76 821.212 558.688 822.078 558.619C821.21 558.691 820.344 558.762 819.478 558.831Z" fill="#FEFCF0"/>
<path fill-rule="evenodd" clip-rule="evenodd" d="M853.486 556.203L856.264 555.569C855.336 555.78 854.411 555.991 853.486 556.203Z" fill="#FEFCF0"/>
<path fill-rule="evenodd" clip-rule="evenodd" d="M944.44 545.14C945.31 545.009 946.179 544.877 947.048 544.745C946.179 544.878 945.31 545.01 944.44 545.14Z" fill="#FEFCF0"/>
<path fill-rule="evenodd" clip-rule="evenodd" d="M896.129 687.191C895.552 687.217 897.078 689.325 894.82 689.821C895.257 688.944 895.693 688.068 896.129 687.191Z" fill="#FEE2E7"/>
<path fill-rule="evenodd" clip-rule="evenodd" d="M399.224 709.404C399.806 709.422 400.386 709.437 400.967 709.453C400.386 709.437 399.806 709.42 399.224 709.404Z" fill="#FEE2E7"/>
<path fill-rule="evenodd" clip-rule="evenodd" d="M652.619 567.515C653.17 567.53 653.719 567.544 654.27 567.559C653.719 567.546 653.17 567.53 652.619 567.515Z" fill="#FEFCF0"/>
<path fill-rule="evenodd" clip-rule="evenodd" d="M782.662 561.368C783.251 561.221 783.839 561.075 784.427 560.931C783.839 561.077 783.251 561.223 782.662 561.368Z" fill="#FEFCF0"/>
<path fill-rule="evenodd" clip-rule="evenodd" d="M887.959 552.865C888.543 552.738 889.125 552.609 889.707 552.483C889.125 552.612 888.543 552.739 887.959 552.865Z" fill="#FEFCF0"/>
<path fill-rule="evenodd" clip-rule="evenodd" d="M66.3326 863.466C66.3169 864.053 66.3028 864.639 66.2871 865.224C66.3012 864.639 66.3169 864.053 66.3326 863.466Z" fill="#E4DED8"/>
<path fill-rule="evenodd" clip-rule="evenodd" d="M696.217 724.648C695.912 724.706 695.608 724.765 695.302 724.823C695.606 724.765 695.912 724.706 696.217 724.648Z" fill="#D4A2FE"/>
<path fill-rule="evenodd" clip-rule="evenodd" d="M888.983 843.086C888.645 843.194 888.308 843.304 887.971 843.411C888.308 843.302 888.645 843.194 888.983 843.086Z" fill="#E4DED8"/>
<path fill-rule="evenodd" clip-rule="evenodd" d="M563.116 87.6282C619.025 102.637 537.945 174.633 512.441 175.858C441.386 168.65 526.106 84.9109 563.116 87.6282Z" fill="#FDEFC0"/>
<path fill-rule="evenodd" clip-rule="evenodd" d="M607.976 168.522C617.074 74.9282 669.81 97.5039 665.748 123.338C678.391 213.975 611.974 241.765 607.976 168.522Z" fill="#FDEFC0"/>
<path fill-rule="evenodd" clip-rule="evenodd" d="M774.055 143.612C762.056 207.337 690.936 137.773 700.422 100.742C716.43 45.6898 775.265 114.747 774.055 143.612Z" fill="#FDEFC0"/>
<path fill-rule="evenodd" clip-rule="evenodd" d="M560.217 724.549C557.105 727.315 556.035 734.728 543.062 736.165C540.79 726.962 551.152 719.073 550.74 708.549C556.821 709.04 563.187 714.776 560.217 724.549Z" fill="#D39FFE"/>
<path fill-rule="evenodd" clip-rule="evenodd" d="M943.509 777.048C944.988 777.346 973.685 772.511 961.891 777.095C929.701 794.565 870.083 799.463 838.375 790.028C872.286 787.604 908.165 784.289 943.509 777.048Z" fill="#D39FFE"/>
<path fill-rule="evenodd" clip-rule="evenodd" d="M218.03 660.934C228.034 695.046 197.661 705.465 198.147 664.985C193.267 630.135 223.91 630.59 218.03 660.934Z" fill="#F23E62"/>
<path fill-rule="evenodd" clip-rule="evenodd" d="M161.026 651.069C169.065 687.629 139.36 692.19 140.724 652.641C135.996 624.869 165.568 621.921 161.026 651.069Z" fill="#F23E62"/>
<path fill-rule="evenodd" clip-rule="evenodd" d="M280.286 684.628C267.198 715.781 247.729 664.815 260.356 649.367C279.415 639.645 277.146 670.256 280.286 684.628Z" fill="#F23E62"/>
<path fill-rule="evenodd" clip-rule="evenodd" d="M435.994 679.576C440.377 649.921 462.774 667.637 457.854 694.27C448.215 712.648 435.23 696.678 435.994 679.576Z" fill="#F23E62"/>
<path fill-rule="evenodd" clip-rule="evenodd" d="M563.611 706.845C561.828 703.858 560.046 700.867 558.265 697.882C560.242 698.795 562.323 697.698 569.043 700.701C567.198 702.788 565.404 704.816 563.611 706.845Z" fill="#7A5D3E"/>
<path fill-rule="evenodd" clip-rule="evenodd" d="M561.093 721.234C561.672 720.23 562.251 719.228 562.832 718.224C563.966 719.498 565.099 720.771 566.6 722.456C564.043 723.296 562.131 723.925 560.218 724.551C560.508 723.443 560.8 722.339 561.093 721.234Z" fill="#876C4F"/>
<path fill-rule="evenodd" clip-rule="evenodd" d="M1051.25 684.915C1052.35 673.354 1061.09 632.089 1076.68 659.427C1077.81 672.206 1064.85 723.796 1051.25 684.915Z" fill="#F23E62"/>
<path fill-rule="evenodd" clip-rule="evenodd" d="M276.853 748.842C244.579 757.725 207.099 753.911 171.563 757.416C204.262 751.794 240.958 753.255 276.853 748.842Z" fill="#E8CDF7"/>
<path fill-rule="evenodd" clip-rule="evenodd" d="M281.956 748.036C281.116 748.286 280.275 748.535 279.436 748.786C280.277 748.535 281.116 748.286 281.956 748.036Z" fill="#E8CDF7"/>
<path fill-rule="evenodd" clip-rule="evenodd" d="M997.315 751.551C1009.81 758.379 1037.16 757.583 1055.57 761.938C1047.63 742.852 1016.34 754.482 997.315 751.551ZM662.048 750.65C680.943 747.905 700.358 742.903 721.75 739.493C748.072 709.172 666.302 731.782 662.048 750.65ZM811.747 795.241C792.822 795.638 760.885 773.338 756.228 805.007C775.668 807.416 794.054 809.694 812.552 811.985C812.259 805.877 812.007 800.648 811.747 795.241ZM839.474 814.515C858.003 815.797 876.168 817.055 895.115 818.366C888.548 788.037 861.495 799.407 836.924 797.432C837.732 802.845 838.553 808.34 839.474 814.515ZM971.882 815.314C956.795 781.883 945.688 796.639 914.495 797.423C918.736 829.956 947.543 813.493 971.882 815.314ZM127.557 723.196C106.928 710.897 60.1256 742.194 61.4452 765.508C129.176 739.326 106.616 756.907 127.557 723.196ZM1057.67 789.169C1045.08 787.389 957.183 762.026 990.112 796.946C998.629 825.044 1042.59 800.093 1057.67 789.169ZM667.405 776.059C688.782 789.282 735.077 816.619 738.678 780.497C731.399 752.412 690.158 773.943 667.405 776.059ZM76.0094 787.624C91.9355 802.163 121.431 805.975 144.327 807.906C154.672 744.69 112.818 775.076 76.0094 787.624ZM403.775 784.572C357.878 739.52 367.806 738.562 332.194 750.613C364.088 805.747 351.528 791.11 403.775 784.572ZM236.7 807.018C229.837 795.632 235.674 770.008 216.548 775.984C169.426 780.898 175.054 770.789 166.708 809.901C190.488 808.922 213.121 807.989 236.7 807.018ZM506.611 756.485C556.127 738.055 571.941 705.479 511.319 700.888C507.317 712.972 501.324 721.982 488.015 726.776C494.361 736.438 507.188 741.529 506.611 756.485ZM252.62 770.7C258.873 825.398 292.772 796.187 329.854 796.115C301.258 737.919 300.939 763.925 252.62 770.7ZM296.75 733.828C260.642 728.896 210.415 731.418 169.471 728.184C74.2583 773.153 282.2 744.557 296.75 733.828ZM486.545 763.128C453.074 713.106 432.707 735.814 388.87 733.249C447.146 790.27 420.495 783.097 486.545 763.128ZM866.429 772.925C886.313 771.87 987.395 772.952 967.529 753.257C794.103 756.354 730.386 734.267 753.638 755.576C788.754 771.845 827.604 769.31 866.429 772.925ZM712.437 698.543C574.53 705.574 595.314 674.907 513.686 658.857C511.01 681.659 526.522 672.882 544.659 681.067C589.111 702.477 584.473 740.03 548.841 763.519H633.122C633.207 722.978 676.312 703.592 712.437 698.543ZM736.256 688.087C742.308 701.693 743.224 719.844 763.647 719.695C868.398 729.8 973.409 730.946 1080.98 723.089C1100.4 720.977 1093.3 627.593 1066.25 645.286C1045.6 647.176 1025.91 651.765 1007.49 661.312C922.312 725.367 827.477 660.103 736.256 688.087ZM420.47 707.779C477.161 701.662 498.723 712.952 484.744 658.095C444.122 658.585 406.408 672.16 364.686 667.605C315.031 664.976 278.244 636.451 230.654 624.478C186.457 613.217 98.3514 628.63 98.5613 638.741C103.413 670.203 94.5088 691.693 131.553 697.801C227.731 711.39 323.901 706.097 420.47 707.779ZM756.039 1042.79C936.59 1029.85 1101.79 1027.46 1121.23 961.237C1128.11 939.389 1119.91 928.458 1096.68 921.832C1058.85 933.739 1013.88 949.484 968.626 948.59C764.667 959.917 561.127 962.445 356.072 955.501C-0.435913 949.207 99.4733 895.311 43.3632 918.289C-69.3779 1083.59 702.519 1046.73 756.039 1042.79ZM1118.53 617.909C1259.22 623.604 1224.69 552.841 1131.85 505.339C967.493 586.951 832.9 581.241 680.66 590.058C105.182 596.2 149.13 424.592 48.7797 520.237C9.17779 552.57 21.6409 631.251 82.0723 611.857C203.895 584.535 225.825 591.404 299.254 623.027C347.354 647.611 397.869 645.501 449.923 635.563C553.758 620.677 581.39 664.633 629.248 671.69C692.54 685.441 751.973 647.609 816.875 655.557C1033.64 689.24 956.697 608.612 1118.53 617.909ZM1084.89 790.352C1050.06 881.971 730.295 829.558 690.922 816.581C673.262 811.352 658.91 803.47 645.08 789.681C621.384 786.76 594.446 790.432 567.939 789.419C400.158 786.787 226.819 874.534 69.6311 815.408C35.9148 943.834 213.26 918.836 291.481 927.112C406.896 930.842 518.678 936.153 634.691 933.995C1088.62 925.032 1072.35 922.899 1091.03 858.088C1095.51 832.384 1103.2 793.605 1084.89 790.352ZM600.797 566.101C708.549 567.11 1138.27 552.155 1125.14 448.198C1094.94 216.023 918.195 32.0109 691.226 25.8088C377.058 20.0726 185.554 193.256 91.1541 447.044C239.535 539.82 427.217 558.914 600.797 566.101ZM76.8504 471.253C32.5743 435.989 176.978 231.985 189.317 219.281C356.681 0.508148 719.918 -66.8202 926.876 73.4911C1052.84 149.657 1167.83 363.748 1149.05 486.4C1287.07 556.913 1259.08 656.037 1109.73 643.379C1115.62 680.903 1131.4 744.012 1078.41 749.694C1081.62 765.351 1101.29 768.118 1114.17 778.707C1133.42 813.532 1113.99 871.438 1104.89 897.214C1143.43 909.869 1156.59 934.203 1145.07 969.904C1125.34 1088.36 625.071 1065.96 567.715 1074.17C96.2913 1075.75 -20.6221 1022.78 13.2605 914.572C19.2356 902.262 29.1396 895.187 43.9971 890.51C52.1281 888.727 38.7956 865.352 41.0677 855.938C39.6869 835.01 44.4961 819.085 46.9799 796.876C18.5185 755.046 49.6019 720.851 85.8491 702.245C71.4183 684.682 80.1973 653.937 70.265 639.522C-41.3229 637.127 -3.24928 494.704 76.8504 471.253Z" fill="black"/>
</svg>
