<svg width="26" height="26" viewBox="0 0 26 26" fill="none" xmlns="http://www.w3.org/2000/svg">
<g clip-path="url(#clip0_204_1535)">
<path d="M17.4375 8.94913C17.4375 8.74193 17.5198 8.54321 17.6663 8.3967C17.8128 8.25019 18.0115 8.16788 18.2188 8.16788H21.3438C21.551 8.16788 21.7497 8.25019 21.8962 8.3967C22.0427 8.54321 22.125 8.74193 22.125 8.94913V10.5116C22.125 10.7188 22.0427 10.9175 21.8962 11.0641C21.7497 11.2106 21.551 11.2929 21.3438 11.2929H18.2188C18.0115 11.2929 17.8128 11.2106 17.6663 11.0641C17.5198 10.9175 17.4375 10.7188 17.4375 10.5116V8.94913Z" fill="#363636"/>
<path d="M3.375 3.48038C2.5462 3.48038 1.75134 3.80962 1.16529 4.39567C0.57924 4.98172 0.25 5.77658 0.25 6.60538L0.25 19.1054C0.25 19.9342 0.57924 20.729 1.16529 21.3151C1.75134 21.9011 2.5462 22.2304 3.375 22.2304H22.125C22.9538 22.2304 23.7487 21.9011 24.3347 21.3151C24.9208 20.729 25.25 19.9342 25.25 19.1054V6.60538C25.25 5.77658 24.9208 4.98172 24.3347 4.39567C23.7487 3.80962 22.9538 3.48038 22.125 3.48038H3.375ZM23.6875 6.60538V14.4179H1.8125V6.60538C1.8125 6.19098 1.97712 5.79355 2.27015 5.50052C2.56317 5.2075 2.9606 5.04288 3.375 5.04288H22.125C22.5394 5.04288 22.9368 5.2075 23.2299 5.50052C23.5229 5.79355 23.6875 6.19098 23.6875 6.60538ZM22.125 20.6679H3.375C2.9606 20.6679 2.56317 20.5033 2.27015 20.2102C1.97712 19.9172 1.8125 19.5198 1.8125 19.1054V17.5429H23.6875V19.1054C23.6875 19.5198 23.5229 19.9172 23.2299 20.2102C22.9368 20.5033 22.5394 20.6679 22.125 20.6679Z" fill="#363636"/>
</g>
<defs>
<clipPath id="clip0_204_1535">
<rect width="25" height="25" fill="white" transform="translate(0.25 0.355377)"/>
</clipPath>
</defs>
</svg>
