<svg width="26" height="26" viewBox="0 0 26 26" fill="none" xmlns="http://www.w3.org/2000/svg">
<path d="M2.50317 10.2512V4.52204C2.50317 4.24578 2.61292 3.98082 2.80827 3.78547C3.00362 3.59012 3.26857 3.48038 3.54484 3.48038H22.2948C22.5711 3.48038 22.8361 3.59012 23.0314 3.78547C23.2268 3.98082 23.3365 4.24578 23.3365 4.52204V10.2512C22.6458 10.2512 21.9835 10.5256 21.4951 11.014C21.0067 11.5023 20.7323 12.1647 20.7323 12.8554C20.7323 13.546 21.0067 14.2084 21.4951 14.6968C21.9835 15.1852 22.6458 15.4595 23.3365 15.4595V21.1887C23.3365 21.465 23.2268 21.7299 23.0314 21.9253C22.8361 22.1206 22.5711 22.2304 22.2948 22.2304H3.54484C3.26857 22.2304 3.00362 22.1206 2.80827 21.9253C2.61292 21.7299 2.50317 21.465 2.50317 21.1887V15.4595C3.19384 15.4595 3.85622 15.1852 4.3446 14.6968C4.83297 14.2084 5.10734 13.546 5.10734 12.8554C5.10734 12.1647 4.83297 11.5023 4.3446 11.014C3.85622 10.5256 3.19384 10.2512 2.50317 10.2512ZM15.0032 5.56371H4.58651V8.65538C5.36902 9.04319 6.02762 9.64189 6.48807 10.384C6.94852 11.1261 7.1925 11.982 7.1925 12.8554C7.1925 13.7287 6.94852 14.5847 6.48807 15.3268C6.02762 16.0689 5.36902 16.6676 4.58651 17.0554V20.147H15.0032V5.56371ZM17.0865 5.56371V20.147H21.2532V17.0554C20.4707 16.6676 19.8121 16.0689 19.3516 15.3268C18.8912 14.5847 18.6472 13.7287 18.6472 12.8554C18.6472 11.982 18.8912 11.1261 19.3516 10.384C19.8121 9.64189 20.4707 9.04319 21.2532 8.65538V5.56371H17.0865Z" fill="#363636"/>
</svg>
