<svg width="25" height="26" viewBox="0 0 25 26" fill="none" xmlns="http://www.w3.org/2000/svg">
<g clip-path="url(#clip0_205_369)">
<path d="M14.5833 3.5C15.1358 3.5 15.6657 3.71949 16.0564 4.11019C16.4471 4.50089 16.6666 5.0308 16.6666 5.58333H19.7916C20.3441 5.58333 20.874 5.80283 21.2647 6.19353C21.6554 6.58423 21.8749 7.11413 21.8749 7.66667V9.75C21.8751 10.2139 21.7205 10.6646 21.4356 11.0306C21.1507 11.3967 20.7517 11.6572 20.302 11.7708L22.8333 17.6729C22.9135 17.8625 22.9239 18.0781 22.9218 18.2906L22.9166 18.6042C22.9169 19.4322 22.6354 20.2358 22.1183 20.8825C21.6012 21.5293 20.8793 21.9807 20.0715 22.1626C19.2636 22.3444 18.4179 22.2459 17.6736 21.8831C16.9292 21.5204 16.3305 20.915 15.976 20.1667H10.0655C9.73033 20.8749 9.17589 21.4562 8.48437 21.8246C7.79286 22.193 7.00105 22.3288 6.2263 22.2119C5.45154 22.095 4.73506 21.7317 4.18301 21.1757C3.63096 20.6196 3.27272 19.9006 3.16138 19.125H3.12492C2.84865 19.125 2.5837 19.0153 2.38835 18.8199C2.193 18.6246 2.08325 18.3596 2.08325 18.0833V9.75C2.08325 9.19747 2.30275 8.66756 2.69345 8.27686C3.08415 7.88616 3.61405 7.66667 4.16659 7.66667H8.33325C8.88579 7.66667 9.41569 7.88616 9.80639 8.27686C10.1971 8.66756 10.4166 9.19747 10.4166 9.75V11.8333C10.4166 12.3859 10.6361 12.9158 11.0268 13.3065C11.4175 13.6972 11.9474 13.9167 12.4999 13.9167C13.0525 13.9167 13.5824 13.6972 13.9731 13.3065C14.3638 12.9158 14.5833 12.3859 14.5833 11.8333V5.58333H12.4999C12.2237 5.58333 11.9587 5.47359 11.7633 5.27824C11.568 5.08289 11.4583 4.81793 11.4583 4.54167C11.4583 4.2654 11.568 4.00045 11.7633 3.8051C11.9587 3.60975 12.2237 3.5 12.4999 3.5H14.5833ZM6.77075 17.0417C6.35635 17.0417 5.95892 17.2063 5.6659 17.4993C5.37287 17.7923 5.20825 18.1898 5.20825 18.6042C5.20825 19.0186 5.37287 19.416 5.6659 19.709C5.95892 20.002 6.35635 20.1667 6.77075 20.1667C7.18515 20.1667 7.58258 20.002 7.87561 19.709C8.16863 19.416 8.33325 19.0186 8.33325 18.6042C8.33325 18.1898 8.16863 17.7923 7.87561 17.4993C7.58258 17.2063 7.18515 17.0417 6.77075 17.0417ZM19.2708 17.0417C18.9617 17.0417 18.6596 17.1333 18.4027 17.305C18.1457 17.4767 17.9455 17.7207 17.8272 18.0062C17.7089 18.2917 17.678 18.6059 17.7383 18.909C17.7986 19.2121 17.9474 19.4905 18.1659 19.709C18.3844 19.9275 18.6628 20.0764 18.9659 20.1366C19.269 20.1969 19.5832 20.166 19.8687 20.0477C20.1542 19.9295 20.3982 19.7292 20.5699 19.4722C20.7416 19.2153 20.8333 18.9132 20.8333 18.6042C20.8333 17.775 20.103 17.0417 19.2708 17.0417ZM8.33325 9.75H4.16659V11.8333H8.33325V9.75ZM19.7916 7.66667H16.6666V9.75H19.7916V7.66667Z" fill="#363636"/>
</g>
<defs>
<clipPath id="clip0_205_369">
<rect width="25" height="25" fill="white" transform="translate(0 0.375)"/>
</clipPath>
</defs>
</svg>
