<svg width="1511" height="1170" viewBox="0 0 1511 1170" fill="none" xmlns="http://www.w3.org/2000/svg">
<g clip-path="url(#clip0_112_163)">
<path fill-rule="evenodd" clip-rule="evenodd" d="M247.786 743.253L250.727 799.379L289.258 802.794C310.011 791.836 320.205 782.863 319.838 775.875C319.472 768.887 316.448 752.677 310.767 727.245L284.565 713.245L247.786 743.253Z" fill="white"/>
<path fill-rule="evenodd" clip-rule="evenodd" d="M247.786 743.253L250.727 799.379L289.258 802.794C310.011 791.836 320.205 782.863 319.838 775.875C319.472 768.887 316.448 752.677 310.767 727.245L284.565 713.245L247.786 743.253Z" fill="white"/>
<path fill-rule="evenodd" clip-rule="evenodd" d="M493.618 907.424L496.559 963.55L535.089 966.965C555.843 956.007 566.036 947.034 565.67 940.046C565.304 933.058 562.28 916.848 556.599 891.416L530.396 877.416L493.618 907.424Z" fill="white"/>
<path fill-rule="evenodd" clip-rule="evenodd" d="M412.294 699.967L415.236 756.093L453.766 759.508C474.519 748.55 484.713 739.577 484.347 732.589C483.98 725.601 480.957 709.391 475.276 683.959L449.073 669.959L412.294 699.967Z" fill="white"/>
<path fill-rule="evenodd" clip-rule="evenodd" d="M737.066 779.137L740.008 835.263L778.538 838.678C799.291 827.72 809.485 818.747 809.119 811.759C808.752 804.771 805.729 788.561 800.048 763.129L773.845 749.129L737.066 779.137Z" fill="white"/>
<path fill-rule="evenodd" clip-rule="evenodd" d="M871.98 648.606L874.921 704.732L913.451 708.147C934.205 697.188 944.398 688.215 944.032 681.228C943.666 674.24 940.642 658.03 934.961 632.598L908.758 618.598L871.98 648.606Z" fill="white"/>
<path fill-rule="evenodd" clip-rule="evenodd" d="M889.812 692.103L892.753 748.229L931.284 751.644C952.037 740.686 962.23 731.713 961.864 724.725C961.498 717.737 958.474 701.527 952.793 676.095L926.59 662.095L889.812 692.103Z" fill="white"/>
<path fill-rule="evenodd" clip-rule="evenodd" d="M1049.89 611.007L1052.83 667.133L1091.36 670.548C1112.11 659.59 1122.31 650.617 1121.94 643.629C1121.57 636.641 1118.55 620.431 1112.87 594.999L1086.67 580.999L1049.89 611.007Z" fill="white"/>
<path fill-rule="evenodd" clip-rule="evenodd" d="M1083.32 699.743L1086.26 755.869L1124.79 759.284C1145.55 748.326 1155.74 739.353 1155.38 732.365C1155.01 725.377 1151.99 709.167 1146.3 683.735L1120.1 669.735L1083.32 699.743Z" fill="white"/>
<path fill-rule="evenodd" clip-rule="evenodd" d="M755.369 868.03L758.311 924.156L796.841 927.571C817.595 916.613 827.788 907.64 827.422 900.652C827.056 893.664 824.032 877.454 818.351 852.022L792.148 838.022L755.369 868.03Z" fill="white"/>
<path fill-rule="evenodd" clip-rule="evenodd" d="M916.021 823.275L918.963 879.401L957.493 882.816C978.246 871.857 988.44 862.884 988.074 855.896C987.707 848.909 984.684 832.699 979.003 807.267L952.8 793.267L916.021 823.275Z" fill="white"/>
<path fill-rule="evenodd" clip-rule="evenodd" d="M975.452 831.58L978.393 887.706L1016.92 891.12C1037.68 880.162 1047.87 871.189 1047.5 864.201C1047.14 857.213 1044.11 841.003 1038.43 815.571L1012.23 801.571L975.452 831.58Z" fill="white"/>
<path fill-rule="evenodd" clip-rule="evenodd" d="M891.767 905.936L894.708 962.061L933.239 965.476C953.992 954.518 964.186 945.545 963.819 938.557C963.453 931.569 960.429 915.359 954.748 889.927L928.545 875.927L891.767 905.936Z" fill="white"/>
<path fill-rule="evenodd" clip-rule="evenodd" d="M192.492 807.985L195.433 864.111L233.963 867.526C254.717 856.567 264.91 847.594 264.544 840.607C264.178 833.619 261.154 817.409 255.473 791.977L229.27 777.977L192.492 807.985Z" fill="white"/>
<path fill-rule="evenodd" clip-rule="evenodd" d="M198.208 1040.41L201.15 1096.54L239.68 1099.95C260.433 1089 270.627 1080.02 270.261 1073.04C269.894 1066.05 266.871 1049.84 261.19 1024.41L234.987 1010.41L198.208 1040.41Z" fill="white"/>
<path fill-rule="evenodd" clip-rule="evenodd" d="M647.353 705.656L650.294 761.782L688.824 765.197C709.578 754.238 719.771 745.265 719.405 738.277C719.039 731.289 716.015 715.08 710.334 689.647L684.131 675.647L647.353 705.656Z" fill="white"/>
<path fill-rule="evenodd" clip-rule="evenodd" d="M699.749 730.225L702.691 786.351L741.221 789.765C761.974 778.807 772.168 769.834 771.802 762.846C771.435 755.858 768.412 739.648 762.731 714.216L736.528 700.216L699.749 730.225Z" fill="white"/>
<path fill-rule="evenodd" clip-rule="evenodd" d="M654.038 643.004L656.979 699.13L695.51 702.545C716.263 691.586 726.456 682.613 726.09 675.626C725.724 668.638 722.7 652.428 717.019 626.996L690.816 612.996L654.038 643.004Z" fill="white"/>
<path fill-rule="evenodd" clip-rule="evenodd" d="M500.98 757.202L503.921 813.328L542.451 816.742C563.205 805.784 573.398 796.811 573.032 789.823C572.666 782.835 569.642 766.625 563.961 741.193L537.758 727.193L500.98 757.202Z" fill="white"/>
<path fill-rule="evenodd" clip-rule="evenodd" d="M556.295 470.808L559.236 526.934L597.766 530.349C618.52 519.391 628.713 510.418 628.347 503.43C627.981 496.442 624.957 480.232 619.276 454.8L593.073 440.8L556.295 470.808Z" fill="white"/>
<path fill-rule="evenodd" clip-rule="evenodd" d="M525.876 570.847L528.818 626.973L567.348 630.388C588.101 619.429 598.295 610.456 597.929 603.468C597.562 596.48 594.539 580.27 588.858 554.838L562.655 540.838L525.876 570.847Z" fill="white"/>
<path fill-rule="evenodd" clip-rule="evenodd" d="M646.545 392.221L649.486 448.347L688.016 451.762C708.77 440.804 718.963 431.831 718.597 424.843C718.231 417.855 715.207 401.645 709.526 376.213L683.323 362.213L646.545 392.221Z" fill="white"/>
<path fill-rule="evenodd" clip-rule="evenodd" d="M795.546 294.653L798.488 350.779L837.018 354.194C857.771 343.235 867.965 334.262 867.599 327.274C867.232 320.287 864.209 304.077 858.528 278.644L832.325 264.645L795.546 294.653Z" fill="white"/>
<path fill-rule="evenodd" clip-rule="evenodd" d="M873.629 438.239L876.571 494.365L915.101 497.78C935.854 486.821 946.048 477.848 945.682 470.86C945.315 463.873 942.292 447.663 936.611 422.23L910.408 408.23L873.629 438.239Z" fill="white"/>
<path fill-rule="evenodd" clip-rule="evenodd" d="M949.409 321.605L952.35 377.73L990.88 381.145C1011.63 370.187 1021.83 361.214 1021.46 354.226C1021.09 347.238 1018.07 331.028 1012.39 305.596L986.187 291.596L949.409 321.605Z" fill="white"/>
<path fill-rule="evenodd" clip-rule="evenodd" d="M1049.64 325.851L1052.58 381.977L1091.11 385.392C1111.86 374.434 1122.06 365.461 1121.69 358.473C1121.32 351.485 1118.3 335.275 1112.62 309.843L1086.42 295.843L1049.64 325.851Z" fill="white"/>
<path fill-rule="evenodd" clip-rule="evenodd" d="M676.626 731.162C690.35 730.501 690.338 709.9 674.945 708.959C661.612 710.826 660.463 731.017 676.626 731.162ZM567.617 588.75C581.53 588.526 582.507 566.145 567.183 565.691C553.781 566.616 551.055 588.336 567.617 588.75ZM225.264 1055.32C226.435 1070.86 248.009 1069.42 248.223 1053.25C246.415 1040.43 226.237 1039.08 225.264 1055.32ZM1000.5 343.512C1014.24 343.578 1016.44 321.574 1000.88 320.368C987.117 320.834 984.045 343.197 1000.5 343.512ZM1135.52 726.726C1134.28 711.629 1113.77 710.643 1112.43 727.013C1113.43 740.872 1135.11 742.647 1135.52 726.726ZM695.333 635.098C683.121 635.612 678.481 654.2 692.288 658.034C707.572 661.712 714.002 635.447 695.333 635.098ZM847.596 314.922C846.531 300.139 825.355 302.208 823.738 316.55C825.221 331.613 846.306 330.991 847.596 314.922ZM1104.92 633.096C1103.61 617.091 1081.95 620.203 1081.1 636.044C1082.2 651.466 1104.59 648.963 1104.92 633.096ZM899.955 448.705C899.719 463.247 921.492 467.1 922.437 448.616C923.704 429.642 898.151 432.634 899.955 448.705ZM735.73 749.418C747.745 749.281 755.115 729.334 740.017 724.836C724.403 721.146 715.843 748.028 735.73 749.418ZM521.829 766.308C523.273 782.87 546.081 777.801 547.308 762.808C546.119 747.039 522.164 750.884 521.829 766.308ZM919.006 713.526C919.21 731.144 942.199 729.851 942.021 712.016C940.789 696.6 918.155 695.494 919.006 713.526ZM1079.8 333.232C1078.91 349.266 1102.12 359.88 1105.82 339.796C1106.14 324.143 1083.05 312.904 1079.8 333.232ZM661.556 410.379C663.958 429.513 691.587 420.208 693.925 402.604C691.147 383.513 665.454 394.92 661.556 410.379ZM792.558 862.876C769.824 866.244 783.171 888.893 798.635 894.143C824.676 895.991 809.91 868.002 792.558 862.876ZM477.227 715.529C474.479 682.78 429.54 696.828 428.162 725.916C434.218 761.138 478.546 743.163 477.227 715.529ZM930.694 659.406C926.243 626.385 884.534 648.715 881.976 671.772C886.766 717.117 930.408 687.85 930.694 659.406ZM596.183 453.724C585.12 453.874 577.607 460.398 571.009 473.059C552.99 553.175 665.609 464.548 596.183 453.724ZM556.957 923.541C556.114 883.791 506.905 907.938 505.512 934.68C510.359 979.12 561.656 961.826 556.957 923.541ZM744.718 803.892C748.027 853.279 811.255 813.375 801.151 779.112C791.137 743.735 742.118 777.521 744.718 803.892ZM128.227 843.53C121.434 817.989 177.68 871.019 181.796 874.123C213.113 881.864 241.211 870.866 270.493 856.754L270.395 856.778C305.541 839.305 329.52 825.129 362.214 798.331C382.178 718.769 404.839 698.933 362.494 637.076C393.709 602.856 435.643 582.471 437.928 557.021C455.02 539.35 459.861 556.355 460.548 575.569C465.804 584.956 488.064 717.504 503.056 648.412C518.049 579.319 490.878 511.901 504.789 508.355C632.634 397.911 649.092 348.253 656.74 363.839C675.787 328.175 692.547 367.405 724.348 360.345C718.34 341.522 759.503 339.983 739.476 322.38C738.568 314.421 744.158 311.921 736.413 303.512C821.218 223.504 922.771 156.267 921.217 125.533C931.817 109.151 970.528 151.31 986.729 149.227C1062.53 166.96 1031.41 177.195 1053.41 227.958C1083.12 288.471 1147.7 258.104 1151.12 294.2C1150.27 395.54 1229.73 335.14 1206.96 406.172C1205.51 417.289 1202.27 426.123 1209.1 436.352C1216.2 448.897 1236.22 447.363 1251.46 454.421C1344.05 489.856 1277.79 550.128 1333.31 624.071C1338.78 632.945 1341.59 676.476 1313.57 662.409C1304.62 643.534 1304.17 636.862 1278.65 634.608C1238.82 632.242 1197.5 667.768 1171.12 698.095C1180.95 723.712 1204.62 728.887 1213.63 729.041C1266.58 684.82 1205.01 771.885 1214.43 794.762C1196.05 825.74 1198.74 806.184 1163.42 830.502C1102.01 840.472 1111.21 844.042 1081.24 802.253C1036.34 733.286 936.264 754.085 909.009 782.451L908.991 782.351C908.169 782.997 907.347 783.642 906.527 784.288L906.527 784.202C886.898 795.353 873.528 817.134 864.045 840.364L864.262 840.397C824.725 904.211 869.219 965.877 839.871 968.178C810.523 970.479 811.233 964.693 798.438 968.996C767.431 979.762 743.585 994.795 714.011 1011.51C548.311 1116.11 536.894 901.279 405.664 1010.07C354.993 1006.29 358.979 957.653 302.409 998.899C266.538 1025.31 272.734 1076.93 252.106 1113.79C188.491 1209.77 152.119 1048.85 120.769 1033.88C96.8562 1018.38 71.4238 1034.97 44.1349 1027.85C30.4567 1012.45 22.7556 985.344 33.1174 964.331C36.6916 969.767 41.0151 974.432 47.472 978.551C46.4957 955.998 66.8978 958.886 85.7312 955.15C86.5801 935.067 121.784 906.811 89.4985 881.949C120.058 860.419 132.968 847.613 128.227 843.53Z" fill="#FDEFC1"/>
<path fill-rule="evenodd" clip-rule="evenodd" d="M1328.13 676.128C1351.56 663.566 1291.89 571.364 1297.22 549.141C1301.28 464.339 1266.21 489.341 1218.92 449.482C1187.46 410.5 1199.55 420.552 1201.03 380.081C1190.11 359.734 1141.61 375.375 1145.16 306.504C1137.87 253.463 1050.42 308.464 1028.6 181.85C847.898 137.786 967.185 47.9458 946.259 72.75C1090.39 -98.0785 1126.53 137.708 1153.08 148.651C1200.15 170.441 1242.61 198.217 1271.09 243.549C1287.17 268.508 1294.02 289.564 1298.18 317.143C1321.93 339.84 1300.53 338.45 1301.26 347.895C1311.28 357.768 1324.28 340.062 1336.96 350.28C1353.95 367.593 1396.23 389.738 1391.8 406.342C1431.26 484.32 1393.82 545.424 1427.93 568.833C1575.15 719.792 1359.76 843.167 1328.13 676.128Z" fill="#FEE966"/>
<path fill-rule="evenodd" clip-rule="evenodd" d="M1479.65 727.134C1492.66 778.81 1441.19 835.082 1387.37 825.934C1269.6 872.965 1101.21 904.737 1065.39 899.389C1089.91 821.961 1128.7 865.386 1174.24 837.104C1243.17 794.567 1289.33 812.274 1339.66 789.018C1358.43 782.613 1366.7 768.606 1383.68 759.787C1431.24 766.578 1449.09 754.689 1479.65 727.134Z" fill="#FEE967"/>
<path fill-rule="evenodd" clip-rule="evenodd" d="M984.735 802.17C954.346 799.126 924.829 821.692 906.677 846.032C863.811 885.22 948.225 904.897 972.11 931.885C971.709 887.806 977.112 845.238 984.735 802.17ZM880.444 959.912C834.677 995.773 849.106 865.823 860.279 850.78C870.352 826.655 890.906 807.785 906.526 784.201C907.437 783.751 906.522 784.19 908.99 782.352C908.99 782.352 909.009 782.45 909.007 782.448C960.161 750.896 1033.13 765.364 1074.74 809.608L1074.71 809.57C1092.58 822.069 1081.76 867.509 1057.56 847.234C991.612 764.661 1017.2 830.896 996.22 824.329C987.009 827.367 985.726 838.545 991.532 847.234C1009.66 858.382 990.264 904.271 995.74 924.636C1006.08 988.48 947.146 952.367 932.548 926.162C937.372 913.815 920.013 903.044 910.825 916.03C902.094 909.972 893.361 903.912 884.121 897.501C879.646 916.854 883.036 938.597 880.444 959.912Z" fill="#F23E62"/>
<path fill-rule="evenodd" clip-rule="evenodd" d="M260.482 794.797L261.861 821.102C294.568 811.237 311.914 786.73 326.369 758.13C281.067 757.635 303.826 748.479 278.363 736.539C251.39 738.138 245.834 775.27 260.482 794.797ZM269.69 857.058C261.723 857.437 245.132 876.772 236.786 863.808C219.449 859.958 189.514 873.462 177.322 853.873C160.367 855.879 130.759 830.875 155.202 818.506C178.673 820.124 197.142 824.378 212.275 833.086C231.007 843.864 242.474 833.294 238.475 817.381C232.268 792.685 231.684 762.382 233.717 735.326C286.437 700.988 364.975 790.866 329.478 667.594C318.922 638.706 349.268 636.697 354.188 667.758C361.522 672.501 370.785 674.519 373.922 687.594C400.208 780.244 335.905 820.681 269.69 857.058Z" fill="#F23F62"/>
<path fill-rule="evenodd" clip-rule="evenodd" d="M388.559 1008.26C428.019 1006.87 460.264 977.664 502.493 984.931C510.473 991.878 505.701 994.638 520.61 992.387C533.034 991.815 529.987 1028.92 522.968 1031.16C478.347 1040.36 433.576 1039.57 387.54 1047.47C350.219 1044.26 309.946 1097.41 288.22 1049.43C344.915 953.487 344.984 1010.1 388.559 1008.26Z" fill="#FEE967"/>
<path fill-rule="evenodd" clip-rule="evenodd" d="M1273.94 756.028C1284.59 748.985 1303.31 741.488 1314.02 732.818C1310.82 701.277 1260.04 671.932 1240.66 697.736C1263.58 707.987 1277.19 728.688 1273.94 756.028ZM1237.63 728.475L1175.93 713.211C1179.22 708.1 1202.57 682.472 1209.15 675.438C1327.62 593.479 1419.47 790.857 1271.92 789.407C1261.91 789.31 1190.87 789.763 1223.8 767.627" fill="#705131"/>
<path fill-rule="evenodd" clip-rule="evenodd" d="M450.023 541.836C466.009 516.669 492.914 525.302 495.542 541.501C500.901 542.832 507.602 634.445 511.37 644.56C518.201 678.153 487.411 655.998 481.47 656.104C485.366 671.731 445.502 566.433 450.023 541.836Z" fill="#E1C0FE"/>
<path fill-rule="evenodd" clip-rule="evenodd" d="M995.911 934.686C989.785 817.076 1029 855.643 1004.44 824.331C1005.98 820.719 1005.35 796.941 1011.77 799.148C1113.11 834.024 1040.8 904.188 995.911 934.686Z" fill="#FE7A95"/>
<path fill-rule="evenodd" clip-rule="evenodd" d="M127.104 1104.42C103.029 1108.26 95.3648 1103.33 70.2288 1087.22C63.3075 1082.57 62.8915 1051.21 72.2303 1043.57C88.4832 1046.59 113.687 1018.15 115.557 1049.15C140.085 1031.9 163.94 1120.67 127.104 1104.42Z" fill="#FEE968"/>
<path fill-rule="evenodd" clip-rule="evenodd" d="M880.444 959.913C882.956 941.463 879.523 918.086 884.122 897.501C926.96 920.875 899.542 925.122 920.803 934.073C929.047 934.667 926.907 922.318 938.95 927.685C1022.19 964.782 923.021 984.01 880.444 959.913Z" fill="#FE7A95"/>
<path fill-rule="evenodd" clip-rule="evenodd" d="M329.48 667.598C356.701 763.139 323.05 730.462 263.771 727.977C284.252 708.927 306.215 687.437 329.48 667.598Z" fill="#FE7A95"/>
<path fill-rule="evenodd" clip-rule="evenodd" d="M234.003 755.655C238.116 776.769 240.232 795.799 239.394 819.393C234.082 811.183 214.187 818.796 212.274 833.086C196.685 832.093 182.835 824.625 168.184 819.242C188.243 799.063 211.746 777.429 234.003 755.655Z" fill="#FE7A95"/>
<path fill-rule="evenodd" clip-rule="evenodd" d="M740.477 324.94C746.303 330.979 752.622 334.874 743.65 343.365C680.287 389.063 644.136 330.241 736.415 303.511C742.987 308.272 738.295 315.835 740.477 324.94Z" fill="#BCFEB9"/>
<path fill-rule="evenodd" clip-rule="evenodd" d="M79.5276 897.358C126.976 891.301 100.634 913.694 92.4087 939.934C41.3887 980.216 45.3178 929.031 79.5276 897.358Z" fill="#BCFEB9"/>
<path fill-rule="evenodd" clip-rule="evenodd" d="M1074.71 809.569L1074.74 809.609C1057.04 777.413 1013.97 760.447 977.12 758.053C1061.33 732.981 1140.74 879.899 1084.61 830.845C1085.24 824.173 1080.23 816.135 1074.71 809.569Z" fill="#FEEA6B"/>
<path fill-rule="evenodd" clip-rule="evenodd" d="M304.9 841.397C351.848 813.33 360.836 783.952 378.511 793.073C395.365 812.173 320.814 835.949 304.9 841.397Z" fill="#FEEA6B"/>
<path fill-rule="evenodd" clip-rule="evenodd" d="M125.835 858.36C109.926 895.044 113.275 811.94 163.276 855.745C156.367 877.93 140.481 846.659 125.835 858.36Z" fill="#FEEA6B"/>
<path fill-rule="evenodd" clip-rule="evenodd" d="M859.273 629.261C851.105 656.159 726.255 724.549 754.179 666.448C718.801 611.797 755.549 648.365 733.359 608.318C758.868 611.678 740.651 573.201 727.544 598.965C718.137 578.635 699.888 591.079 688.618 604.364C618.594 727.063 554.784 430.908 800.703 429.098C789.237 429.181 790.312 453.436 793.972 467.871C738.104 461.68 680.449 513.896 670.399 556.483C698.316 571.53 740.674 549.495 770.578 587.878C767.207 536.333 789.299 512.718 827.264 492.15C824.881 489.09 822.863 486.503 820.846 483.913C838.238 482.229 852.778 459.813 848.02 442.017C855.195 447.488 866.479 453.594 874.089 463.702L874.005 463.678C923.35 578.569 788.645 538.048 795.215 588.472C813.573 575.955 816.926 585.111 828.413 598.664C832.252 622.005 839.97 618.399 859.273 629.261Z" fill="#705030"/>
<path fill-rule="evenodd" clip-rule="evenodd" d="M1119.31 489.613C1133.86 461.66 1083.69 465.452 1104.93 491.98C1073.42 491.042 1113.95 552.821 1129.76 558.929C1137.93 533.007 1145.64 508.56 1153.64 483.178C1141.74 485.407 1130.53 487.51 1119.31 489.613ZM1144.04 608.54C1039.6 556.858 1082.53 531 1048.52 492.197C1064.23 470.098 1068.8 441.045 1079.65 410.432C1080.89 407.966 1083.39 403.412 1086.68 397.215C1087.52 396.102 1086.68 397.207 1089.14 393.79C1089.14 393.79 1089.14 393.873 1089.13 393.87C1166.73 335.957 1097.15 439.649 1094.29 470.31C1260.09 441.981 1173.52 464.758 1162.99 529.809C1159.8 544.856 1147.05 578.577 1169.61 568.909C1354.4 489.714 1222.86 608.664 1144.04 608.54Z" fill="#F23F62"/>
<path fill-rule="evenodd" clip-rule="evenodd" d="M920.973 373.424C875.567 343.531 913.337 255.369 932.223 216.209C976.754 173.143 948.806 249.431 937.62 269.72C957.435 280.5 962.764 308.816 953.044 335.319C946.477 354.603 963.018 357.123 920.973 373.424Z" fill="#E1C0FE"/>
<path fill-rule="evenodd" clip-rule="evenodd" d="M264.966 929.99C315.51 891.105 305.33 934.62 271.469 960.51C257.072 967.9 241.12 991.677 223.498 991.741C211.246 978.345 170.362 1014.61 178.065 980.322C261.064 925.729 239.799 959.944 264.966 929.99Z" fill="#E1C0FE"/>
<path fill-rule="evenodd" clip-rule="evenodd" d="M707.076 935.776C692.028 936.221 694.13 954.286 684.209 961.124C628.374 995.591 661.682 853.749 707.076 935.776Z" fill="#BCFEB9"/>
<path fill-rule="evenodd" clip-rule="evenodd" d="M434.148 876.495C430.51 887.772 430.636 898.186 430.033 912.104C423.088 931.836 387.02 906.315 391.397 891.48C399.553 882.198 426.03 858.952 434.148 876.495Z" fill="#BCFEB9"/>
<path fill-rule="evenodd" clip-rule="evenodd" d="M1018.88 627.401C1040.01 620.122 1047.92 664.439 1024.78 666.487C1005.76 657.515 970.673 618.962 1018.88 627.401Z" fill="#BCFEB9"/>
<path fill-rule="evenodd" clip-rule="evenodd" d="M842.572 827.008C854.784 769.814 911.792 730.275 969.294 735.222C909.337 741.71 868.533 773.855 843.997 828.153C843.521 827.773 843.048 827.391 842.572 827.008Z" fill="#FEEA6B"/>
<path fill-rule="evenodd" clip-rule="evenodd" d="M594.298 677.198C585.491 663.175 661.603 634.343 637.281 698.117C632.095 685.994 606.043 656.991 594.298 677.198Z" fill="#FEEA6B"/>
<path fill-rule="evenodd" clip-rule="evenodd" d="M594.298 677.198C604.694 658.578 634.41 681.307 627.132 700.311C614.057 702.324 594.08 697.222 594.298 677.198Z" fill="#BCFEB9"/>
<path fill-rule="evenodd" clip-rule="evenodd" d="M1028.11 666.555C1044.13 656.729 1041.85 629.845 1039.31 612.054C1049.3 603.198 1044.66 670.299 1039.57 675.664C1031.01 681.203 998.602 695.051 998.035 676.677C1007.06 676.198 1021.11 677.658 1028.11 666.555Z" fill="#FEEA6B"/>
<path fill-rule="evenodd" clip-rule="evenodd" d="M955.949 290.932C944.959 288.268 952.041 270.352 937.62 269.719C943.323 256.838 948.929 238.727 956.631 224.064C978.542 249.09 943.358 230.509 955.949 290.932Z" fill="#BDFDBB"/>
<path fill-rule="evenodd" clip-rule="evenodd" d="M264.966 929.99C263.872 944.414 138.757 980.519 187.01 996.547C132.752 990.409 250.478 931.986 264.966 929.99Z" fill="#BDFDBB"/>
<path fill-rule="evenodd" clip-rule="evenodd" d="M844.308 447.46C843.322 445.544 842.334 443.628 841.349 441.713C868.815 448.828 896.27 470.055 891.85 503.126C886.3 477.547 866.507 462.707 844.308 447.46Z" fill="#FEEA6B"/>
<path fill-rule="evenodd" clip-rule="evenodd" d="M271.772 960.232C278.173 948.896 314.673 929.277 294.935 913.913C333.347 926.07 296.751 954.491 271.772 960.232Z" fill="#BDFDBB"/>
<path fill-rule="evenodd" clip-rule="evenodd" d="M629.814 620.6C639.761 632.242 656.924 643.33 675.384 640.468C673.523 645.92 671.66 651.374 669.619 657.351C657.454 649.234 628.428 636.516 629.814 620.6Z" fill="#FEEA6B"/>
<path fill-rule="evenodd" clip-rule="evenodd" d="M1051.17 463.523C1049.09 481.255 1047.55 503.141 1048.65 524.149C1028.81 500.212 1041.01 483.587 1051.17 463.523Z" fill="#FEEA6B"/>
<path fill-rule="evenodd" clip-rule="evenodd" d="M815.309 580.928C819.946 568.153 829.938 569.293 841.732 576.026C832.806 590.55 828.455 605.466 815.309 580.928Z" fill="#FEE968"/>
<path fill-rule="evenodd" clip-rule="evenodd" d="M173.55 984.573C173.281 990.701 175.59 995.634 180.44 999.384C144.592 1017.15 167.809 999.663 163.058 975.551C169.073 975.942 170.651 981.035 173.55 984.573Z" fill="#FEEA6B"/>
<path fill-rule="evenodd" clip-rule="evenodd" d="M496.455 820.99C492.675 825.203 488.897 829.414 485.117 833.626C462.479 801.1 492.366 800.083 496.455 820.99Z" fill="#FEEA6B"/>
<path fill-rule="evenodd" clip-rule="evenodd" d="M920.974 373.425C929.148 372.368 934.725 363.785 946.863 362.419C946.041 364.917 945.201 370.461 943.231 375.621C938.722 383.794 924.93 386.193 920.974 373.425Z" fill="#BCFEB9"/>
<path fill-rule="evenodd" clip-rule="evenodd" d="M182.851 866.49C199.903 871.1 219.931 872.806 239.264 869.791C232.033 874.881 167.343 883.8 182.851 866.49Z" fill="#FEEA72"/>
<path fill-rule="evenodd" clip-rule="evenodd" d="M1111.56 366.806C1109.93 375.456 1103 377.64 1095.91 379.626C1099.67 370.94 1100.12 364.314 1091.4 356.974C1099.33 351.201 1111.52 357.413 1111.56 366.806Z" fill="#FEEA6B"/>
<path fill-rule="evenodd" clip-rule="evenodd" d="M456.919 662.87C449.504 649.696 439.415 604.706 440.822 586.783C444.893 609.706 455.073 640.346 456.919 662.87Z" fill="#FEEA72"/>
<path fill-rule="evenodd" clip-rule="evenodd" d="M681.703 910.582C672.609 907.37 668.429 917.724 658.414 919.437C657.98 907.906 671.488 889.968 681.703 910.582Z" fill="#FEEA6B"/>
<path fill-rule="evenodd" clip-rule="evenodd" d="M1248.51 580.318C1255.35 571.493 1252.22 551.243 1272.78 563.062C1266.39 566.507 1256.61 578.823 1248.51 580.318Z" fill="#FEEA6B"/>
<path fill-rule="evenodd" clip-rule="evenodd" d="M871.56 560.824C886.436 547.808 896.09 528.869 893.614 506.622C900.421 530.438 894.963 546.487 871.56 560.824Z" fill="#FEEA72"/>
<path fill-rule="evenodd" clip-rule="evenodd" d="M931.03 383.131C936.613 383.031 940.223 379.749 943.267 375.554C946.832 390.423 942.387 411.518 931.03 383.131Z" fill="#FEEA6B"/>
<path fill-rule="evenodd" clip-rule="evenodd" d="M619.176 750.783C609.59 752.781 597.941 749.107 591.019 741.684C598.421 744.934 616.001 738.56 619.176 750.783Z" fill="#FEEA6B"/>
<path fill-rule="evenodd" clip-rule="evenodd" d="M635.004 919.624C634.041 928.785 638.346 942.263 638.091 952.903C635.801 943.098 618.579 926.886 635.004 919.624Z" fill="#FEEA6B"/>
<path fill-rule="evenodd" clip-rule="evenodd" d="M957.483 206.094C957.507 206.695 957.532 207.298 957.556 207.9C948.266 200.232 943.049 203.807 934.652 211.713C933.718 199.53 951.506 191.722 957.483 206.094Z" fill="#BDFDBB"/>
<path fill-rule="evenodd" clip-rule="evenodd" d="M1239.52 629.792C1232.54 634.067 1221.67 645.698 1210.26 644.715C1214.71 639.294 1230.72 630.753 1239.52 629.792Z" fill="#FEEA72"/>
<path fill-rule="evenodd" clip-rule="evenodd" d="M1008.94 613.619C1004.43 615.208 999.914 616.799 995.4 618.389C998.643 604.857 995.502 592.559 1008.94 613.619Z" fill="#FEEA6B"/>
<path fill-rule="evenodd" clip-rule="evenodd" d="M706.137 987.29C701.117 996.995 680.487 1017.68 672.432 997.718C687.728 1007.3 693.257 1000.47 705.33 986.43C705.6 986.716 705.868 987.004 706.137 987.29Z" fill="#FEEA72"/>
<path fill-rule="evenodd" clip-rule="evenodd" d="M477.477 698.89C487.542 694.963 496.495 701.057 495.354 709.608C492.261 704.666 480.446 706.84 477.477 698.89Z" fill="#FEEA6B"/>
<path fill-rule="evenodd" clip-rule="evenodd" d="M951.491 352.852C950.252 346.903 952.437 336.163 955.217 326.968C961.818 333.03 955.243 343.463 951.491 352.852Z" fill="#BDFDBB"/>
<path fill-rule="evenodd" clip-rule="evenodd" d="M1248.51 580.318C1248.85 580.637 1249.19 580.957 1249.53 581.278C1239.77 588.756 1226.56 601.129 1211.48 604.001C1223.83 596.106 1236.17 588.212 1248.51 580.318Z" fill="#FEEA72"/>
<path fill-rule="evenodd" clip-rule="evenodd" d="M487.198 687.46C485.446 678.476 496.426 682.648 505.826 682.611C500.574 687.522 494.58 689.511 487.198 687.46Z" fill="#FEEA6B"/>
<path fill-rule="evenodd" clip-rule="evenodd" d="M124.048 873.104C126.923 877.784 146.199 880.52 139.512 890.524C135.021 885.528 130.295 882.862 124.085 873.064L124.048 873.104Z" fill="#FEEA72"/>
<path fill-rule="evenodd" clip-rule="evenodd" d="M70.2396 957.227C74.1034 955.039 79.9908 949.489 87.6257 946.846C87.0503 955.67 85.2339 957.441 70.2396 957.227Z" fill="#FEEA72"/>
<path fill-rule="evenodd" clip-rule="evenodd" d="M1174.66 794.504C1185.92 795.191 1186.46 795.812 1184.44 805.56C1179.26 803.628 1177.06 799.454 1174.66 794.504Z" fill="#FEEA72"/>
<path fill-rule="evenodd" clip-rule="evenodd" d="M737.302 707.804C736.684 712.087 748.032 716.106 738.991 721.715C734.692 718.279 732.047 713.344 737.302 707.804Z" fill="#FEEA72"/>
<path fill-rule="evenodd" clip-rule="evenodd" d="M1173.87 641.314C1169.29 640.146 1161.73 638.224 1153.22 636.06C1154.36 634.178 1174.91 632.51 1173.87 641.314Z" fill="#FEEA72"/>
<path fill-rule="evenodd" clip-rule="evenodd" d="M643.322 892.769C637.892 897.788 627.398 895.849 617.763 896.153C623.22 896.6 636.163 889.151 643.322 892.769Z" fill="#FEEA72"/>
<path fill-rule="evenodd" clip-rule="evenodd" d="M620.7 497.694C623.341 495.719 624.656 489.743 630.425 487.576C630.318 490.018 628.04 502.48 620.7 497.694Z" fill="#FEEA72"/>
<path fill-rule="evenodd" clip-rule="evenodd" d="M880.009 608.345C876.862 606.92 873.713 605.499 869.831 603.742C871.419 601.72 872.707 600.082 874.42 597.903C874.864 600.151 880.859 604.366 880.009 608.345Z" fill="#FEEA72"/>
<path fill-rule="evenodd" clip-rule="evenodd" d="M600.895 544.381C601.018 549.756 602.643 555.359 597.37 559.927C598.637 557.664 597.347 548.519 600.895 544.381Z" fill="#FEEA72"/>
<path fill-rule="evenodd" clip-rule="evenodd" d="M964.273 627.061C963.556 631.708 967.058 643.949 964.391 649.886C965.11 645.238 961.608 633.003 964.273 627.061Z" fill="#FEEA72"/>
<path fill-rule="evenodd" clip-rule="evenodd" d="M707.076 935.776C706.564 931.761 707.979 930.99 713.552 935.989C711.393 935.917 709.235 935.846 707.076 935.776Z" fill="#FEEA72"/>
<path fill-rule="evenodd" clip-rule="evenodd" d="M155.457 903.938C157.761 902.123 156.543 902.278 161.75 900.703C162.993 902.044 159.174 907.305 155.457 903.938Z" fill="#FEEA72"/>
<path fill-rule="evenodd" clip-rule="evenodd" d="M479.176 654.2C478.987 650.543 478.799 646.885 478.61 643.23C480.632 646.952 483.609 650.555 480.029 654.95C479.744 654.699 479.461 654.451 479.176 654.2Z" fill="#BDFDBB"/>
<path fill-rule="evenodd" clip-rule="evenodd" d="M120.395 869.012C120.922 868.415 121.45 867.816 121.977 867.217C121.515 867.72 127.375 877.432 120.395 869.012Z" fill="#FEEA72"/>
<path fill-rule="evenodd" clip-rule="evenodd" d="M943.23 375.621C943.458 375.077 943.685 374.531 943.911 373.989C943.684 374.534 943.456 375.077 943.23 375.621Z" fill="#FEEA6B"/>
<path fill-rule="evenodd" clip-rule="evenodd" d="M270.306 961.135C270.694 960.926 271.082 960.717 271.468 960.51C271.079 960.719 270.693 960.928 270.306 961.135Z" fill="#BDFDBB"/>
<path fill-rule="evenodd" clip-rule="evenodd" d="M1095.95 379.559C1095.67 379.847 1095.39 380.136 1095.11 380.422C1095.39 380.135 1095.67 379.847 1095.95 379.559Z" fill="#FEEA6B"/>
<path fill-rule="evenodd" clip-rule="evenodd" d="M460.55 575.569C460.749 575.78 460.949 575.989 461.146 576.198C460.947 575.988 460.749 575.778 460.55 575.569Z" fill="#BDFDBB"/>
<path fill-rule="evenodd" clip-rule="evenodd" d="M945.648 841.892C960.754 841.94 967.858 818.263 947.79 817.218C933.066 817.125 926.76 840.962 945.648 841.892ZM984.736 802.17C977.113 845.24 971.708 887.806 972.111 931.887C939.724 904.891 885.931 884.985 886.582 871.518C904.879 838.705 941.252 799.34 984.736 802.17Z" fill="#FE7994"/>
<path fill-rule="evenodd" clip-rule="evenodd" d="M260.483 794.797C283.783 814.614 305.641 776.145 295.65 752.424C305.047 753.307 316.335 757.188 326.369 758.129C311.914 786.73 294.568 811.237 261.861 821.102L260.483 794.797Z" fill="#FE7A95"/>
<path fill-rule="evenodd" clip-rule="evenodd" d="M1273.94 756.028C1277.15 731.54 1265.25 708.254 1240.66 697.736C1263.28 669.56 1315 707.208 1313.32 734.172C1301.18 741.595 1287.41 747.911 1273.94 756.028Z" fill="#FAECBF"/>
<path fill-rule="evenodd" clip-rule="evenodd" d="M732.33 607.539C723.517 602.257 730.624 581.402 743.907 594.884C747.948 601.885 741.831 609.488 732.33 607.539C736.475 597.063 738.324 593.65 737.876 597.298Z" fill="#BCFEB9"/>
<path fill-rule="evenodd" clip-rule="evenodd" d="M1178.15 474.409C1192.24 495.387 1223.22 528.348 1241.28 549.373C1223.87 555.862 1196.95 560.149 1178.03 565.681C1186.44 552.749 1171.12 539.319 1157.84 548.385C1164.28 527.755 1166.47 495.37 1178.15 474.409Z" fill="#FE7A95"/>
<path fill-rule="evenodd" clip-rule="evenodd" d="M1113.73 489.893C1124.94 487.789 1141.74 485.407 1153.64 483.178C1145.64 508.56 1138.22 535.885 1130.04 561.805C1107.35 543.961 1060.45 490.458 1113.73 489.893Z" fill="#FE7994"/>
<path fill-rule="evenodd" clip-rule="evenodd" d="M1123.53 397.218C1136.07 416.112 1156.54 443.402 1170.47 464.59C1148.92 467.851 1118.31 466.743 1094.27 469.875C1101.02 446.527 1109.5 420.062 1123.53 397.218Z" fill="#FE7A95"/>
<path fill-rule="evenodd" clip-rule="evenodd" d="M496.454 820.99C538.598 795.34 593.674 836.896 640.811 806.814C644.444 802.35 662.078 859.285 645.095 851.978C466.493 828.784 532.348 905.994 496.454 820.99Z" fill="#FEE967"/>
<path fill-rule="evenodd" clip-rule="evenodd" d="M900.784 240.002C901.415 222.28 916.816 226.574 932.229 216.208C919.478 228.088 913.389 299.028 900.784 240.002Z" fill="#BDFDBB"/>
<path fill-rule="evenodd" clip-rule="evenodd" d="M933.985 213.193C934.219 212.68 934.454 212.166 934.688 211.651C934.454 212.166 934.219 212.679 933.985 213.193Z" fill="#BDFDBB"/>
<path fill-rule="evenodd" clip-rule="evenodd" d="M969.304 475.133L968.97 468.749C974.41 467.993 978.067 468.34 969.304 475.133Z" fill="#FDEFC1"/>
<path fill-rule="evenodd" clip-rule="evenodd" d="M687.284 344.898C693.332 352.876 702.235 354.799 709.042 350.093C717.835 344.016 719.068 334.321 712.082 323.145C703.752 330.453 695.497 337.694 687.284 344.898ZM81.3567 904.408C72.319 915.043 63.5091 925.413 54.7583 935.713C58.4065 935.798 62.6429 935.996 66.8804 935.973C70.1465 935.956 73.4626 935.966 76.6669 935.43C85.6687 933.933 88.1075 930.773 86.746 921.598C85.8913 915.835 85.8172 909.658 81.3567 904.408ZM130.408 1093.66C130.761 1093.21 131.112 1092.76 131.464 1092.31C125.654 1082.42 120.114 1072.37 113.953 1062.71C108.769 1054.58 100.763 1051.24 91.2172 1051.88C84.692 1052.31 78.197 1053.2 71.6713 1053.63C68.7987 1053.81 68.2862 1055.18 68.8559 1057.51C70.5741 1064.54 71.7506 1071.77 74.2483 1078.51C76.8336 1085.48 82.3586 1090.1 89.7372 1092.05C103.202 1095.62 116.83 1093.85 130.408 1093.66ZM496.085 648.685C500.943 627.169 496.627 588.191 484.717 548.298C483.167 543.105 480.549 538.234 478.051 532.324C471.281 538.423 465.523 543.606 459.827 548.734C462.151 552.274 464.639 555.141 466.111 558.46C473.415 574.923 479.075 591.819 480.605 609.999C481.399 619.458 483.392 628.842 485.261 638.178C486.724 645.478 490.071 648.369 496.085 648.685ZM522.119 1020.14C522.306 1019.46 522.494 1018.79 522.683 1018.12C510.827 1010.87 499.01 1003.55 487.072 996.435C485.32 995.391 483.013 995.124 480.916 994.835C468.58 993.133 457.107 995.455 446.802 1002.62C439.327 1007.82 432.184 1013.53 424.491 1018.37C409.702 1027.68 393.929 1030.19 377.786 1022.25C369.533 1018.2 361.786 1013.06 354.024 1008.08C349.691 1005.3 345.323 1004.55 340.655 1006.31C335.351 1008.31 329.947 1010.24 324.996 1012.95C307.785 1022.35 299.305 1038.14 294.264 1056.27C293.98 1057.29 293.924 1058.38 293.675 1060C370.269 1047.1 446.679 1036.39 522.119 1020.14ZM1215.2 775.733C1215.51 776.423 1215.81 777.114 1216.12 777.803C1220.44 779.068 1224.68 780.898 1229.09 781.476C1236.85 782.496 1243.91 788.518 1252.38 784.736C1254.01 784.005 1255.99 784.012 1257.82 783.727C1276.11 780.886 1294.5 778.222 1311.86 771.54C1318.87 768.841 1325.89 766.896 1331 758.988C1337 749.704 1338.23 740.171 1339.55 730.172C1339.91 727.448 1339.39 724.47 1338.68 721.764C1333.77 703.092 1322.88 688.029 1309.02 675.177C1295.39 662.532 1278.94 656.388 1260.31 659.614C1249.03 661.565 1237.83 664.716 1227.06 668.642C1216.54 672.479 1206.28 677.574 1198.31 685.799C1194.01 690.237 1190.01 695.258 1187.11 700.676C1184.06 706.379 1186.9 710.757 1193.36 711.574C1196.86 712.015 1200.5 712.012 1204 711.605C1211.77 710.7 1219.48 709.255 1227.25 708.32C1238.85 706.924 1247.86 712.915 1250.18 723.415C1251.49 729.293 1249.85 734.722 1247.13 739.878C1241.79 750.008 1233.61 757.783 1225.59 765.678C1222.15 769.055 1218.66 772.383 1215.2 775.733ZM1065.51 898.05C1066.75 898.324 1067.29 898.531 1067.84 898.548C1069.69 898.608 1071.54 898.648 1073.39 898.612C1108.8 897.934 1143.29 891.321 1177.28 881.994C1195.96 876.868 1214.25 870.342 1232.93 865.261C1249.81 860.673 1266.97 857.139 1284.02 853.243C1298.86 849.854 1313.82 846.95 1328.56 843.207C1344.1 839.263 1358.49 832.349 1372.48 824.585C1380.5 820.135 1388.65 816.328 1398.39 817.697C1423.11 821.179 1443.24 812.763 1458.61 793.248C1472.76 775.292 1482.61 755.777 1479.05 731.868C1478.85 730.561 1478.55 729.267 1478.18 727.338C1474.65 730.798 1471.79 733.749 1468.78 736.524C1454.62 749.571 1438.35 758.373 1419.07 761.173C1407.1 762.911 1395.2 762.449 1383.35 760.33C1380.66 759.85 1379.08 760.466 1377.11 762.498C1372.67 767.073 1368.04 771.605 1362.86 775.285C1349.08 785.082 1333.83 792.178 1317.9 797.673C1300.34 803.726 1282.12 807.005 1263.8 809.707C1245.76 812.367 1228.51 817.271 1212.6 826.492C1195.83 836.202 1178.94 845.576 1160.05 850.859C1150.84 853.435 1141.7 854.679 1132.22 854.166C1124.4 853.743 1116.55 853.61 1108.75 852.99C1098.77 852.197 1091.16 856.378 1084.7 863.497C1075.69 873.412 1071.22 885.78 1065.51 898.05ZM153.122 833.226C165.56 844.965 178.628 854.304 194.56 859.156C215.065 865.402 234.954 861.801 254.481 855.127C272.292 849.039 289.228 840.949 305.191 830.862C338.173 810.018 360.966 782.312 366.69 742.374C370.855 713.318 364.687 686.929 348.237 662.846C342.823 654.921 342.079 654.935 335.247 661.365C280.272 713.113 225.324 764.886 170.38 816.669C164.698 822.023 159.11 827.477 153.122 833.226ZM1077.38 834.728C1072.29 827.066 1068.14 819.367 1062.64 812.786C1044.39 790.927 1021.65 776.476 992.894 772.73C967.055 769.365 942.11 772.539 919.212 785.277C880.664 806.72 861.023 841.076 855.028 883.795C852.077 904.822 854.361 925.582 861.706 945.645C860.509 956.69 867.83 956.936 875.964 958.089C892.162 960.388 908.178 963.958 924.286 966.909C937.26 969.286 955.142 963.822 965.804 955.991C982.445 943.766 993.151 934.434 1009.63 921.989C1022.61 912.183 1033.56 900.453 1041.35 886.06C1044.53 880.185 1046.99 873.922 1050 867.947C1056.42 855.21 1064.7 843.924 1077.38 834.728ZM1366.26 740.104C1367.28 738.528 1367.89 737.09 1368.94 736.1C1369.79 735.292 1371.35 734.34 1372.25 734.613C1384.31 738.283 1396.38 737.04 1408.66 735.747C1423.8 734.152 1436.85 728.821 1448.5 719.024C1461.48 708.114 1468.48 695.061 1467.27 677.698C1465.46 651.843 1457.37 627.98 1444.27 605.962C1432.64 586.421 1418.81 568.63 1399.49 555.577C1387.12 547.217 1384.71 537.798 1389.15 523.495C1390.2 520.094 1391.58 516.78 1392.46 513.337C1394.86 503.972 1398.53 494.648 1399.1 485.153C1401.03 453.286 1393.16 423.62 1376.04 396.562C1359.41 370.293 1335.75 354.869 1304.88 350.623C1299.66 349.906 1294.42 349.253 1289.27 348.161C1276.83 345.524 1271.54 337.193 1274.34 324.871C1275.41 320.149 1276.78 315.492 1277.93 310.787C1283.94 286.304 1281.5 262.507 1268.58 241.003C1244.89 201.606 1211.32 174.366 1166.23 162.458C1156.89 159.989 1147.49 157.522 1138.44 154.165C1129.91 151.001 1124.01 144.61 1121.28 135.717C1120.02 131.637 1119.25 127.407 1117.93 123.35C1112.44 106.451 1108.54 88.7531 1100.83 72.9232C1090.51 51.7315 1072.97 37.0275 1049.7 30.5434C1036.35 26.823 1023.23 29.1926 1010.17 33.0361C983.687 40.8288 961.505 54.9577 944.313 76.6698C938.867 83.5469 934.105 90.859 933.097 99.843C931.954 110.018 930.915 120.213 930.238 130.426C929.927 135.14 928.54 139.002 924.972 142.087C893.718 169.098 862.658 196.335 831.172 223.07C799.898 249.626 768.22 275.704 736.644 301.899C734.137 303.978 733.565 305.614 735.078 308.656C737.673 313.868 740.159 319.227 741.82 324.783C743.181 329.341 744.131 334.341 743.781 339.034C742.253 359.504 724.473 377.001 704.059 379.249C690.33 380.761 679.768 374.477 670.078 366.114C667.193 363.621 665.708 363.935 663.116 366.264C611.057 413 558.922 459.645 506.808 506.318C501.179 511.358 500.135 518.043 503.806 524.769C504.553 526.138 505.279 527.561 505.719 529.045C509.433 541.584 513.365 554.067 516.655 566.717C519.337 577.033 521.716 587.481 523.362 598.006C526.695 619.33 522.986 640.645 522.417 661.964C522.399 662.669 522.218 663.377 522.055 664.067C519.515 674.877 511.699 680.376 500.858 678.136C494.06 676.733 487.305 674.658 480.883 672.028C472.733 668.688 466.589 662.949 463.134 654.485C458.573 643.304 455.698 631.699 454.85 619.738C453.656 602.912 450.031 586.795 442.795 571.553C440.321 566.339 439.874 566.374 435.636 570.226C412.226 591.496 388.806 612.754 365.399 634.027C364.166 635.147 363.009 636.353 361.728 637.605C364.718 641.159 367.706 644.216 370.133 647.672C385.098 668.96 393.651 692.779 394.451 718.645C395.884 765.012 379.713 804.395 344.196 834.925C316.304 858.901 284.018 874.546 248.651 884.349C219.327 892.477 191.221 890.163 164.814 875.059C154.637 869.239 145.664 861.293 136.257 854.164C134.355 852.722 133.145 852.22 131.25 854.119C121.892 863.501 112.365 872.714 103.088 882.173C102.202 883.079 101.901 885.726 102.563 886.8C107.579 894.92 110.797 903.625 112.416 913.017C114.266 923.759 114.906 934.378 109.058 944.176C101.619 956.644 89.5152 961.258 75.9221 962.197C66.7167 962.833 57.4145 962.342 48.1695 962.015C44.5317 961.887 40.9427 960.656 37.2959 960.296C36.1581 960.183 34.3282 960.943 33.7913 961.872C29.7822 968.799 27.5762 976.312 28.2664 984.359C29.3585 997.11 32.6339 1009.31 38.6446 1020.66C41.2526 1025.58 45.4176 1028.16 51.2392 1027.75C61.5904 1027.02 72.0077 1026.89 82.2951 1025.66C108.829 1022.48 128.436 1032.55 141.364 1055.71C148.372 1068.26 154.724 1081.18 161.842 1093.66C169.474 1107.05 177.855 1119.93 190.288 1129.61C199.959 1137.14 210.443 1140.02 221.722 1134.26C227.185 1131.47 232.455 1127.63 236.665 1123.18C249.492 1109.63 256.75 1092.89 261.899 1075.22C264.927 1064.83 267.019 1054.15 270.249 1043.83C280.116 1012.3 300.21 990.736 332.32 980.964C345.799 976.863 358.174 978.293 369.674 986.543C371.989 988.205 374.23 989.994 376.668 991.452C380.569 993.784 384.564 995.967 388.594 998.069C395.124 1001.47 401.615 1000.5 407.874 997.349C410.526 996.014 412.933 994.168 415.372 992.442C421.185 988.325 426.702 983.736 432.773 980.055C458.856 964.241 485.229 962.251 511.539 979.538C522.489 986.732 533.489 993.916 543.916 1001.82C561.452 1015.13 580.63 1025.29 601.061 1033.15C606.589 1035.27 612.532 1036.7 618.41 1037.47C644.952 1040.94 669.272 1033.25 692.237 1021.03C724.132 1004.05 754.241 983.625 788.105 970.513C801.709 965.247 816.057 961.88 830.131 957.877C832.543 957.19 834.577 956.82 834.543 953.841C834.515 951.629 834.88 949.27 834.256 947.227C826.275 921.054 824.63 894.43 830.788 867.862C845.558 804.14 882.343 760.924 948.349 747.576C980.903 740.993 1012.78 744.694 1042.25 761.662C1068.74 776.913 1089.71 797.124 1101.23 826.184C1109.63 826.526 1118.44 826.917 1127.25 827.226C1132.23 827.4 1137.28 828.038 1142.17 827.427C1156.21 825.672 1169.04 820.192 1181.35 813.47C1188.41 809.622 1195.37 805.607 1203.15 801.225C1201 800.025 1199.68 799.288 1198.36 798.554C1188.02 792.804 1184.17 782.575 1188.68 771.63C1190.39 767.456 1192.54 763.249 1195.39 759.794C1200.63 753.437 1206.54 747.63 1212.15 741.581C1213.23 740.427 1214.24 739.215 1216.13 737.063C1207.2 737.531 1199.66 738.53 1192.19 738.179C1180.24 737.615 1170.37 732.174 1164.06 721.938C1155.76 708.447 1158.7 695.055 1166.5 682.437C1173.03 671.87 1181.83 663.327 1192.33 656.684C1210.59 645.128 1230.51 637.591 1251.71 633.708C1271.69 630.048 1290.81 632.885 1308.87 642.571C1326.5 652.029 1339.26 666.474 1349.9 682.884C1360.86 699.781 1368.67 717.796 1365.73 738.745C1365.7 738.97 1365.91 739.228 1366.26 740.104ZM516.165 1048.58C492.081 1052.92 468.112 1057.89 444.014 1062.13C415.423 1067.17 386.752 1071.74 358.106 1076.45C335.636 1080.15 313.161 1083.8 290.666 1087.34C287.407 1087.85 285.621 1088.9 284.363 1092.34C276.91 1112.73 267.341 1131.98 250.817 1146.72C235.029 1160.81 216.829 1167.55 195.655 1161.89C181.887 1158.21 170.992 1149.58 161.588 1139.2C156.726 1133.84 152.433 1127.92 148.246 1121.99C146.282 1119.21 144.683 1118.5 141.033 1118.95C121.478 1121.34 101.774 1122.83 82.4568 1117.59C65.621 1113.03 54.0137 1102.02 48.5272 1085.49C45.5461 1076.5 44.0359 1067.01 42.1781 1057.68C41.6048 1054.8 40.5619 1053.29 37.6729 1052.38C25.7098 1048.63 17.5802 1040.35 13.27 1028.92C9.11856 1017.91 5.31549 1006.63 2.87079 995.152C-1.70021 973.684 5.18799 954.683 17.6426 937.293C32.2213 916.938 49.3907 898.836 66.8902 881.071C132.205 814.777 199.637 750.655 268.015 687.562C339.323 621.762 411.33 556.715 483.397 491.744C550.909 430.88 618.384 369.959 686.855 310.18C736.532 266.812 787.927 225.415 838.303 182.842C859.734 164.732 880.497 145.83 901.64 127.376C904.006 125.31 904.828 123.147 904.852 120.011C904.995 101.277 907.074 83.0289 918.339 67.0477C932.572 46.8599 950.534 30.9674 972.43 19.598C989.247 10.8658 1007.03 4.75699 1025.89 2.65695C1054.93 -0.576452 1079.23 10.2684 1100.32 29.392C1115.48 43.1467 1126.78 59.4807 1132.47 79.4223C1136.8 94.616 1141.43 109.723 1145.76 124.917C1146.64 127.997 1148.23 130.002 1151.23 130.831C1159.05 132.996 1166.85 135.249 1174.73 137.193C1213.4 146.737 1243.83 169.197 1270.38 197.871C1286.67 215.47 1298.24 235.677 1304.08 258.955C1308.88 278.101 1308.56 297.352 1303.89 316.53C1303.4 318.563 1302.93 320.602 1302.34 323.103C1305.29 323.651 1307.76 324.152 1310.24 324.565C1333.74 328.476 1355.53 336.534 1373.35 352.802C1391.38 369.253 1404.97 388.866 1413.53 411.952C1419.22 427.274 1422.95 442.945 1425.23 459.088C1428.35 481.269 1424.78 502.486 1417.23 523.303C1413.7 533.054 1413.79 533.216 1422.01 539.331C1444.38 555.976 1460.01 578.192 1472.65 602.439C1484.65 625.447 1492.53 649.993 1493.71 676.222C1493.99 682.315 1493.28 688.449 1493.11 694.566C1493.07 695.765 1493.01 697.416 1493.71 698.111C1501.46 705.829 1503.43 715.879 1505.11 726.008C1510.43 758.07 1498.83 785.016 1479.65 809.64C1466.39 826.666 1449.41 838.233 1428.32 842.804C1419.81 844.649 1410.75 845.155 1402.05 844.584C1394.93 844.117 1388.99 845.548 1383.04 848.986C1367.8 857.793 1351.7 864.773 1334.66 869.07C1317.15 873.488 1299.38 876.842 1281.74 880.779C1269.11 883.598 1256.39 886.14 1243.95 889.648C1224.49 895.136 1205.34 901.713 1185.87 907.158C1150.13 917.152 1113.84 924.248 1076.59 925.051C1067.95 925.237 1059.27 924.035 1050.6 923.699C1048.97 923.636 1046.74 924.132 1045.71 925.234C1032.72 939.037 1017.17 949.657 1002.05 960.811C993.793 966.901 985.557 973.017 977.359 979.178C960.416 991.906 941.492 996.83 920.589 993.216C905.569 990.621 890.636 987.534 875.656 984.707C848.059 979.499 821.97 984.717 796.475 995.546C766.887 1008.11 739.646 1025 711.827 1040.81C691.532 1052.35 670.033 1060.35 647.02 1063.84C623.091 1067.47 600.201 1063.32 578.491 1052.63C571.208 1049.04 563.864 1045.57 556.627 1041.89C554.504 1040.81 552.998 1040.64 550.855 1042.15" fill="black"/>
<path fill-rule="evenodd" clip-rule="evenodd" d="M846.265 625.095C840.001 621.781 834.766 619.23 829.756 616.296C824.599 613.275 819.404 610.212 814.684 606.571C806.712 600.422 798.562 594.328 791.554 587.166C787.802 583.329 785.063 577.561 783.972 572.234C780.467 555.107 791.835 544.178 808.804 548.256C819.867 550.917 830.512 551.207 841.67 548.595C860.603 544.165 875.256 528.427 877.25 509.032C879.422 487.896 872.352 470.47 856.369 456.546C844.787 446.46 831.358 440.379 816.333 437.533C783.161 431.247 751.662 438.118 721.188 450.51C698.399 459.778 679.458 474.873 663.492 493.548C639.253 521.904 626.422 553.756 634.289 591.695C636.762 603.616 643.073 613.2 652.646 620.612C656.365 623.488 660.777 624.304 664.502 621.199C669.249 617.245 674.703 613.257 677.485 608.023C681.79 599.925 688.051 593.64 693.632 586.738C702.687 575.536 714.925 575.611 723.961 586.934C733.167 598.473 740.385 611.347 745.247 625.241C750.221 639.451 754.048 654.059 758.407 668.483C759.337 671.561 760.397 674.597 761.513 677.999C793.142 665.526 821.227 648.536 846.265 625.095ZM707.304 610.642C706.123 612.378 704.823 613.895 703.951 615.629C697.298 628.837 688.153 639.617 674.508 645.999C660.556 652.524 647.544 650.357 635.651 641.103C617.475 626.961 608.708 607.701 606.204 585.262C602.211 549.482 612.48 517.644 633.329 488.867C651.796 463.38 674.733 442.739 703.341 429.556C742.294 411.605 783.007 402.841 825.901 412.454C854.528 418.869 878.111 433.672 892.876 459.4C910.386 489.916 908.704 525.948 885.72 552.33C875.878 563.629 863.273 570.692 848.696 573.898C839.751 575.865 830.638 577.079 821.513 578.648C821.844 578.998 822.365 579.808 823.1 580.289C835.008 588.087 846.648 596.277 860.041 601.596C875.644 607.794 880.203 622.803 870.347 636.357C865.62 642.856 860.003 648.975 853.821 654.098C835.348 669.395 815.524 682.776 793.722 692.975C784.833 697.132 775.872 701.169 766.768 704.82C752.748 710.443 742.256 705.477 737.783 691.096C734.318 679.955 731.184 668.704 728.205 657.42C724.326 642.744 718.659 628.831 711.258 615.604C710.565 614.364 709.757 613.183 708.953 612.01C708.729 611.682 708.329 611.479 707.304 610.642Z" fill="black"/>
<path fill-rule="evenodd" clip-rule="evenodd" d="M1157.13 599.792C1157.2 600.22 1157.27 600.649 1157.35 601.077C1168.72 598.685 1180.33 597.081 1191.41 593.729C1212.82 587.256 1230.35 573.961 1247.13 559.658C1249.5 557.641 1248.63 556.116 1246.8 554.438C1242.8 550.786 1238.57 547.343 1234.95 543.35C1218.3 524.995 1201.47 506.794 1185.39 487.946C1165.2 464.282 1148.36 438.179 1131.78 411.911C1126.17 403.032 1119.47 394.848 1113.25 386.355C1111.08 383.386 1108.92 383.565 1106.82 386.468C1105.24 388.666 1103.68 390.877 1102.08 393.055C1083.24 418.668 1070.02 446.801 1063.8 478.1C1060.08 496.773 1062 515.138 1068.33 532.794C1074.83 550.942 1086.29 565.979 1100.85 578.667C1117 592.736 1134.9 601.936 1157.13 599.792ZM1160.13 626.535C1124.48 629.574 1097.2 613.539 1073.39 589.169C1058.69 574.113 1047.88 556.639 1041.63 536.661C1033.62 511.041 1033.64 485.212 1040.76 459.176C1049.85 425.926 1065.7 396.29 1086.62 369.159C1089.81 365.026 1093.52 361.615 1098.76 360.204C1099.82 359.919 1100.8 359.205 1101.7 358.525C1107.82 353.868 1114.4 353.714 1120.32 358.086C1126.1 362.356 1132.03 367.013 1136.22 372.73C1147.38 387.982 1157.91 403.725 1168.22 419.583C1193.71 458.809 1223.99 494.076 1256.55 527.497C1262.18 533.282 1268.31 538.764 1272.99 545.266C1279.96 554.964 1279.2 564.156 1271.11 572.856C1256.33 588.757 1238.62 600.838 1219.48 610.926C1200.88 620.733 1180.77 624.731 1160.13 626.535Z" fill="black"/>
<path fill-rule="evenodd" clip-rule="evenodd" d="M510.424 861.588C511.715 860.925 512.595 860.521 513.431 860.038C536.787 846.565 561.614 840.987 588.502 845.539C599.583 847.414 610.739 849.02 621.927 850.029C630.382 850.794 638.941 850.488 647.454 850.506C650.262 850.512 651.504 849.002 650.859 846.015C648.967 837.261 647.267 828.468 645.343 819.724C644.378 815.339 643.085 811.027 641.834 806.277C639.909 807.078 638.371 807.74 636.818 808.361C615.339 816.967 593.298 821.641 570.072 817.757C561.086 816.254 552.15 814.455 543.152 813.036C528.146 810.67 513.396 810.71 499.393 817.939C496.739 819.309 496.511 820.369 497.487 823.123C501.42 834.226 504.963 845.468 508.662 856.654C509.182 858.226 509.775 859.776 510.424 861.588ZM522.591 783.916C535.668 785.712 548.968 786.547 561.778 789.503C585.884 795.062 608.669 791.968 630.95 782.125C633.805 780.864 636.81 779.912 639.794 778.969C651.279 775.336 661.688 780.233 665.23 791.84C668.794 803.522 671.502 815.473 674.311 827.372C675.746 833.452 676.661 839.658 677.675 845.831C679.907 859.423 674.837 868.328 662.205 873.71C650.211 878.823 637.683 878.399 625.192 877.182C612.589 875.952 599.954 874.537 587.514 872.229C564.489 867.956 543.444 872.399 523.815 884.766C521.29 886.358 518.66 887.788 516.041 889.227C506.991 894.2 497.477 892.642 492.029 883.94C488.102 877.665 485.668 870.38 483.099 863.353C479.198 852.686 475.796 841.84 472.104 831.095C470.764 827.199 469.005 823.442 467.779 819.514C465.504 812.232 467.358 806.685 473.617 802.361C488.308 792.213 504.288 785.604 522.46 785.278C522.504 784.825 522.548 784.372 522.591 783.916Z" fill="black"/>
<path fill-rule="evenodd" clip-rule="evenodd" d="M954.081 227.732C948.266 223.732 946.209 223.46 940.197 225.471C939.001 225.871 937.624 225.753 936.451 226.193C934.299 227.003 931.776 227.571 930.211 229.078C922.767 236.248 919.434 245.462 918.858 255.533C918.299 265.321 918.096 275.161 918.394 284.958C919.021 305.579 915.404 324.931 903.021 341.99C902.639 342.517 902.526 343.24 901.983 344.671C907.535 347.93 912.973 351.216 918.53 354.289C919.485 354.817 921.342 354.966 922.105 354.393C929.447 348.853 937.907 344.23 941.359 334.992C944.803 325.772 945.744 316.126 943.983 306.409C942.693 299.282 940.899 292.245 939.257 285.185C935.399 268.603 937.092 252.943 946.837 238.58C949.23 235.054 951.571 231.496 954.081 227.732ZM924.315 382.876C915.287 382.468 907.974 379.466 901.267 375.465C894.326 371.329 887.715 366.517 881.442 361.407C872.896 354.445 871.204 345.78 875.869 335.742C877.303 332.662 879.094 329.696 881.078 326.932C888.492 316.594 891.684 305.096 891.714 292.423C891.747 278.337 891.572 264.186 892.827 250.185C894.801 228.219 906.032 211.471 924.496 199.527C925.331 198.987 926.268 198.496 926.896 197.76C932.311 191.411 938.537 191.194 945.727 194.606C954.857 198.937 964.415 202.399 973.391 207.005C987.11 214.045 989.312 224.12 980.549 236.831C976.992 241.989 973.39 247.119 969.712 252.192C963.851 260.269 962.893 269.122 965.067 278.636C967.094 287.509 969.666 296.358 970.596 305.362C972.638 325.134 970.793 344.524 956.557 359.891C949.479 367.532 940.568 373.526 932.194 379.88C929.832 381.675 926.435 382.11 924.315 382.876Z" fill="black"/>
<path fill-rule="evenodd" clip-rule="evenodd" d="M188.188 996.809C195.997 988.179 203.837 980.12 214.395 975.997C225.624 971.612 237.092 967.755 248.646 964.307C265.32 959.335 278.638 949.588 289.941 936.75C290.994 935.553 292.138 932.702 291.609 932.128C288.252 928.498 284.436 925.294 280.771 921.95C278.108 924.137 275.431 926.309 272.79 928.523C272.14 929.067 271.588 929.737 271.034 930.386C256.943 946.789 238.253 955.457 218.161 961.675C210.152 964.153 201.837 965.746 194.021 968.69C188.839 970.641 184.223 974.174 179.52 977.252C178.615 977.846 177.802 979.796 178.088 980.795C179.83 986.892 182.946 992.223 188.188 996.809ZM320.453 929.954C320.173 938.023 317.466 944.823 312.722 950.785C298.077 969.183 279.938 982.586 257.163 989.326C248.435 991.909 239.735 994.612 231.106 997.509C221.774 1000.64 214.589 1006.84 208.387 1014.29C206.746 1016.25 205.207 1018.31 203.541 1020.25C195.862 1029.23 185.799 1030.72 176.799 1023.14C167.081 1014.95 158.532 1005.57 154.222 993.155C153.9 992.227 153.547 991.206 152.906 990.506C147.036 984.089 147.897 977.044 151.644 970.298C158.305 958.313 168.198 949.585 181.119 944.962C190.61 941.566 200.502 939.307 210.153 936.347C225.83 931.538 240.494 925.017 251.654 912.266C255.666 907.681 260.106 903.369 264.844 899.544C273.408 892.632 282.927 892.126 292.326 897.639C302.013 903.324 309.905 911.209 316.444 920.283C318.43 923.036 319.152 926.704 320.453 929.954Z" fill="black"/>
<path fill-rule="evenodd" clip-rule="evenodd" d="M596.174 695.681C596.748 698.155 597.032 700.74 597.949 703.079C600.83 710.422 605.268 711.372 611.287 706.14C618.672 699.722 620.439 689.421 615.606 680.974C612.73 675.949 607.825 674.981 603.058 678.464C597.169 682.769 596.368 689.002 596.174 695.681ZM569.984 697.586C569.001 679.243 574.936 664.25 591.205 654.457C594.588 652.421 598.22 650.367 602.002 649.539C606.011 648.661 610.669 648.177 614.466 649.366C629.134 653.959 639.063 663.473 643.25 678.765C650.196 704.122 634.989 730.221 609.294 735.689C598.308 738.026 588.75 734.476 581.212 726.012C574.243 718.191 570.568 708.783 569.984 697.586Z" fill="black"/>
<path fill-rule="evenodd" clip-rule="evenodd" d="M679.758 944.899C678.736 941.972 677.951 938.936 676.649 936.138C674.004 930.466 671.911 930.605 666.758 933.202C657.296 937.974 653.714 950.371 658.739 959.758C660.277 962.631 662.671 964.041 666.185 963.119C674.289 960.995 679.586 953.788 679.758 944.899ZM706.016 946.2C706.423 958.536 701.187 972.012 689.163 981.234C670.372 995.645 646.267 993.445 635.369 972.271C620.159 942.724 637.739 912.615 663.883 906.195C669.966 904.7 676.628 905.006 682.972 905.366C685.628 905.516 688.888 907.365 690.611 909.477C698.622 919.296 705.003 930.008 706.016 946.2Z" fill="black"/>
<path fill-rule="evenodd" clip-rule="evenodd" d="M999.766 637.946C1001.33 640.915 1002.67 644.037 1004.52 646.818C1006.75 650.184 1009.81 654.103 1014.01 652.605C1017.13 651.488 1019.26 647.547 1021.81 644.848C1021.99 644.654 1022.05 644.336 1022.15 644.07C1024.12 638.99 1023.62 636.154 1019.69 632.551C1016.42 629.561 1013.06 626.355 1008.22 630.028C1007.58 630.512 1006.61 630.784 1005.8 630.783C1001.05 630.772 1000.12 633.677 999.766 637.946ZM973.673 635.339C973.445 625.62 977.629 614.795 987.856 608.01C998.463 600.974 1010.28 597.124 1023.19 603.476C1033.58 608.584 1042.48 615.074 1047.12 626.051C1053.24 640.493 1049.14 653.389 1040.38 665.25C1024.46 686.839 998.795 681.7 986.333 666.769C979.323 658.371 974.31 649.182 973.673 635.339Z" fill="black"/>
<path fill-rule="evenodd" clip-rule="evenodd" d="M399.41 901.013C401.795 905.553 403.85 910.007 406.483 914.088C407.153 915.127 410.12 915.832 411.249 915.226C416.38 912.483 419.738 908.042 420.495 902.185C421.148 897.146 417.01 895.091 413.596 892.88C409.805 890.426 406.314 892.895 403.258 894.548C401.574 895.457 400.935 898.302 399.41 901.013ZM407.402 865.689C425.143 864.681 434.707 873.42 442.366 884.443C450.309 895.876 448.562 908.246 442.379 919.729C435.098 933.249 424.373 942.453 407.905 942.545C401.039 942.584 394.964 940.499 390.032 935.681C378.734 924.643 372.701 911.38 374.171 895.393C375.373 882.321 382.805 873.642 394.844 869.047C399.676 867.204 404.882 866.344 407.402 865.689Z" fill="black"/>
</g>
<defs>
<clipPath id="clip0_112_163">
<rect width="1509.48" height="1169.19" fill="white" transform="translate(0.84668 0.771973)"/>
</clipPath>
</defs>
</svg>
