<svg width="25" height="26" viewBox="0 0 25 26" fill="none" xmlns="http://www.w3.org/2000/svg">
<g clip-path="url(#clip0_272_451)">
<path d="M18.8819 24.1111C18.575 24.1109 18.2752 24.019 18.0208 23.8473L12.8402 20.375C12.8147 20.3574 12.7844 20.348 12.7534 20.348C12.7224 20.348 12.6921 20.3574 12.6666 20.375L7.48605 23.8473C7.22591 24.021 6.91908 24.1114 6.60631 24.1066C6.29355 24.1018 5.98964 24.002 5.73494 23.8204C5.48025 23.6388 5.28683 23.384 5.18035 23.0899C5.07388 22.7958 5.0594 22.4762 5.13883 22.1736L6.84022 16.1736C6.84827 16.1435 6.84729 16.1116 6.83742 16.082C6.82754 16.0524 6.8092 16.0263 6.78467 16.007L1.88189 12.1528C1.62379 11.9605 1.43234 11.6923 1.33438 11.3857C1.23642 11.0792 1.23686 10.7496 1.33565 10.4433C1.43443 10.137 1.6266 9.86929 1.88522 9.67771C2.14383 9.48613 2.45592 9.38029 2.77772 9.37504L9.02772 9.13893C9.05845 9.1368 9.08791 9.12584 9.11255 9.10736C9.1372 9.08888 9.15597 9.06367 9.16661 9.03476L11.3194 3.18059C11.4279 2.88381 11.625 2.62755 11.884 2.44649C12.1429 2.26544 12.4513 2.16833 12.7673 2.16833C13.0833 2.16833 13.3917 2.26544 13.6506 2.44649C13.9096 2.62755 14.1067 2.88381 14.2152 3.18059L16.368 9.03476C16.3786 9.06367 16.3974 9.08888 16.4221 9.10736C16.4467 9.12584 16.4762 9.1368 16.5069 9.13893L22.7569 9.37504C23.0787 9.38029 23.3908 9.48613 23.6494 9.67771C23.908 9.86929 24.1002 10.137 24.199 10.4433C24.2977 10.7496 24.2982 11.0792 24.2002 11.3857C24.1023 11.6923 23.9108 11.9605 23.6527 12.1528L18.7499 16.007C18.7247 16.0257 18.7058 16.0517 18.6958 16.0815C18.6859 16.1114 18.6854 16.1435 18.6944 16.1736L20.3958 22.1736C20.4555 22.4038 20.4614 22.6446 20.4131 22.8774C20.3648 23.1102 20.2635 23.3287 20.1171 23.5161C19.9707 23.7034 19.7831 23.8546 19.5689 23.9578C19.3547 24.061 19.1196 24.1134 18.8819 24.1111ZM12.7569 18.9584C13.0644 18.9678 13.362 19.0694 13.6111 19.25L18.7916 22.7223C18.8179 22.7422 18.8499 22.7531 18.8828 22.7534C18.9158 22.7537 18.948 22.7432 18.9746 22.7237C19.0011 22.7042 19.0207 22.6766 19.0302 22.645C19.0398 22.6135 19.0389 22.5797 19.0277 22.5486L17.3263 16.5486C17.2426 16.2543 17.2488 15.9417 17.3441 15.6509C17.4394 15.3601 17.6194 15.1044 17.8611 14.9167L22.7638 11.0625C22.7906 11.0438 22.8106 11.0169 22.8209 10.9859C22.8313 10.9549 22.8314 10.9214 22.8213 10.8903C22.8112 10.8592 22.7914 10.8322 22.7648 10.8132C22.7382 10.7942 22.7062 10.7842 22.6736 10.7848L16.4236 10.5486C16.1175 10.5367 15.822 10.4339 15.5746 10.2533C15.3273 10.0728 15.1393 9.8226 15.0347 9.53476L12.8819 3.68059C12.8722 3.64951 12.8528 3.62234 12.8266 3.60305C12.8003 3.58376 12.7686 3.57335 12.7361 3.57335C12.7035 3.57335 12.6718 3.58376 12.6455 3.60305C12.6193 3.62234 12.5999 3.64951 12.5902 3.68059L10.4583 9.52781C10.3537 9.81566 10.1657 10.0658 9.91832 10.2464C9.67096 10.427 9.37542 10.5298 9.06939 10.5417L2.81939 10.7778C2.78671 10.7773 2.75472 10.7873 2.72813 10.8062C2.70153 10.8252 2.68173 10.8523 2.67163 10.8834C2.66152 10.9144 2.66166 10.9479 2.672 10.9789C2.68235 11.0099 2.70237 11.0368 2.72911 11.0556L7.63883 14.9167C7.87976 15.105 8.05925 15.3607 8.15447 15.6513C8.24968 15.9419 8.25633 16.2543 8.17355 16.5486L6.47911 22.5486C6.469 22.5787 6.46895 22.6112 6.47897 22.6413C6.489 22.6714 6.50855 22.6973 6.53467 22.7153C6.55982 22.7368 6.59184 22.7487 6.62494 22.7487C6.65805 22.7487 6.69006 22.7368 6.71522 22.7153L11.8958 19.2431C12.149 19.0751 12.4461 18.9858 12.7499 18.9861L12.7569 18.9584Z" fill="#363636"/>
</g>
<defs>
<clipPath id="clip0_272_451">
<rect width="25" height="25" fill="white" transform="translate(0 0.500031)"/>
</clipPath>
</defs>
</svg>
