<svg width="33" height="33" viewBox="0 0 33 33" fill="none" xmlns="http://www.w3.org/2000/svg">
<path d="M13.2291 9.24903C13.5585 9.24905 13.8747 9.119 14.1087 8.88717C14.3428 8.65534 14.4759 8.34047 14.4791 8.01103C14.4823 7.68139 14.3552 7.36381 14.1254 7.12745C13.8956 6.89109 13.5817 6.75508 13.2521 6.74903M13.1211 11.737C12.7915 11.737 12.4752 11.6069 12.2411 11.3748C12.007 11.1428 11.874 10.8276 11.8711 10.498C11.8681 10.1686 11.9954 9.85124 12.2251 9.6151C12.4549 9.37895 12.7686 9.24308 13.0981 9.23703M13.2291 14.237C13.5587 14.237 13.875 14.1069 14.1091 13.8748C14.3432 13.6428 14.4762 13.3276 14.4791 12.998C14.482 12.6686 14.3548 12.3512 14.125 12.1151C13.8952 11.879 13.5815 11.7431 13.2521 11.737M18.2291 9.24903C18.5585 9.24905 18.8747 9.119 19.1087 8.88717C19.3428 8.65534 19.4759 8.34047 19.4791 8.01103C19.4823 7.68139 19.3552 7.36381 19.1254 7.12745C18.8956 6.89109 18.5817 6.75508 18.2521 6.74903M18.1211 11.737C17.7915 11.737 17.4752 11.6069 17.2411 11.3748C17.007 11.1428 16.874 10.8276 16.8711 10.498C16.8681 10.1686 16.9954 9.85124 17.2251 9.6151C17.4549 9.37895 17.7686 9.24308 18.0981 9.23703M18.2291 14.237C18.5587 14.237 18.875 14.1069 19.1091 13.8748C19.3432 13.6428 19.4762 13.3276 19.4791 12.998C19.482 12.6686 19.3548 12.3512 19.125 12.1151C18.8952 11.879 18.5815 11.7431 18.2521 11.737M8.61607 9.24803C8.94553 9.24805 9.26166 9.118 9.49574 8.88617C9.72982 8.65434 9.86291 8.33947 9.86607 8.01003C9.8693 7.68056 9.7423 7.36313 9.51271 7.1268C9.28312 6.89047 8.96951 6.75434 8.64007 6.74803M8.50908 11.737C8.17945 11.737 7.86316 11.6069 7.62906 11.3748C7.39495 11.1428 7.26198 10.8276 7.25908 10.498C7.25638 10.1689 7.38361 9.85199 7.61314 9.61609C7.84268 9.38019 8.15599 9.24434 8.48507 9.23803M8.61607 14.237C8.9457 14.237 9.26199 14.1069 9.49609 13.8748C9.7302 13.6428 9.86317 13.3276 9.86607 12.998C9.86903 12.6687 9.74192 12.3516 9.51236 12.1154C9.2828 11.8793 8.96933 11.7433 8.64007 11.737" stroke="#FAA41A" stroke-linecap="round" stroke-linejoin="round"/>
<path d="M30.0499 10.908C30.0499 12.187 29.1629 13.223 28.0699 13.223C26.9749 13.223 26.0879 12.187 26.0879 10.909C26.0879 9.63104 26.9749 7.61304 28.0689 7.61304C29.1629 7.61304 30.0499 9.63104 30.0499 10.909V10.908Z" fill="#FAA41A" stroke="#383747" stroke-linecap="round" stroke-linejoin="round"/>
<path d="M9.10303 27.227H18.102V24.251C16.184 25.097 15.067 25.229 13.514 25.261C11.57 25.301 10.254 24.965 9.10403 24.678L9.10303 27.227ZM28.053 13.775C27.113 16.68 27.378 20.389 27.075 23.719C27.075 25.251 29.064 25.199 29.064 23.719C28.758 20.412 29.236 17.157 28.054 13.775H28.053Z" stroke="#383747" stroke-linecap="round" stroke-linejoin="round"/>
<path d="M24.9561 16.453C23.2751 22.727 16.8261 26.45 10.5521 24.769C8.55798 24.2348 6.73966 23.185 5.27989 21.7252C3.82011 20.2655 2.77034 18.4471 2.23608 16.453H24.9561Z" fill="#FAA41A" stroke="#383747" stroke-linecap="round" stroke-linejoin="round"/>
<path d="M21.5901 18.486C20.8821 20.645 18.9871 22.146 16.7871 22.554" stroke="white" stroke-linecap="round" stroke-linejoin="round"/>
</svg>
