<svg width="41" height="40" viewBox="0 0 41 40" fill="none" xmlns="http://www.w3.org/2000/svg">
<path fill-rule="evenodd" clip-rule="evenodd" d="M33.3187 14.7364C31.6691 12.6808 29.3547 11.4916 27.1699 11.4916C24.2795 11.4916 23.0583 12.8648 21.0531 12.8648C18.9863 12.8648 17.4147 11.4936 14.9147 11.4936C12.4591 11.4936 9.84833 12.9852 8.19313 15.5344C5.86393 19.1192 6.25833 25.864 10.0351 31.6116C11.3859 33.6668 13.1899 35.978 15.5487 36C17.6451 36.0192 18.2383 34.6628 21.0827 34.6468C23.9275 34.6312 24.4655 36.0148 26.5615 35.9952C28.9203 35.9728 30.8235 33.4136 32.1735 31.358C33.1411 29.8856 33.5015 29.1416 34.2531 27.4772C28.7927 25.414 27.9147 17.6984 33.3187 14.7364Z" fill="black"/>
<path fill-rule="evenodd" clip-rule="evenodd" d="M24.9776 9.1952C26.0275 7.848 26.8251 5.9448 26.5355 4C24.8203 4.1184 22.8139 5.2092 21.6427 6.632C20.5795 7.9232 19.7016 9.838 20.0432 11.6992C21.9156 11.7572 23.8531 10.6384 24.9776 9.1952Z" fill="black"/>
</svg>
