<svg width="31" height="30" viewBox="0 0 31 30" fill="none" xmlns="http://www.w3.org/2000/svg">
<g clip-path="url(#clip0_267_436)">
<path d="M7.63936 18.1294L6.5951 22.0278L2.77836 22.1085C1.63771 19.9929 0.990723 17.5723 0.990723 15C0.990723 12.5127 1.59564 10.1671 2.66791 8.10168H2.66873L6.0667 8.72465L7.55521 12.1022C7.24367 13.0105 7.07387 13.9855 7.07387 15C7.07398 16.1011 7.27344 17.1561 7.63936 18.1294Z" fill="#FBBB00"/>
<path d="M30.7285 12.1978C30.9007 13.1051 30.9905 14.0422 30.9905 14.9999C30.9905 16.0738 30.8776 17.1214 30.6625 18.1318C29.9323 21.5703 28.0244 24.5728 25.3813 26.6975L25.3804 26.6967L21.1005 26.4783L20.4948 22.6969C22.2486 21.6684 23.6192 20.0587 24.3412 18.1318H16.3203V12.1978H30.7285Z" fill="#518EF8"/>
<path d="M25.3805 26.6967L25.3813 26.6975C22.8108 28.7637 19.5453 30 15.9907 30C10.2783 30 5.31186 26.8071 2.77832 22.1085L7.63932 18.1294C8.90605 21.5101 12.1673 23.9168 15.9907 23.9168C17.6341 23.9168 19.1737 23.4725 20.4948 22.697L25.3805 26.6967Z" fill="#28B446"/>
<path d="M25.5652 3.45328L20.7059 7.43156C19.3386 6.57691 17.7223 6.0832 15.9908 6.0832C12.0809 6.0832 8.75861 8.60021 7.55533 12.1022L2.66879 8.10164H2.66797C5.16441 3.28846 10.1935 0 15.9908 0C19.6303 0 22.9674 1.29645 25.5652 3.45328Z" fill="#F14336"/>
</g>
<defs>
<clipPath id="clip0_267_436">
<rect width="30" height="30" fill="white" transform="translate(0.990723)"/>
</clipPath>
</defs>
</svg>
