<svg width="809" height="1485" viewBox="0 0 809 1485" fill="none" xmlns="http://www.w3.org/2000/svg">
<path fill-rule="evenodd" clip-rule="evenodd" d="M723.037 566.369C684.581 857.951 647.091 1151.22 606.901 1443.37C517.096 1469.27 420.918 1463.98 327.282 1466C83.8093 1444.75 153.118 1478.56 132.991 1327.97C114.438 1069.85 95.3429 815.804 77.0367 557C289.929 587.556 508.025 588.755 723.037 566.369Z" fill="#E2C0FF"/>
<path fill-rule="evenodd" clip-rule="evenodd" d="M95.0367 858C262.724 895.698 461.607 899.398 691.685 869.102C704.678 867.391 691.988 953.867 653.615 1128.53C517.722 1152.52 424.615 1164.84 374.295 1165.47C184.095 1167.85 104.037 1114.74 104.037 1109.21C104.037 1101.49 101.037 1017.76 95.0367 858Z" fill="#7777E0"/>
<path fill-rule="evenodd" clip-rule="evenodd" d="M459.672 22C475.082 24.6449 489.778 27.1658 505.037 29.7834C391.683 488.601 453.072 387.011 374.037 399.353C402.722 272.95 431.158 147.646 459.672 22Z" fill="white"/>
<path fill-rule="evenodd" clip-rule="evenodd" d="M548.056 569.958C-100.676 571.474 46.8551 532.392 19.0367 412C273.932 415.859 531.27 421.188 788.037 424.201C779.367 491.176 787.063 555.765 769.919 550.617C696.904 556.537 623.641 566.339 548.056 569.958Z" fill="#7777E0"/>
<path fill-rule="evenodd" clip-rule="evenodd" d="M460.039 224C476.582 231.408 458.179 236.213 461.342 247.218C473.923 256.688 452.705 269.001 460.906 284.121C463.084 293.561 452.307 293.684 449.347 303.992C370.151 365.214 382.39 337.622 373.037 312.431C386.535 302.142 385.869 308.811 390.81 287.668C408.225 212.228 373.877 276.028 460.039 224Z" fill="#FE6986"/>
<path fill-rule="evenodd" clip-rule="evenodd" d="M459.77 223.437C344.758 284.993 421.812 217.878 415.477 164.039C432.932 178.182 465.846 153.941 478.583 144C481.2 169.231 472.183 199.753 459.77 223.437Z" fill="#FEF3F5"/>
<path fill-rule="evenodd" clip-rule="evenodd" d="M478.567 145.034C412.723 200.021 393.577 143.18 427.547 143.14C421.64 131.555 417.577 129.233 432.499 118.513C430.437 117.382 427.085 104.671 434.333 106.913C449.569 116.648 521.55 44.2696 504.419 86.1605C495.436 94.1422 494.177 96.2202 498.796 108.874C497.463 116.78 490.229 118.51 495.291 128.488C493.42 136.848 486.339 137.196 478.567 145.034Z" fill="#FE6987"/>
<path fill-rule="evenodd" clip-rule="evenodd" d="M502.848 71.6854C398.033 138.489 440.741 97.0145 440.183 74.151C452.416 53.7317 441.073 26.5617 455.963 19.3595C474.841 16.7693 487.228 17.8926 506.502 22.6246C529.403 22.7797 504.007 50.3327 502.848 71.6854Z" fill="#FEF3F5"/>
<path fill-rule="evenodd" clip-rule="evenodd" d="M380.241 338.254C400.241 343.351 431.336 315.929 447.037 308C443.653 337.608 448.232 354.574 416.563 366.805C357.785 399.308 370.844 383.477 380.241 338.254Z" fill="#FEF2F4"/>
<path fill-rule="evenodd" clip-rule="evenodd" d="M371.133 382.373C405.667 389.406 461.583 316.453 429.406 393.999C415.711 401.51 398.034 403.99 381.807 407C375.651 399.268 352.543 391.758 371.133 382.373Z" fill="#FE6A87"/>
<path fill-rule="evenodd" clip-rule="evenodd" d="M459.385 21.5617C430.851 147.208 402.395 272.512 373.69 398.914C395.511 394.855 426.907 409.557 426.186 387.401C445.732 265.153 477.56 149.709 504.78 29.3451C489.512 26.7275 474.806 24.2066 459.385 21.5617ZM787.749 424.497C531.937 420.482 276.813 416.476 21.4531 412.469C32.1743 504.772 19.5418 517.913 47.7267 527.012C174.71 564.237 305.293 553.42 436.453 561.784C535.723 564.115 628.141 554.296 727.068 545.454C744.422 540.84 767.165 547.857 778.199 536.095C782.5 500.532 782.882 461.604 787.749 424.497ZM76.754 556.396C98.8072 851.656 118.027 1149.48 142.337 1446.15C212.512 1459.15 287.455 1463.45 360.947 1464.89C680.93 1452.09 591.382 1467.82 624.733 1308.87C657.422 1059.39 690.396 815.367 722.646 565.757C509.14 588.077 290.487 586.994 76.754 556.396ZM444.404 399.097C876.53 410.828 803.036 385.863 804.96 450.789C796.486 501.118 806.768 531.272 790.041 554.81C777.839 567.372 748.646 555.667 742.552 567.924C731.965 649.372 720.83 732.568 709.9 816.068C610.699 1547.51 635.824 1440.31 610.996 1461.86C443.97 1504.38 175.998 1478.32 128.935 1462.3C111.078 1434.3 122.159 1395.8 115.401 1362.16C36.1512 320.231 76.8507 606.804 14.9071 528.576C3.39959 499.186 8.43051 467.137 3.37237 434.767C5.13705 415.069 -12.2572 390.112 18.4258 392.623C397.705 396.181 346.895 405.056 355.51 389.756C381.183 275.991 405.893 167.922 431.453 55.0166C439.898 31.0645 434.321 4.70503 456.356 0.841309C485.225 10.4636 537.958 -0.433491 523.903 35.642C495.042 159.115 464.192 274.491 444.404 399.097Z" fill="black"/>
</svg>
