<svg width="25" height="26" viewBox="0 0 25 26" fill="none" xmlns="http://www.w3.org/2000/svg">
<path d="M12.5 4.52205C14.4386 4.52223 16.3295 5.1234 17.9123 6.24278C19.4951 7.36216 20.6919 8.94469 21.3381 10.7725C21.9842 12.6003 22.0478 14.5834 21.5201 16.4488C20.9924 18.3142 19.8995 19.9702 18.3916 21.1887H6.6083C5.10048 19.9702 4.00749 18.3142 3.47982 16.4488C2.95215 14.5834 3.01575 12.6003 3.66187 10.7725C4.30799 8.94469 5.50485 7.36216 7.08765 6.24278C8.67045 5.1234 10.5613 4.52223 12.5 4.52205V4.52205Z" stroke="#363636" stroke-width="2.91667" stroke-linecap="round" stroke-linejoin="round"/>
<path d="M20.8334 9.73038H11.6667C11.5082 9.73058 11.3518 9.76695 11.2095 9.83672C11.0672 9.90648 10.9427 10.0078 10.8454 10.133C10.7482 10.2581 10.6808 10.4039 10.6484 10.559C10.6159 10.7142 10.6194 10.8747 10.6584 11.0283C11.1865 13.1116 12.3209 14.5887 14.0625 15.4595C16.1459 16.5012 18.5761 17.022 21.3542 17.022" stroke="#363636" stroke-width="2.91667" stroke-linecap="round" stroke-linejoin="round"/>
</svg>
