<svg width="25" height="26" viewBox="0 0 25 26" fill="none" xmlns="http://www.w3.org/2000/svg">
<g clip-path="url(#clip0_214_236)">
<path d="M12.5 1.74423C10.3025 1.74423 8.15424 2.39589 6.32703 3.61679C4.49982 4.8377 3.07568 6.57301 2.2347 8.6033C1.39373 10.6336 1.17369 12.8677 1.60242 15.023C2.03114 17.1784 3.08937 19.1582 4.64329 20.7121C6.19721 22.266 8.17702 23.3242 10.3324 23.753C12.4877 24.1817 14.7218 23.9616 16.7521 23.1207C18.7824 22.2797 20.5177 20.8556 21.7386 19.0283C22.9595 17.2011 23.6111 15.0529 23.6111 12.8553C23.6111 9.90849 22.4405 7.08234 20.3568 4.9986C18.273 2.91486 15.4469 1.74423 12.5 1.74423ZM12.5 22.5776C10.5772 22.5776 8.69747 22.0074 7.09865 20.9391C5.49984 19.8708 4.25372 18.3524 3.51787 16.5759C2.78202 14.7994 2.58949 12.8446 2.96462 10.9586C3.33975 9.07271 4.26571 7.34037 5.62538 5.98069C6.98506 4.62102 8.71739 3.69507 10.6033 3.31993C12.4892 2.9448 14.4441 3.13733 16.2206 3.87318C17.9971 4.60903 19.5155 5.85515 20.5838 7.45397C21.6521 9.05278 22.2223 10.9325 22.2223 12.8553C22.2223 15.4338 21.198 17.9067 19.3747 19.73C17.5514 21.5533 15.0785 22.5776 12.5 22.5776Z" fill="#363636"/>
<path d="M12.7013 6.5498C11.9487 6.53736 11.2027 6.69083 10.5162 6.99928C9.82966 7.30774 9.2195 7.76362 8.72906 8.33452C8.66092 8.39767 8.60615 8.47384 8.56798 8.55853C8.52981 8.64322 8.50902 8.73471 8.50684 8.82758C8.50679 8.91326 8.52398 8.99808 8.55738 9.07698C8.59078 9.15589 8.63972 9.22726 8.70127 9.28687C8.76282 9.34648 8.83573 9.3931 8.91566 9.42395C8.9956 9.4548 9.08092 9.46926 9.16656 9.46647C9.35001 9.46192 9.52543 9.39027 9.65961 9.26508C10.0308 8.83014 10.4917 8.48076 11.0108 8.241C11.5299 8.00124 12.0948 7.87678 12.6666 7.87619C14.3054 7.87619 15.3263 8.93175 15.3263 10.2442V10.279C15.3263 11.8137 14.1041 12.6679 12.1735 12.8137C12.0953 12.8167 12.0187 12.8362 11.9486 12.8709C11.8784 12.9056 11.8164 12.9547 11.7666 13.015C11.7168 13.0753 11.6803 13.1455 11.6594 13.2209C11.6386 13.2963 11.6339 13.3752 11.6457 13.4526C11.6457 13.4526 11.6457 15.0637 11.6457 15.3623C11.663 15.5342 11.7437 15.6935 11.8721 15.809C12.0005 15.9246 12.1674 15.9882 12.3402 15.9873H12.4166C12.5884 15.97 12.7477 15.8893 12.8633 15.7609C12.9789 15.6325 13.0424 15.4656 13.0416 15.2929V13.8623C15.1249 13.5706 16.8124 12.4734 16.8124 10.1956V10.1609C16.7916 8.07758 15.1666 6.5498 12.7013 6.5498Z" fill="#363636"/>
<path d="M12.3473 19.4178C12.8267 19.4178 13.2154 19.0292 13.2154 18.5498C13.2154 18.0704 12.8267 17.6817 12.3473 17.6817C11.8679 17.6817 11.4792 18.0704 11.4792 18.5498C11.4792 19.0292 11.8679 19.4178 12.3473 19.4178Z" fill="#363636"/>
</g>
<defs>
<clipPath id="clip0_214_236">
<rect width="25" height="25" fill="white" transform="translate(0 0.355347)"/>
</clipPath>
</defs>
</svg>
