<svg width="36" height="36" viewBox="0 0 36 36" fill="none" xmlns="http://www.w3.org/2000/svg">
<path d="M13.8216 30.6158V26.1566C13.8216 25.0183 14.7511 24.0955 15.8977 24.0955H20.0892C20.6399 24.0955 21.1679 24.3126 21.5573 24.6992C21.9467 25.0857 22.1654 25.6099 22.1654 26.1566V30.6158C22.1619 31.089 22.3488 31.544 22.6847 31.8799C23.0206 32.2157 23.4776 32.4046 23.9543 32.4046H26.8139C28.1495 32.4081 29.4315 31.8838 30.3771 30.9475C31.3227 30.0112 31.8542 28.7398 31.8542 27.414V14.7105C31.8542 13.6395 31.3759 12.6236 30.5484 11.9364L20.8205 4.2236C19.1283 2.87128 16.7037 2.91494 15.062 4.32731L5.55606 11.9364C4.68941 12.6033 4.17143 13.6222 4.14583 14.7105V27.401C4.14583 30.1644 6.40243 32.4046 9.18609 32.4046H11.9804C12.9705 32.4046 13.7752 31.6116 13.7824 30.6287L13.8216 30.6158Z" fill="#828282"/>
</svg>
