<svg width="952" height="416" viewBox="0 0 952 416" fill="none" xmlns="http://www.w3.org/2000/svg">
<path fill-rule="evenodd" clip-rule="evenodd" d="M234.859 314.903C265.985 322.659 340.346 294.715 350.977 316.76C356.303 310.111 358.072 303.085 357.329 295.188C318.162 304.113 274.918 305.297 234.859 314.903ZM416.111 271.718C368.036 289.483 375.267 388.058 342.704 381.378C261.932 381.902 178.274 402.908 96.6808 392.16C4.81725 279.545 100.146 330.421 123.671 317.851C98.339 314.18 85.845 303.713 62.7955 300.626C26.9634 316.656 31.9705 279.298 30.327 253.483C-2.03384 198.001 113.111 249.43 150.262 243.782C375.875 266.623 420.148 169.78 429.534 248.489C430.178 256.374 424.794 266.918 416.111 271.718Z" fill="#FDEFC2"/>
<path fill-rule="evenodd" clip-rule="evenodd" d="M584.907 95.2412C543.606 86.9937 521.848 82.68 568.369 51.9538L568.345 51.9783C645.234 4.01999 748.341 10.3251 836.856 34.8946C867.768 41.565 1050.42 127.952 766.602 124.085C707.766 120.851 645.847 109.291 584.907 95.2412Z" fill="#FE7A95"/>
<path fill-rule="evenodd" clip-rule="evenodd" d="M635.872 132.813C710.678 144.461 791.089 153.188 871.535 138.159C903.519 139.112 932.34 94.438 916.882 162.194C839.456 201.838 643.156 204.806 530.086 158.58C521.599 80.1855 527.2 109.848 635.872 132.813Z" fill="#FDEFC2"/>
<path fill-rule="evenodd" clip-rule="evenodd" d="M763.935 273.424C706.154 269.231 644.89 273.767 583.402 260.07C565.175 248.083 562.694 224.285 554.761 201.472C557.817 195.576 559.464 200.914 577.169 202.685C674.206 217.54 772.149 232.231 872.383 205.91C846.104 268.639 850.77 280.033 763.935 273.424Z" fill="#FDEFC2"/>
<path fill-rule="evenodd" clip-rule="evenodd" d="M62.0472 230.615C54.5097 231.747 42.1461 227.392 42.8554 215.258C35.5249 123.236 243.661 128.46 307.752 141.768C135.236 127.46 -37.499 201.438 94.3086 217.279C84.0336 229.684 73.201 215.219 62.0472 230.615Z" fill="#BCFDBB"/>
<path fill-rule="evenodd" clip-rule="evenodd" d="M386.156 219.087C384.967 216.177 383.78 213.269 382.59 210.357C403.471 203.554 425.575 201.336 413.491 172.944C476.425 170.691 403.36 232.224 386.156 219.087Z" fill="#BCFDBA"/>
<path fill-rule="evenodd" clip-rule="evenodd" d="M685.648 58.4433C713.872 51.2331 742.658 49.5728 771.769 59.6518C797.263 53.4935 833.952 43.2253 849.231 74.0102C846.205 106.933 824.462 77.3846 811.276 77.7075C791.82 75.6069 769.288 93.5664 748.156 80.0022C727.105 68.2564 696.432 89.6212 672.011 80.237C657.375 71.3209 671.892 50.6949 685.648 58.4433Z" fill="#F23E61"/>
<path fill-rule="evenodd" clip-rule="evenodd" d="M162.07 167.32C138.706 165.929 109.476 201.894 143.165 203.952C154.666 197.502 159.97 188.147 175.017 197.081C197.736 206.021 216.75 202.244 240.54 193.176C264.933 191.332 293.578 215.435 313.503 188.721C318.207 152.849 294.137 181.326 276.752 175.292C212.998 154.756 223.301 192.496 162.07 167.32ZM413.491 172.943C452.24 239.664 151.195 224.069 132.907 221.432C-27.8934 208.533 72.1974 171.673 150.745 147.57C244.45 137.235 342.744 131.375 413.491 172.943Z" fill="#E1C0FE"/>
<path fill-rule="evenodd" clip-rule="evenodd" d="M162.07 167.32C210.908 187.22 230.873 165.136 253.529 168.439C267.174 169.683 273.382 177.547 288.799 176.293C296.054 172.992 302.945 166.257 311.736 173.079C324.126 228.053 245.646 179.757 221.961 199.566C197.896 211.873 174.791 187.383 152.592 196.781C112.094 222.798 128.322 164.014 162.07 167.32Z" fill="#BBFDB9"/>
<path fill-rule="evenodd" clip-rule="evenodd" d="M62.6794 324.725C70.8904 341.592 75.8118 368.133 93.9259 380.652C143.798 389.783 194.611 383.737 245.975 383.051C365.296 377.594 345.681 389.571 377.822 310.701C277.253 343.55 168.26 334.042 62.6794 324.725ZM420.408 224.773C293.267 280.058 129.22 256.978 33.5847 232.162C16.1162 312.324 75.0978 291.441 124.952 300.43C206.699 308.03 450.831 304.836 420.408 224.773ZM46.9225 203.891C152.754 232.612 269.599 238.604 377.765 209.869C536.221 155.12 103.873 98.8996 46.9225 203.891ZM229.438 413.36C58.8535 419.304 71.3485 417.637 33.6157 336.054C-68.9476 193.948 86.1811 112.136 209.571 114.741C359.291 113.004 495.378 125.728 439.949 283.316C408.886 308.797 416.761 278.325 403.536 329.29C371.408 439.869 311.233 403.797 229.434 412.692L229.438 413.36Z" fill="black"/>
<path fill-rule="evenodd" clip-rule="evenodd" d="M555.26 200.81C565.461 293.199 663.359 262.453 729.601 271.379C847.607 274.114 833.632 288.573 871.112 207.88C768.322 236.304 659.721 217.295 555.26 200.81ZM533.064 106.477C507.819 186.991 575.927 168.652 624.166 181.5C702.768 194.515 943.483 207.365 919.118 125.552C791.608 174.354 612.512 134.458 533.064 106.477ZM547.815 78.8411C658.493 121.23 806.433 127.322 884.616 106.358C1024.27 58.7648 609.162 -17.3312 547.815 78.8411ZM949.327 121.815C946.533 181.234 947.311 180.605 904.308 201.801C887.628 246.074 868.008 305.959 820.19 303.011C532.483 299.312 557.891 297.38 525.842 208.737C509.081 179.219 491.82 152.746 500.456 115.491C513.725 -62.2515 990.827 -15.4579 949.327 121.815Z" fill="black"/>
</svg>
