<svg width="26" height="26" viewBox="0 0 26 26" fill="none" xmlns="http://www.w3.org/2000/svg">
<path d="M17.2297 2.90716C17.5226 3.20017 17.6872 3.59752 17.6872 4.01184C17.6872 4.42616 17.5226 4.82352 17.2297 5.11653L9.49531 12.8509L17.2297 20.5853C17.5143 20.88 17.6718 21.2747 17.6682 21.6843C17.6647 22.094 17.5004 22.4859 17.2107 22.7756C16.921 23.0653 16.5291 23.2296 16.1194 23.2332C15.7097 23.2368 15.315 23.0793 15.0203 22.7947L6.18125 13.9556C5.88833 13.6626 5.72377 13.2652 5.72377 12.8509C5.72377 12.4366 5.88833 12.0392 6.18125 11.7462L15.0203 2.90716C15.3133 2.61423 15.7107 2.44968 16.125 2.44968C16.5393 2.44968 16.9367 2.61423 17.2297 2.90716Z" fill="black"/>
</svg>
