<svg width="15" height="16" viewBox="0 0 15 16" fill="none" xmlns="http://www.w3.org/2000/svg">
<path d="M7.5 13.25C6.71059 12.5766 5.97887 11.8384 5.3125 11.0431C4.3125 9.84875 3.125 8.07 3.125 6.375C3.12457 5.50935 3.38094 4.66303 3.86168 3.94314C4.34242 3.22325 5.02592 2.66216 5.82567 2.33087C6.62542 1.99959 7.50547 1.91299 8.35445 2.08206C9.20343 2.25112 9.98317 2.66824 10.595 3.28062C11.0023 3.68616 11.3252 4.16846 11.5449 4.69961C11.7646 5.23076 11.8768 5.80021 11.875 6.375C11.875 8.07 10.6875 9.84875 9.6875 11.0431C9.02113 11.8384 8.28941 12.5766 7.5 13.25ZM7.5 4.5C7.00272 4.5 6.52581 4.69754 6.17417 5.04917C5.82254 5.40081 5.625 5.87772 5.625 6.375C5.625 6.87228 5.82254 7.3492 6.17417 7.70083C6.52581 8.05246 7.00272 8.25 7.5 8.25C7.99728 8.25 8.4742 8.05246 8.82583 7.70083C9.17746 7.3492 9.375 6.87228 9.375 6.375C9.375 5.87772 9.17746 5.40081 8.82583 5.04917C8.4742 4.69754 7.99728 4.5 7.5 4.5Z" fill="#EC0606"/>
</svg>
