<svg width="620" height="463" viewBox="0 0 620 463" fill="none" xmlns="http://www.w3.org/2000/svg">
<path fill-rule="evenodd" clip-rule="evenodd" d="M22.2569 180.79C244.518 293.641 522.041 223.344 567.58 169.51C599.152 122.421 575.504 288.704 566.143 292.992C513.32 445.269 309.875 438.043 192.853 418.944C37.1053 387.922 16.6134 302.114 22.2569 180.79Z" fill="#E8BCFF" stroke="black" stroke-width="10"/>
<path fill-rule="evenodd" clip-rule="evenodd" d="M22.2569 180.79C244.518 293.641 522.041 223.344 567.58 169.51C599.152 122.421 575.504 288.704 566.143 292.992C513.32 445.269 309.875 438.043 192.853 418.944C37.1053 387.922 16.6134 302.114 22.2569 180.79Z" fill="#E8BCFF"/>
<path d="M24.5202 176.332C124.315 227.002 243.313 244.319 360.696 232.681C409.364 227.856 455.229 218.098 492.785 205.127C527.174 193.25 552.456 179.326 563.434 166.664L563.596 166.474L563.698 166.324C568.216 159.68 572.251 156.165 576.796 156.12L577.069 156.121C582.438 156.232 585.322 160.506 586.864 167.215C588.958 176.327 588.94 192.228 587.193 212.416C585.661 230.113 582.852 250.018 579.662 266.232L579.257 268.274C576.346 282.757 573.856 291.593 570.655 295.538L570.467 295.762L570.114 296.763C545.201 366.119 488.246 407.31 407.073 424.61L404.58 425.132C341.902 438.035 268.793 436.202 194.305 424.244L192.048 423.879L191.876 423.848C116.007 408.736 68.6305 380.188 42.7263 336.271C20.7374 298.992 14.0939 252.458 17.1659 182.68L17.262 180.558L22.2561 180.79L24.5202 176.332ZM29.1919 189.802L26.9304 188.701L26.9111 189.212C24.562 253.821 31.1935 297.03 51.3396 331.19C75.396 371.974 119.642 398.9 191.639 413.599L193.739 414.023L195.883 414.37C268.54 426.033 339.803 427.92 400.703 415.715L402.564 415.337C481.926 399 536.849 359.785 560.706 293.374L561.419 291.353L562.119 289.336L563.236 288.823L563.296 288.712C563.343 288.624 563.393 288.525 563.445 288.418L563.526 288.249C564.078 287.079 564.718 285.323 565.404 283.068C566.76 278.611 568.235 272.425 569.699 265.067L569.851 264.302C572.878 248.908 575.566 230.039 577.094 213.089L577.23 211.553C578.891 192.362 578.908 177.244 577.118 169.455C576.866 168.359 576.589 167.467 576.314 166.801L576.289 166.742L576.167 166.848C575.017 167.857 573.61 169.541 572.002 171.896L571.577 172.526L571.397 172.739C545.69 203.13 459.351 232.95 361.682 242.633C246.094 254.092 128.883 237.884 29.1919 189.802Z" fill="black"/>
<path fill-rule="evenodd" clip-rule="evenodd" d="M318.487 66.6166C333.936 40.6689 389.388 23.5583 414.914 37.6875C425.089 42.4129 450.568 60.2012 431.345 71.5438C431.098 78.6194 432.589 77.2086 466.232 87.6146C477.534 91.7107 461.61 79.0694 463.095 66.2731C475.943 39.82 487.031 49.3307 491.227 76.7338C473.311 59.3569 514.219 98.1592 519.941 107.054C528.764 116.624 555.73 91.6115 565.305 98.8273C570.085 102.43 585.219 96.9763 587.044 103.497C591.679 120.058 575.732 152.035 567.845 149.626C564.021 147.189 561.588 149.559 567.756 156.242C550.231 181.356 517.599 196.702 489.465 209.538C474.861 213.342 474.322 213.323 418.001 225.47C401.912 228.939 264.723 239.617 268.291 239.768C70.4625 214.306 71.4014 187.42 66.9171 196.994C53.9388 192.088 38.5886 182.664 22.8628 174.98C95.4641 136.307 55.2034 115.306 81.656 84.2743C93.1532 65.9864 129.721 63.9311 145.086 56.7814C117.445 45.3691 196.469 23.551 199.274 46.4928C248.81 75.0239 243.977 15.557 270.216 29.6562C276.976 29.6248 294.143 20.601 295.654 35.488C298.301 58.589 272.397 74.2645 318.487 66.6166Z" fill="#FEE967"/>
<path fill-rule="evenodd" clip-rule="evenodd" d="M454.727 70.5828C457.349 70.6783 459.971 70.7739 462.591 70.8696C479.678 88.717 446.337 88.1977 426.942 89.3311C419.122 51.1019 382.964 67.3061 374.109 55.2817C383.72 39.2504 426.878 59.9326 433.506 74.6487C439.359 71.2693 444.916 70.0728 454.727 70.5828Z" fill="#FDEFC0"/>
<path fill-rule="evenodd" clip-rule="evenodd" d="M268.325 240.518C239.064 233.417 217.507 192.645 236.068 192.04C245.294 214.885 253.533 232.71 281.361 230.175C294.506 233.736 283.511 243.099 268.325 240.518Z" fill="#FDEFC0"/>
<path fill-rule="evenodd" clip-rule="evenodd" d="M178.015 24.8463C209.512 29.1158 161.468 45.4957 146.864 40.7061C131.649 26.5561 165.695 22.6729 176.68 21.4734" fill="#FDEFC2"/>
<path fill-rule="evenodd" clip-rule="evenodd" d="M401.033 168.931C365.701 141.668 451.595 154.213 442.796 176.444C488.161 167.535 456.465 195.656 423.684 180.597C437.565 221.643 324.35 234.023 395.844 206.599C409.634 200.547 411.59 191.473 421.772 179.72C398.833 165.473 399.853 201.615 382.564 200.951C375.354 193.837 396.276 178.199 401.033 168.931Z" fill="#FDEFC0"/>
<path fill-rule="evenodd" clip-rule="evenodd" d="M192.597 100.6C199.337 110.035 177.755 120.401 169.121 128.03C180.203 133.191 180.713 156.951 196.397 160.802C242.704 179.384 168.262 180.166 165.463 130.407C119.398 149.663 193.172 79.1598 210.246 84.9138C218.812 83.3831 242.323 89.1384 229.43 99.7739C218.462 93.4679 205.547 92.5122 192.597 100.6Z" fill="#FDEFC0"/>
<path fill-rule="evenodd" clip-rule="evenodd" d="M341.534 99.3825C349.583 90.9977 376.797 66.2457 372.049 96.6478C365.125 102.385 328 130.316 338.681 102.883C217.991 96.9966 335.791 77.4713 341.534 99.3825Z" fill="#FDEFC0"/>
<path fill-rule="evenodd" clip-rule="evenodd" d="M317.539 133.739C270.261 108.95 315.886 114.271 338.138 122.269C351.416 144.394 327.464 126.673 325.63 142.031C330.301 205.27 307.474 164.748 317.539 133.739Z" fill="#FDEFC0"/>
<path fill-rule="evenodd" clip-rule="evenodd" d="M271.18 67.7752C279.064 70.102 271.276 76.5177 272.94 80.2325C284.604 81.9988 283.051 140.555 269.393 121.435C269.813 97.2134 277.536 75.4762 245.715 89.2624C231.946 99.4761 228.43 70.9012 271.18 67.7752Z" fill="#FDEFC0"/>
<path fill-rule="evenodd" clip-rule="evenodd" d="M307.284 130.686C295.705 180.867 316.507 180.291 331.941 208.354C308.243 229.36 274.96 115.281 307.284 130.686Z" fill="#FDEFBF"/>
<path fill-rule="evenodd" clip-rule="evenodd" d="M144.978 202.787C151.863 188.112 189.334 208.571 191.131 225.101C186.069 241.08 148.073 214.753 144.978 202.787Z" fill="#FDEFC0"/>
<path fill-rule="evenodd" clip-rule="evenodd" d="M480.071 102.046C503.339 96.7204 547.554 129.4 529.254 136.741C518.099 129.311 509.597 112.515 492.19 112.391C479.363 114.491 448.396 111.004 480.071 102.046Z" fill="#FDEFC0"/>
<path fill-rule="evenodd" clip-rule="evenodd" d="M93.7279 131.141C106.211 132.951 123.334 164.936 100.138 162.744C89.7628 155.207 64.5793 122.959 93.7279 131.141Z" fill="#FDEFC0"/>
<path fill-rule="evenodd" clip-rule="evenodd" d="M95.1765 118.565C70.1008 118.782 142.099 50.1612 142.334 76.03C123.305 85.3795 110.59 101.379 95.1765 118.565Z" fill="#FDEFC0"/>
<path fill-rule="evenodd" clip-rule="evenodd" d="M263.258 115.582C254.157 169.532 216.136 170.327 228.326 154.854C255.338 148.68 246.59 99.4473 263.258 115.582Z" fill="#FDEFBF"/>
<path fill-rule="evenodd" clip-rule="evenodd" d="M488.008 53.4037C507.967 29.6204 522.105 101.717 491.191 76.6886L491.227 76.7349C489.809 71.0837 487.143 62.5814 488.008 53.4037Z" fill="#FDEFC2"/>
<path fill-rule="evenodd" clip-rule="evenodd" d="M489.465 209.539C414.962 240.514 394.572 214.196 454.931 214.919C469.105 214.483 486.434 193.605 489.465 209.539Z" fill="#FDEFC0"/>
<path fill-rule="evenodd" clip-rule="evenodd" d="M456.102 92.7623C460.602 110.021 423.491 152.732 424.186 129.104C452.793 110.719 441.884 76.5759 456.102 92.7623Z" fill="#FDEFBF"/>
<path fill-rule="evenodd" clip-rule="evenodd" d="M253.464 27.9594C238.331 9.13231 285.515 3.47399 290.014 14.5989C297.832 35.2109 265.84 23.9087 253.464 27.9594Z" fill="#FDEFC3"/>
<path fill-rule="evenodd" clip-rule="evenodd" d="M482.503 157.101C486.637 129.964 493.627 153.226 495.75 168.17C497.948 177.272 510.487 180.193 507.16 190.867C496.565 196.891 482.708 165.567 482.503 157.101Z" fill="#FDEFBF"/>
<path fill-rule="evenodd" clip-rule="evenodd" d="M483.903 138.597C435.676 145.769 517.804 107.91 513.278 129.379C506.271 136.559 494.567 135.534 484.199 139.726C484.101 139.349 484.002 138.974 483.903 138.597Z" fill="#FDEFBF"/>
<path fill-rule="evenodd" clip-rule="evenodd" d="M359.425 111.072C366.149 97.2888 373.704 121.337 396.042 133.342C396.444 151.727 360.047 120.902 359.425 111.072Z" fill="#FDEFBF"/>
<path fill-rule="evenodd" clip-rule="evenodd" d="M144.978 202.787C135.217 226.555 115.108 170.218 133.317 167.529C140.012 169.478 134.859 177.784 136.776 186.445C138.158 193.238 138.935 196.605 144.978 202.787Z" fill="#FDEFBF"/>
<path fill-rule="evenodd" clip-rule="evenodd" d="M579.942 102.575C575.044 101.481 538.258 87.2983 561.918 84.1817C568.317 84.0922 606.374 99.3794 579.942 102.575Z" fill="#FDEFC2"/>
<path fill-rule="evenodd" clip-rule="evenodd" d="M548.637 167.409C542.244 165.957 500.343 138.104 526.574 141.486C531.834 149.408 561.609 156.508 548.637 167.409Z" fill="#FDEFC0"/>
<path fill-rule="evenodd" clip-rule="evenodd" d="M351.089 181.366C351.503 175.237 359.97 142.256 368.308 159.194C366.419 164.996 358.818 201.539 351.089 181.366Z" fill="#FDEFBF"/>
<path fill-rule="evenodd" clip-rule="evenodd" d="M270.215 29.6568C282.289 50.3533 237.218 83.1409 262.691 38.0006C263.818 33.4939 261.935 29.8261 270.215 29.6568Z" fill="#FDEFBF"/>
<path fill-rule="evenodd" clip-rule="evenodd" d="M570.174 151.337C564.604 158.792 531.77 143.78 540.73 133.454C548.401 132.048 561.179 144.656 570.174 151.337Z" fill="#FDEFBF"/>
<path fill-rule="evenodd" clip-rule="evenodd" d="M290.998 223.665C271.686 225.227 267.555 211.488 293.603 213.35C308.666 207.302 308.731 222.522 290.998 223.665Z" fill="#FDEFBF"/>
<path fill-rule="evenodd" clip-rule="evenodd" d="M75.6423 201.591C63.1667 198.532 69.0751 190.605 72.5558 179.027C84.7179 156.358 81.7633 191.342 75.6423 201.591Z" fill="#FDEFC0"/>
<path fill-rule="evenodd" clip-rule="evenodd" d="M424.145 103.608C422.871 110.194 420.169 107.811 412.104 109.544C379.462 125.787 412.267 84.2496 424.145 103.608Z" fill="#FDEFBE"/>
<path fill-rule="evenodd" clip-rule="evenodd" d="M165.823 43.8835C166.968 46.2244 188.115 67.7183 172.469 67.8937C165.897 65.1518 152.093 46.6593 165.823 43.8835Z" fill="#FDEFBF"/>
<path fill-rule="evenodd" clip-rule="evenodd" d="M564.522 104.483C570.789 109.165 564.705 130.956 553.574 124.325C551.515 120.333 557.044 106.507 564.522 104.483Z" fill="#FDEFBE"/>
<path fill-rule="evenodd" clip-rule="evenodd" d="M491.19 76.6877C492.959 83.6355 480.923 103.095 480.374 82.4296C480.136 78.2327 486.368 68.1406 491.19 76.6877Z" fill="#FDEFBF"/>
<path fill-rule="evenodd" clip-rule="evenodd" d="M458.732 85.2655C461.742 85.0953 465.05 86.5272 467.551 83.6195C474.062 90.3249 467.232 88.3413 458.732 85.2655Z" fill="#FEFCEF"/>
<path fill-rule="evenodd" clip-rule="evenodd" d="M488.008 53.4037C488.003 56.7838 487.998 60.1611 487.993 63.5412C485.401 62.6428 484.224 56.6786 488.008 53.4037Z" fill="#FEFCEF"/>
<path fill-rule="evenodd" clip-rule="evenodd" d="M23.1433 182.4C4.45306 390.494 141.675 427.505 308.448 428.992C502.484 429.12 598.684 335.427 577.721 160.149C520.401 225.711 425.633 229.772 343.864 239.292C231.229 252.049 122.924 233.068 23.1433 182.4ZM26.6274 172.034C213.135 282.189 532.591 223.07 570.43 153.365C609.223 100.362 587.214 313.07 554.566 335.498C477.891 477.227 168.077 453.974 81.3842 384.143C6.91797 342.472 -16.6759 149.227 47.7675 152.147C58.5465 160.034 32.9161 166.414 26.6274 172.034Z" fill="black" stroke="black" stroke-width="3"/>
<path fill-rule="evenodd" clip-rule="evenodd" d="M587.357 99.9404C580.02 91.8569 563.423 86.8451 558.068 91.0911C563.877 102.634 578.935 107.182 587.357 99.9404ZM486.589 49.3495C488.137 56.5059 488.214 64.5917 498.215 72.0728C509.988 73.6327 505.878 52.1925 486.589 49.3495ZM432.826 85.7281C444.007 87.6593 454.866 91.6501 464.868 82.3991C457.943 69.4958 440.534 72.7922 432.826 85.7281ZM253.325 20.1059C260.312 32.1622 281.834 27.427 289.543 19.1154C279.163 10.6607 262.443 4.35413 253.325 20.1059ZM474.707 132.667C482.576 137.581 494.042 138.42 503.021 133.481C525.37 114.504 480.449 114.738 474.707 132.667ZM280.255 74.0782C272.955 66.9106 254.93 69.9988 243.028 77.5446C215.587 110.22 269.437 85.8999 280.255 74.0782ZM141.673 36.0731C151.852 46.9696 182.183 40.7201 189.087 26.0123C171.988 18.7959 146.21 24.3856 141.673 36.0731ZM375.734 89.9754C375.625 64.2786 342.725 98.5387 341.156 110.725C352.305 107.693 367.906 103.67 375.734 89.9754ZM299.598 120.67C310.141 125.206 325.759 135.409 339.97 131.252C352.188 120.157 306.567 115.929 299.598 120.67ZM153.258 133.114C166.853 129.014 180.064 122.008 186.465 107.924C185.143 89.6378 154.43 124.758 153.258 133.114ZM390.293 100.017C400.159 115.247 422.229 115.711 420.876 93.5855C411.717 91.6066 399.378 92.6048 390.293 100.017ZM101.927 127.526C117.947 142.819 112.159 163.43 112.159 166.889C112.159 171.153 127.164 166.12 135.191 163.855C128.324 151.796 126.748 132.654 128.21 118.569C121.397 117.933 112.159 129.549 101.927 127.526ZM285.762 198.299C282.606 187.276 279.538 176.56 276.503 165.957C250.251 186.087 259.437 200.243 285.762 198.299ZM77.4271 130.209C82.6501 140.452 87.4591 150.061 98.1347 158.191C121.389 173.514 103.845 122.067 77.4271 130.209ZM394.107 157.255C406.628 167.019 419.077 177.27 437.493 174.86C451.423 163.057 403.77 147.885 394.107 157.255ZM446.699 161.552C456.434 172.515 446.942 198.426 440.281 211.591C451.202 212.486 472.695 207.595 482.457 203.191C473.097 192.258 457.949 168.599 459.602 154.448C455.168 156.889 450.998 159.185 446.699 161.552ZM483.673 52.3714C455.454 65.3374 468.753 65.8705 476.409 80.7269C475.381 94.7549 500.324 98.2925 499.501 82.3506C488.038 77.244 484.74 64.3523 483.673 52.3714ZM533.577 130.395C530.096 105.889 469.714 82.8467 476.334 121.512C492.738 113.149 521.472 108.758 519.739 136.606C524.501 134.469 528.867 132.509 533.577 130.395ZM347.958 145.986C326.027 188.135 353.036 210.792 375.605 167.276C363.347 163.625 354.278 156.839 347.958 145.986ZM553.604 98.2157C551.56 106.247 547.33 112.271 540.031 116.168C554.108 122.131 564.552 131.514 571.934 144.3C583.187 135.392 589.072 115.649 585.319 105.099C574.103 109.591 565.358 107.773 553.604 98.2157ZM345.757 85.0549C335.079 72.109 307.932 74.6409 293.794 81.4354C292.789 88.9604 295.668 99.5027 295.644 109.613C333.858 107.533 329.478 116.186 345.757 85.0549ZM143.942 81.1086C137.681 35.4228 61.3458 93.956 73.6551 121.539C144.009 121.198 120.124 102.827 143.942 81.1086ZM239.205 69.4836C281.783 50.3527 296.529 88.6254 293.544 28.5154C280.153 33.874 266.518 36.973 252.167 32.2396C241.944 82.3929 208.342 48.3402 188.336 39.5846C175.276 48.0504 161.298 50.0819 144.446 45.152C144.812 55.5532 146.51 65.3802 151.837 74.3474C180.226 56.874 209.013 52.5426 239.205 69.4836ZM326.422 66.3295C335.828 66.8281 347.087 71.1008 353.797 79.257C363.954 70.434 382.692 74.5293 385.214 91.3215C508.494 63.6401 356.362 0.387833 326.422 66.3295ZM141.533 158.021C153.137 150.785 139.525 139.074 146.06 126.665C154.093 107.48 178.503 81.8108 194.34 98.0823C215.574 173.963 238.142 115.356 228.113 74.595C171.535 49.7001 111.584 105.672 141.533 158.021ZM380.147 158.398C415.55 114.022 466.332 203.659 468.39 88.9237C456.179 95.7549 443.714 93.6775 431.176 92.1913C431.377 127.255 395.23 130.036 378.598 99.9315C370.35 110.36 358.915 114.504 346.361 116.892C356.81 130.781 355.39 154.999 380.147 158.398ZM190.13 121.341C180.158 132.144 168.644 139.562 154.252 142.961C188.063 256.039 309.967 162.84 282.33 80.1103C268.828 88.8345 256.617 99.6371 239.04 97.4506C245.882 152.791 201.266 155.231 190.13 121.341ZM500.953 203.362C493.461 215.106 483.626 206.553 473.377 211.591C460.179 219.638 449.03 218.399 434.423 221.595C422.548 235.797 410.326 229.694 390.885 228.786C413.023 221.394 427.846 206.842 437.256 185.319C417.105 186.638 402.313 176.308 389.041 165.657C354.296 227.655 314.231 200.364 337.822 142.448C321.441 143.668 307.753 135.938 294.558 129.045C268.237 174.266 307.749 235.684 362.003 233.32C354.32 234.794 349.19 235.31 319.351 239.133C323.278 230.907 307.837 227.078 304.586 216.299C304.126 209.877 282.338 204.27 266.437 202.085C238.573 185.319 219.705 204.27 233.582 239.097C215.276 239.22 219.384 219.755 218.939 203.935C204.735 206.403 187.877 204.795 173.652 193.527C173.331 194.009 173.009 194.492 172.686 194.973C184.991 200.821 201.607 213.984 194.637 232.73C190.44 231.44 186.288 230.165 182.137 228.888C192.567 219.026 181.409 205.889 168.058 202.085C150.388 197.05 130.924 205.609 172.686 232.697C138.393 227.12 158.727 217.983 129.231 218.498C147.473 168.376 183.585 213.149 150.363 163.456C127.984 188.007 119.226 159.93 110.746 183.752C103.34 239.831 90.4907 203.067 103.338 171.727C88.6406 168.749 77.7351 152.805 70.416 138.679C54.595 152.47 50.0751 173.231 39.797 190.789C15.7053 182.977 69.0843 131.797 64.0006 124.987C52.3447 85.9859 104.458 54.4856 135.238 52.8934C128.733 20.3198 165.094 9.38507 191.901 20.0887C203.876 31.8898 209.2 52.7499 231.282 48.4252C245.955 45.2032 238.065 29.8246 243.928 18.5702C260.998 -9.35781 325.641 -1.70321 298.125 69.0801C322.038 71.0381 347.191 -4.82004 425.442 39.7484C439.065 45.349 441.199 74.4168 456.587 61.0463C483.061 23.5098 529.118 39.2377 508.557 88.1612C504.408 99.0164 523.43 98.6826 529.92 106.484C548.244 112.323 539.711 71.6507 564.158 77.9503C615.372 86.4576 596.623 142.371 569.422 160.843C561.891 153.739 561.324 139.756 549.838 133.084C538.538 144.772 498.546 144.874 535.531 167.624C541.499 173.618 557.751 163.402 558.12 173.389C540.542 189.445 506.906 168.68 509.587 142.998C498.563 146.591 485.493 148.863 470.219 143.66C469.819 149.766 469.431 155.677 469.041 161.589C469.465 179.109 485.168 193.844 500.953 203.362Z" fill="#070707"/>
<path fill-rule="evenodd" clip-rule="evenodd" d="M534.578 417.558L534.616 417.512C517.548 437.971 507.943 431.581 520.857 432.631C497.852 490.712 448.956 345.713 546.282 325.177C566.188 318.378 623.204 323.613 581.348 340.708C570.94 334.807 583.505 349.682 579.198 348.693C578.97 386.894 532.985 349.426 530.486 379.496C529.369 390.765 547.247 406.065 534.578 417.558Z" fill="#FEE967"/>
<path fill-rule="evenodd" clip-rule="evenodd" d="M539.469 410.871C595.431 401.304 491.024 487.709 520.856 432.631C488.52 419.071 503.78 374.876 510.242 398.635C509.176 412.528 518.51 418.18 526.406 428.351C528.732 425.61 529.846 420.134 534.617 417.512C534.816 417.286 534.626 417.5 535.343 416.681C536.344 415.501 537.009 414.429 539.469 410.871Z" fill="#FDEFC1"/>
<path fill-rule="evenodd" clip-rule="evenodd" d="M596.937 329.358C620.995 319.06 595.401 373.5 583.976 369.703C576.344 360.988 587.398 337.929 596.937 329.358Z" fill="#FDEFC2"/>
<path fill-rule="evenodd" clip-rule="evenodd" d="M583.592 343.084C579.903 347.101 581.879 350.821 567.64 345.972C504.199 353.229 564.037 322.297 583.592 343.084Z" fill="#FDEFC0"/>
<path fill-rule="evenodd" clip-rule="evenodd" d="M531.604 419.875C530.058 422.396 528.512 424.916 526.405 428.35C525.077 424.173 526.778 424.79 531.604 419.875Z" fill="#FEF9E2"/>
<path fill-rule="evenodd" clip-rule="evenodd" d="M534.616 417.512C534.094 417.824 533.572 418.139 533.049 418.451C533.571 418.138 534.094 417.824 534.616 417.512Z" fill="#FEF9E2"/>
<path fill-rule="evenodd" clip-rule="evenodd" d="M535.343 416.68C535.088 416.972 534.833 417.264 534.577 417.556C534.833 417.266 535.087 416.972 535.343 416.68Z" fill="#FEF9E2"/>
<path fill-rule="evenodd" clip-rule="evenodd" d="M588.165 342.598C584.714 348.473 583.111 361.551 583.924 367.498C587.572 373.417 597.739 364.995 602.64 354.904C607.541 344.814 609.315 330.442 604.167 327.735C598.656 326.98 592.493 335.231 588.165 342.598ZM543.409 437.147C546.777 432.288 549.097 425.729 550.806 421.043C553.328 403.394 534.88 414.658 525.549 428.37C518.89 438.154 519.901 448.475 522.693 453.662C528.953 452.227 537.321 445.927 543.409 437.147ZM512.675 447.8C518.278 407.962 543.992 413.534 537.61 402.68C509.147 363.785 540.784 350.06 575.035 361.467C576.344 348.843 581.659 337.425 593.027 327.744C499.347 309.463 460.707 411.879 512.675 447.8ZM611.764 351.065C587.106 411.539 561.619 344.176 536.096 375.11C534.51 394.093 555.866 400.644 561.859 413.41C548.498 475.192 486.974 467.423 479.709 412.603C476.958 288.632 645.698 301.141 611.764 351.065Z" fill="black"/>
</svg>
