<svg width="25" height="26" viewBox="0 0 25 26" fill="none" xmlns="http://www.w3.org/2000/svg">
<path d="M13.0884 7.02042H11.9141C11.8067 7.02042 11.7188 7.10831 11.7188 7.21573V13.9369C11.7188 14.0004 11.7481 14.059 11.7994 14.0956L15.835 17.0424C15.9229 17.1059 16.045 17.0888 16.1085 17.0009L16.8067 16.0487C16.8726 15.9584 16.8531 15.8363 16.7652 15.7753L13.2837 13.2582V7.21573C13.2837 7.10831 13.1959 7.02042 13.0884 7.02042ZM18.4546 8.85636L22.2828 9.79141C22.4048 9.82071 22.5245 9.72794 22.5245 9.60343L22.544 5.66056C22.544 5.49698 22.356 5.40421 22.2291 5.50675L18.3814 8.51212C18.3523 8.53461 18.3302 8.56486 18.3175 8.59938C18.3049 8.6339 18.3022 8.67129 18.3099 8.70725C18.3175 8.74321 18.3352 8.77628 18.3608 8.80266C18.3864 8.82903 18.4189 8.84765 18.4546 8.85636ZM22.5489 16.2074L21.1646 15.7314C21.1163 15.7148 21.0635 15.7178 21.0174 15.7397C20.9714 15.7616 20.9357 15.8007 20.918 15.8485C20.8716 15.9731 20.8228 16.0951 20.7715 16.2172C20.337 17.245 19.7144 18.1703 18.9185 18.9638C18.1315 19.7533 17.1987 20.3826 16.1719 20.8168C15.1083 21.2665 13.9649 21.4973 12.8101 21.4955C11.6431 21.4955 10.5127 21.2685 9.4483 20.8168C8.42154 20.3826 7.48878 19.7533 6.70171 18.9638C5.90826 18.1703 5.2857 17.245 4.84869 16.2172C4.40146 15.1529 4.17233 14.0098 4.17486 12.8554C4.17486 11.6884 4.40191 10.5556 4.85357 9.49112C5.28814 8.46329 5.9107 7.538 6.7066 6.74454C7.49366 5.95504 8.42642 5.32573 9.45318 4.89151C10.5127 4.43985 11.6456 4.2128 12.8126 4.2128C13.9795 4.2128 15.1099 4.43985 16.1744 4.89151C17.2011 5.32573 18.1339 5.95504 18.921 6.74454C19.17 6.99601 19.4044 7.25724 19.6192 7.53311L21.0792 6.39054C19.1578 3.93448 16.167 2.35489 12.8077 2.35733C6.95806 2.35977 2.2608 7.11075 2.31939 12.9628C2.37798 18.7123 7.05328 23.3534 12.8126 23.3534C17.3414 23.3534 21.1988 20.4823 22.6685 16.4613C22.7051 16.3588 22.6514 16.2441 22.5489 16.2074Z" fill="#363636"/>
</svg>
