<svg width="31" height="31" viewBox="0 0 31 31" fill="none" xmlns="http://www.w3.org/2000/svg">
<g clip-path="url(#clip0_204_856)">
<path fill-rule="evenodd" clip-rule="evenodd" d="M4.25 29.8838V4.57129C4.25 3.57673 4.64509 2.6229 5.34835 1.91964C6.05161 1.21638 7.00544 0.821289 8 0.821289L23 0.821289C23.9946 0.821289 24.9484 1.21638 25.6516 1.91964C26.3549 2.6229 26.75 3.57673 26.75 4.57129V29.8838C26.7501 30.0466 26.7078 30.2066 26.6273 30.3481C26.5468 30.4896 26.4308 30.6077 26.2908 30.6908C26.1508 30.7738 25.9916 30.819 25.8288 30.8218C25.666 30.8247 25.5053 30.7851 25.3625 30.7069L15.5 25.3257L5.6375 30.7069C5.49468 30.7851 5.33397 30.8247 5.1712 30.8218C5.00842 30.819 4.84919 30.7738 4.70917 30.6908C4.56916 30.6077 4.45318 30.4896 4.37267 30.3481C4.29216 30.2066 4.24988 30.0466 4.25 29.8838ZM20.8512 11.7975C21.0273 11.6215 21.1262 11.3827 21.1262 11.1338C21.1262 10.8848 21.0273 10.6461 20.8512 10.47C20.6752 10.294 20.4365 10.1951 20.1875 10.1951C19.9385 10.1951 19.6998 10.294 19.5238 10.47L14.5625 15.4332L12.4137 13.2825C12.3266 13.1954 12.2231 13.1262 12.1092 13.0791C11.9953 13.0319 11.8733 13.0076 11.75 13.0076C11.6267 13.0076 11.5047 13.0319 11.3908 13.0791C11.2769 13.1262 11.1734 13.1954 11.0863 13.2825C10.9991 13.3697 10.9299 13.4732 10.8828 13.5871C10.8356 13.701 10.8113 13.823 10.8113 13.9463C10.8113 14.0696 10.8356 14.1916 10.8828 14.3055C10.9299 14.4194 10.9991 14.5229 11.0863 14.61L13.8988 17.4225C13.9858 17.5098 14.0893 17.5791 14.2032 17.6264C14.3171 17.6736 14.4392 17.698 14.5625 17.698C14.6858 17.698 14.8079 17.6736 14.9218 17.6264C15.0357 17.5791 15.1392 17.5098 15.2262 17.4225L20.8512 11.7975Z" fill="#E0E0E0"/>
</g>
<defs>
<clipPath id="clip0_204_856">
<rect width="30" height="30" fill="white" transform="translate(0.5 0.821289)"/>
</clipPath>
</defs>
</svg>
