<svg width="1154" height="1357" viewBox="0 0 1154 1357" fill="none" xmlns="http://www.w3.org/2000/svg">
<path fill-rule="evenodd" clip-rule="evenodd" d="M163.223 288.702L236.642 326.924L326.676 245.318L414.5 313.804L523.1 245.318L612.614 313.804L706.733 249.192C752.324 288.814 775.119 308.624 775.119 308.624C775.119 308.624 825.302 277.815 925.668 216.197L973.193 288.702L1068.43 216.197L1091.07 477.976V1112.45L1138.81 1259.35L1019.89 1261.87L286.487 1266.17L103.267 1259.35L193.512 1122.21L163.223 288.702Z" fill="white"/>
<path fill-rule="evenodd" clip-rule="evenodd" d="M1051.14 218.452L992.725 290.002L914.437 212.016L774.322 309.41L712.063 249.978L605.46 314.589L522.303 244.848L420.408 314.589L325.879 236.913L238.891 333.715L163.81 278.354L197.788 229.127L186.923 194.848L222.008 167.042L230.479 152.444L191.931 134.275L197.788 107.031L260.243 108.056L277.63 74.511L281.315 55.1419L313.54 13.6021L363.136 65.1285C386.419 84.0829 398.06 93.0447 398.06 92.014C398.06 90.9832 411.887 82.5435 439.54 66.6948L498.739 38.2704L522.303 55.1419L561.955 43.5889L597.402 60.0757L634.697 68.0128L688.329 94.347L738.705 49.53L766.954 60.0757L809.803 51.9556L823.31 60.0757L874.091 55.1419L896.338 38.2704L931.78 60.0757L947.345 51.9556L1009.74 92.014L998.339 137.594L1009.74 167.042L1045.47 173.659L1051.14 218.452Z" fill="#FEE967"/>
<path fill-rule="evenodd" clip-rule="evenodd" d="M605.415 300.721C625.878 338.978 619.606 445.122 640.875 887.008C625.564 995.376 701.612 1199.65 631.843 1259.35C606.371 1281.14 537.39 1272.21 463.623 1259.35C470.046 1244.14 491.845 1153.7 485.31 1057.49C474.988 905.527 469.836 689.049 467.832 516.694C466.582 409.248 456.638 314.358 473.509 268.491C482.418 244.269 505.478 237.001 526.685 241.611C564.009 279.808 592.491 276.56 605.415 300.721Z" fill="#FE7A8E"/>
<path fill-rule="evenodd" clip-rule="evenodd" d="M944.82 791.325C949.887 942.664 963.229 1118.28 1019.89 1254.7C1011.9 1260.82 986.763 1258.62 954.81 1259.35C811.14 1261.56 825.015 1293.24 800.06 709.868C814.456 589.804 738.415 404.828 782.562 295.323C798.243 256.427 846.89 243.173 898.875 220.34C899.818 220.037 898.806 220.333 901.543 219.452C902.159 219.296 906.144 210.503 908.509 209.84C940.448 384.658 938.166 592.575 944.82 791.325Z" fill="#FE7A95"/>
<path fill-rule="evenodd" clip-rule="evenodd" d="M172.3 280.751C237.119 334.879 247.689 332.124 322.142 241.945C287.184 312.621 357 892.649 332.911 1136C325.863 1207.2 287.384 1243.66 258.81 1251.69C204.8 1272.22 250.588 1158.27 160.183 1229.58C150.716 1230.04 138.244 1234.57 121.289 1229.58C223.28 1034.35 208.911 1316.17 172.3 280.751Z" fill="#FE7A95"/>
<path fill-rule="evenodd" clip-rule="evenodd" d="M1091.07 477.976C1100.15 684.943 1083.71 898.645 1103.82 1106.21C1107.96 1148.97 1132.98 1210.37 1138.81 1252.4C1139.9 1260.26 1103.65 1274.83 1091.07 1260.3C1041.07 1202.59 1013.97 840.838 1010.54 565.785C1009.05 446.018 991.828 326.364 1002.5 261.057C1007.22 232.143 1026.46 226.527 1039.54 214.728C1068.33 205.001 1073.25 154.893 1091.07 477.976Z" fill="#FE7A8E"/>
<path fill-rule="evenodd" clip-rule="evenodd" d="M660.926 197.136C660.812 197.62 660.696 198.102 660.582 198.585C660.97 197.74 663.214 201.184 665.333 198.165C663.863 197.821 662.394 197.48 660.926 197.136ZM930.489 141.596C964.574 186.461 734.517 304.539 786.328 170.582C781.308 168.513 775.498 206.12 715.23 166.181C718.994 172.037 746.564 197.269 710.133 217.436C673.807 237.545 573.506 252.577 559.507 266.211C509.731 258.575 647.387 177.589 691.197 129.671C690.71 129.279 690.221 128.886 689.734 128.495C692.392 125.221 695.05 121.948 697.707 118.675C698.219 119.159 698.73 119.641 699.242 120.123C722.66 100.051 713.256 138.928 787.518 151.11C828.584 78.6643 796.037 195.47 812.471 206.954C864.739 165.374 894.271 211.29 919.004 112.491C926.586 94.6098 1036.76 163.615 1015.27 212.601C978.968 244.543 1030.23 203.146 930.489 141.596Z" fill="#FDEFC1"/>
<path fill-rule="evenodd" clip-rule="evenodd" d="M623.506 75.8814C633.322 93.4372 620.28 100.665 553.526 83.9966C572.915 89.7085 459.95 225.14 408.901 119.833C394.236 100.849 307.041 139.258 336.593 83.7019C298.521 55.9711 341.3 157.183 213.869 128.938C211.936 124.104 208.2 118.978 220.74 106.009C274.643 150.809 325.997 -18.0184 360.073 90.8857C393.902 84.7277 428.541 100.901 451.835 135.887C574.429 121.512 474.314 26.2099 623.506 75.8814Z" fill="#FDEFC0"/>
<path fill-rule="evenodd" clip-rule="evenodd" d="M150.281 1229.46C225.744 1171.13 262.045 1235.26 172.114 1311.55C158.653 1316.62 170.849 1258.83 138.513 1283.85C116.577 1270.59 55.1545 1311.9 50.5372 1242.92C11.7924 1246.36 42.3537 1179.83 69.5803 1220.12C22.8493 1233.01 119.392 1317.61 80.9176 1222.24C105.144 1202.16 89.885 1222.99 150.281 1229.46Z" fill="#FDEFC1"/>
<path fill-rule="evenodd" clip-rule="evenodd" d="M952.673 160.872C954.855 155.361 964.319 106.293 991.339 138.442C994.539 179.02 1103.28 183.64 991.339 268.302C979.902 275.567 967.957 209.207 907.435 219.064L907.497 219.025L904.649 220.035C863.393 218.291 827.612 285.795 787.65 291.536C781.905 292.362 775.514 285.17 769.594 283.379C773.557 271.157 701.65 243.235 804.442 208.338C780.465 257.834 929.432 209.531 952.673 160.872Z" fill="#FEE967"/>
<path fill-rule="evenodd" clip-rule="evenodd" d="M776.353 55.3996C786.782 59.9115 812.485 76.1696 904.045 53.6021C915.451 95.3293 872.667 91.3059 755.308 82.0346C736.358 83.3844 732.541 159.743 709.285 114.749C690.717 98.3383 540.398 218.046 572.216 128.103C614.682 145.46 523.915 153.486 776.353 55.3996Z" fill="#FDEFC0"/>
<path fill-rule="evenodd" clip-rule="evenodd" d="M303.023 190.754C227.817 201.381 344.547 96.6668 393.35 136.662C404.886 152.817 365.896 152.604 384.946 222.322C375.687 227.987 538.375 189.863 499.666 237.519C467.148 221.35 326.001 309.235 359.129 163.236C348.211 166.888 311.19 137.546 303.023 190.754Z" fill="#FDEFC0"/>
<path fill-rule="evenodd" clip-rule="evenodd" d="M245.406 170.921C281.664 209.41 224.485 170.846 220.173 217.406C186.811 375.98 156.214 143.22 245.406 170.921Z" fill="#FDEFC1"/>
<path fill-rule="evenodd" clip-rule="evenodd" d="M589.559 265.682C588.128 261.224 647.246 207.887 696.162 224.036C668.924 231.038 622.159 315.99 589.559 265.682Z" fill="#FEE74D"/>
<path fill-rule="evenodd" clip-rule="evenodd" d="M303.023 190.754C306.549 191.316 288.134 149.627 359.129 163.236C348.788 178.185 355.94 175.225 360.115 232.03C357.93 235.812 346.972 198.229 308.897 223.262C306.651 217.716 311.476 214.123 303.023 190.754Z" fill="#FEE74D"/>
<path fill-rule="evenodd" clip-rule="evenodd" d="M785.998 217.667C785.946 195.259 720.522 287.307 737.096 217.284C731.667 186.663 839.917 185.854 785.998 217.667Z" fill="#FDEFC1"/>
<path fill-rule="evenodd" clip-rule="evenodd" d="M264.742 83.9124C282.294 36.6647 307.595 -52.9372 363.932 66.7935C360.772 77.2087 330.408 22.5014 264.742 83.9124Z" fill="#FEEA6A"/>
<path fill-rule="evenodd" clip-rule="evenodd" d="M80.9175 1222.24C98.7008 1231.21 89.7073 1290.16 68.3954 1255.18C55.9466 1248.85 44.7479 1216.2 80.9175 1222.24Z" fill="#FEE968"/>
<path fill-rule="evenodd" clip-rule="evenodd" d="M619.724 282.317C632.42 279.414 691.806 206.431 706.733 233.385C695.812 236.371 693.362 238.136 619.724 282.317Z" fill="#FEEA6A"/>
<path fill-rule="evenodd" clip-rule="evenodd" d="M357.497 65.9096C357.821 60.8962 358.475 57.9181 346.911 44.542C355.401 36.9413 387.918 56.1449 357.497 65.9096Z" fill="#FEEA6C"/>
<path fill-rule="evenodd" clip-rule="evenodd" d="M589.559 265.682C591.71 269.696 584.58 268.839 612.615 286.037C608.258 290.244 597.565 302.108 583.784 268.362C585.707 267.468 587.634 266.574 589.559 265.682Z" fill="#FEEA6D"/>
<path fill-rule="evenodd" clip-rule="evenodd" d="M389.731 73.6963C384.153 73.2193 390.2 74.4844 369.664 72.8855C372.192 74.1913 370.381 58.9623 389.731 73.6963Z" fill="#FEEB74"/>
<path fill-rule="evenodd" clip-rule="evenodd" d="M233.89 166.222C228.256 162.029 233.178 171.232 211.721 161.871C213.957 158.665 229.81 156.075 233.89 166.222Z" fill="#FEEB74"/>
<path fill-rule="evenodd" clip-rule="evenodd" d="M267.579 91.6651C263.384 94.6448 258.938 93.4708 254.501 92.4548C258.411 89.0371 262.559 88.7863 267.579 91.6651Z" fill="#FEED88"/>
<path fill-rule="evenodd" clip-rule="evenodd" d="M733.565 224.811C731.994 226.682 734.929 225.724 729.994 231.871C731.756 230.937 727.504 228.849 733.565 224.811Z" fill="#FDEFBC"/>
<path fill-rule="evenodd" clip-rule="evenodd" d="M233.596 131.653C235.41 132.025 233.596 131.653 239.018 132.821C239.877 134.11 241.197 138.332 233.596 131.653Z" fill="#FEEB74"/>
<path fill-rule="evenodd" clip-rule="evenodd" d="M229.18 129.869C229.879 130.275 230.577 130.678 231.276 131.081C230.577 130.675 229.878 130.273 229.18 129.869Z" fill="#FEEB74"/>
<path fill-rule="evenodd" clip-rule="evenodd" d="M235.618 160.619C235.088 161.293 234.557 161.967 234.027 162.64C234.558 161.967 235.088 161.293 235.618 160.619Z" fill="#FEEB74"/>
<path fill-rule="evenodd" clip-rule="evenodd" d="M234.479 154.589C234.836 155.302 235.193 156.015 235.548 156.732C235.191 156.018 234.836 155.304 234.479 154.589Z" fill="#FEEB74"/>
<path fill-rule="evenodd" clip-rule="evenodd" d="M492.165 161.701C510.115 160.928 532.099 172.031 559.584 179.194C591.076 208.833 519.333 304.336 531.445 206.973C528.76 207.965 528.76 207.32 531.445 205.038C478.613 228.341 423.408 164.663 492.165 161.701Z" fill="#FDEFBF"/>
<path fill-rule="evenodd" clip-rule="evenodd" d="M323.659 108.995C323.381 107.279 323.104 105.565 322.768 103.495H330.409C327.61 104.957 331.58 105.296 323.659 108.995Z" fill="#FEF9D8"/>
<path fill-rule="evenodd" clip-rule="evenodd" d="M725.549 118.986L723.515 122.25C723.004 121.769 722.492 121.287 721.98 120.805C723.17 120.197 724.36 119.592 725.549 118.986Z" fill="#FDEFC1"/>
<path fill-rule="evenodd" clip-rule="evenodd" d="M836.705 133.276C834.775 133.364 832.842 133.457 833.119 130.596C834.314 131.49 835.51 132.384 836.705 133.276Z" fill="#FDEFC1"/>
<path fill-rule="evenodd" clip-rule="evenodd" d="M771.988 145.598C769.816 146.881 768.864 146.295 769.183 143.767C770.119 144.377 771.054 144.988 771.988 145.598Z" fill="#FDEFC1"/>
<path fill-rule="evenodd" clip-rule="evenodd" d="M676.931 188.359C677.294 189.343 677.656 190.326 678.019 191.31C677.93 190.685 676.17 191.487 676.931 188.359Z" fill="#FDEFBC"/>
<path fill-rule="evenodd" clip-rule="evenodd" d="M714.006 130.623C714.493 131.015 714.982 131.406 715.47 131.799C714.601 132.559 713.731 133.318 712.86 134.078C713.24 132.925 713.623 131.774 714.006 130.623Z" fill="#FDEFC1"/>
<path fill-rule="evenodd" clip-rule="evenodd" d="M606.421 219.654C605.751 220.137 605.08 220.621 604.408 221.103C605.078 220.619 605.75 220.136 606.421 219.654Z" fill="#FDEFBC"/>
<path fill-rule="evenodd" clip-rule="evenodd" d="M833.996 161.701C834.203 161.112 834.41 160.521 834.614 159.931C834.405 160.521 834.201 161.112 833.996 161.701Z" fill="#FDEFBC"/>
<path fill-rule="evenodd" clip-rule="evenodd" d="M839.375 143.071C839.571 142.473 839.767 141.877 839.961 141.28C839.763 141.877 839.569 142.473 839.375 143.071Z" fill="#FDEFBC"/>
<path fill-rule="evenodd" clip-rule="evenodd" d="M839.959 139.505C839.739 138.919 839.52 138.333 839.3 137.747C839.519 138.333 839.739 138.919 839.959 139.505Z" fill="#FDEFBC"/>
<path fill-rule="evenodd" clip-rule="evenodd" d="M733.565 224.811C727.484 230.25 740.657 210.105 697.87 200.808C700.544 184.297 707.378 177.81 732.902 142.264C748.151 142.646 735.55 171.645 810.6 172.71C809.846 182.957 813.192 178.842 803.8 205.24C805.805 204.99 762.836 162.234 733.565 224.811Z" fill="#FEE967"/>
<path fill-rule="evenodd" clip-rule="evenodd" d="M801.218 202.345C801.293 202.841 807.17 206.84 801.193 209.84C801.202 207.342 801.21 204.844 801.218 202.345Z" fill="#FDEFBC"/>
<path fill-rule="evenodd" clip-rule="evenodd" d="M685.199 199.264C686.667 199.608 688.136 199.95 689.606 200.293C688.553 202.107 689.77 201.749 684.855 200.713C684.969 200.23 685.085 199.748 685.199 199.264Z" fill="#FDEFBC"/>
<path fill-rule="evenodd" clip-rule="evenodd" d="M732.902 142.264C732.537 143.419 732.172 144.575 731.805 145.729L730.187 143.816C731.093 143.298 731.997 142.782 732.902 142.264Z" fill="#FDEFC1"/>
<path fill-rule="evenodd" clip-rule="evenodd" d="M286.898 263.6C250.986 266.582 256.601 259.511 242.932 286.664C238.993 299.364 219.689 304.253 226.562 310.644C244.585 327.656 278.953 270.772 286.898 263.6ZM990.526 121.086C1012.36 85.6618 987.513 91.5573 972.814 84.6946C963.059 79.2778 956.398 58.2876 943.797 66.0425C937.136 73.3155 942.282 81.2088 942.983 92.4707C944.563 114.255 922.781 108.72 915.234 120.946C928.255 157.148 935.686 76.8258 990.526 121.086ZM579.284 157.336C577.736 168.501 591.635 174.574 598.391 163.602C603.379 154.906 604.949 132.828 619.477 134.406C632.332 138.263 642.259 153.186 655.411 139.283C614.308 119.89 652.846 106.072 639.13 81.7786C627.772 74.0319 624.584 99.1771 620.574 105.499C613.515 112.134 600.444 103.697 592.328 111.512C597.681 163.074 590.256 131.787 579.284 157.336ZM760.492 211.23C740.568 239.539 740.383 253.865 763.45 274.515C780.675 298.454 784.424 288.484 801.377 277.345C759.229 221.844 807.317 218.821 760.492 211.23ZM306.525 107.271C312.441 106.88 314.137 104.425 316.713 97.3975C322.663 75.9042 354.466 90.1457 358.033 65.6403C323.344 66.0213 329.501 19.8094 306.761 26.3611C302.164 32.5806 306.292 39.5166 307.232 47.3643C305.858 67.5095 260.13 50.4269 295.509 83.4605C302.312 90.5642 293.901 104.701 306.525 107.271ZM736.618 204.198C740.858 163.958 756.675 186.531 779.39 191.599C788.588 192.93 796.273 185.497 805.66 189.776C793.615 129.264 772.011 206.951 744.737 144.433C740.728 137.727 734.018 130.389 725.288 132.72C715.933 143.453 730.174 167.9 716.149 175.582C658.463 217.161 717.166 189.554 736.618 204.198ZM557.891 252.458C560.807 241.022 554.153 231.733 554.834 220.143C562.153 206.088 571.149 191.723 546.54 189.574C484.432 203.43 514.367 181.453 480.403 182.636C446.698 216.001 484.8 203.815 496.19 210.206C506.973 214.755 509.084 223.044 516.998 231.908C533.555 233.599 544.346 240.806 557.891 252.458ZM502.428 116.092C507.398 116.996 520.45 112.919 523.1 104.332C489.198 90.3785 512.832 83.8089 508.103 59.6992C502.512 48.4779 486.013 55.1371 481.102 64.486C483.26 71.3926 487.444 79.5383 480.287 85.0724C468.358 94.5873 455.987 68.6882 441.114 79.2273C436.567 88.9914 453.353 97.251 455.844 108.179C458.559 119.928 447.06 124.469 451.722 138.224C476.366 135.114 470.881 107.74 502.428 116.092ZM384.74 267.289C427.376 315.084 420.875 303.354 463.025 270.615C515.74 232.985 483.115 225.478 471.509 235.175C461.979 242.128 456.15 258.025 441.259 252.141C406.401 234.376 397.733 234.441 384.74 267.289ZM619.621 221.038C629.193 187.671 641.867 173.639 674.646 178.377C709.742 151.835 694.154 160.209 700.509 128.8C702.749 121.711 706.61 117.031 713.681 112.066C712.65 107.616 703.272 100.458 701.758 91.2284C690.422 120.848 667.913 86.3619 662.689 110.789C701.452 151.413 665.45 171.239 623.687 168.17C591.57 216.237 586.325 168.988 584.58 218.729C596.052 213.309 607.857 215.279 619.621 221.038ZM211.664 181.633C174.595 191.143 223.08 229.483 201.59 239.609C191.202 245.584 173.452 264.824 183.508 274.378C223.012 322.472 218.425 249.096 248.992 242.507C260.341 239.56 277.459 246.19 284.293 234.099C293.279 217.741 267.752 208.143 255.285 208.853C245.801 212.827 237.457 222.282 229.88 209.465C230.424 191.505 227.845 185.02 211.664 181.633ZM825.878 127.878C821.248 115.307 810.163 108.702 800.015 100.087C788.951 89.0842 814.574 64.1831 800.103 59.6194C782.41 56.3908 773.754 78.1169 756.419 72.2718C739.633 54.7512 727.983 54.6942 724.394 79.3917C723.664 90.1083 734.88 96.7609 726.148 108.088C769.863 112.484 762.086 143.128 775.992 143.999C785.253 140.877 792.496 140.713 803.611 142.629C810.011 139.09 815.354 129.534 825.878 127.878ZM723.703 236.479C727.95 216.341 708.757 222.331 696.72 227.442C676.432 234.225 676.7 216.92 667.4 203.4C647.207 190.461 643.45 226.728 641.681 242.097C640.217 246.584 637.933 248.599 634.13 250.469C619.526 255.915 606.129 231.575 591.13 242.079C575.032 258.603 573.358 272.302 593.149 284.989C612.389 303.691 609.983 301.163 629.343 287.447C663.497 264.542 696.319 225.989 723.703 236.479ZM819.547 263.128C862.925 224.539 974.011 177.584 868.731 183.227C854.049 175.608 847.907 151.563 829.52 151.659C821.297 156.732 820.901 168.748 827.535 177.355C859.762 221.909 773.201 200.958 819.547 263.128ZM269.202 185.564C272.875 131.419 312.202 128.282 347.526 142.574C355.394 129.882 369.505 124.203 382.865 119.282C388.071 100.768 398.666 91.7332 378.354 87.8158C365.926 96.1064 349.903 103.897 336.623 110.892C321.795 143.824 284.445 132.825 274.182 105.252C236.854 143.675 222.891 94.4082 198.585 115.369C199.544 137.23 236.877 123.267 241.762 140.649C244.416 149.914 236.999 155.664 237.144 165.832C243.592 177.654 253.179 187.469 269.202 185.564ZM366.182 249.694C389.382 224.161 359.001 200.561 366.97 187.732C376.695 175.826 406.554 163.96 387.423 146.011C366.299 138.419 363.969 178.937 349.2 175.923C324.817 163.3 304.145 140.379 293.362 180.391C293.101 200.39 314.596 213.526 308.97 236.211C330.639 219.592 349.235 234.837 366.182 249.694ZM925.668 168.672C925.586 156.828 914.916 154.559 905.912 148.253C880.993 123.446 889.407 102.357 917.821 90.4046C918.541 79.8997 916.824 69.4698 914.851 57.1463C906.613 27.3819 889.949 87.3372 874.237 73.5988C851.509 53.6376 818.554 72.039 824.905 89.1688C848.416 103.331 843.537 133.075 866.392 148.499C880.742 169.539 906.758 149.77 925.668 168.672ZM978.255 271.757C999.426 247.696 1071.07 203 1020.9 174.323C1011.68 176.386 1001.4 179.263 995.747 168.149C987.982 153.377 967.883 122.344 952.324 134.603C935.848 152.288 954.564 162.714 956.478 179.312C917.151 230.843 927.698 188.859 978.255 271.757ZM555.614 166.944C554.585 142.403 560.201 141.4 569.247 126.776C566.806 114.729 567.698 103.148 575.026 95.3233C581.447 85.6895 595.876 87.9966 603.72 79.8574C615.025 53.0987 585.298 71.8029 578.385 68.895C566.04 60.4856 554.503 39.3098 540 59.9076C525.599 72.5698 532.583 80.831 544.478 92.9006C555.81 116.945 529.494 139.35 505.813 139.542C498.836 140.555 491.658 135.807 487.387 144.419C466.141 172.228 427.723 168.764 426.094 132.243C429.194 115.56 431.951 109.83 418.283 96.0494C393.039 135.239 419.992 137.579 417.337 160.415C417.214 177.638 401.817 185.732 392.815 199.022C396.513 227.606 407.385 214.065 421.753 218.2C426.871 216.253 444.713 233.73 448.671 223.033C430.903 176.363 478.365 137.857 515.59 170.059C527.969 171.028 541.435 162.615 555.614 166.944ZM348.906 1152C337.662 1189.04 318.034 1220.55 296.056 1252.59C494.432 1247.95 435.693 1290.32 475.273 1154.61C432.751 1153.73 390.645 1152.86 348.906 1152ZM474.767 1254.27C674.469 1247.63 619.362 1286.29 641.453 1158.29C455.305 1158.97 515.002 1124.72 474.767 1254.27ZM653.482 1253.59C717.622 1255.44 781.374 1255.31 845.364 1250.57C836.406 1220.96 821.411 1189.17 807.893 1162.22C777.891 1160.78 746.76 1161.19 716.297 1160.18C699.948 1162.79 667.71 1153.06 664.988 1162.97C661.124 1193.41 657.406 1222.69 653.482 1253.59ZM1129.04 1251.06C1058.83 1131.52 1096.66 1047.54 1090.12 940.826C1075.74 539.597 1080.05 322.467 1058.15 230.222C978.126 300.012 978.142 334.711 934.759 255.482C935.74 474.555 960.63 694.058 966.566 914.061C975.573 1142.01 968.728 1126.71 1015.55 1208.21C1025.99 1222.07 1025.15 1235.87 1034.61 1247.75C1064.14 1257.44 1098.28 1261.12 1129.04 1251.06ZM339.312 258.933C323.458 473.472 341.643 690.002 344.9 905.559C347.045 978.766 352.087 1053.82 350.012 1128.13C390.262 1129.87 433.69 1130.08 474.7 1131.36C485.948 1117.61 474.175 1082.64 477.054 1062.11C469.207 810.847 463.575 561.168 454.817 309.673C402.095 353.59 376.485 285.347 339.312 258.933ZM640.875 1134.55C629.162 866.016 615.607 596.532 602.745 327.191C581.589 305.932 523.542 251.437 517.252 257.642C502.863 267.379 488.165 279.409 478.678 292.325C478.245 321.321 480.115 348.109 480.618 377.517C483.774 480.742 486.448 581.048 489.744 684.449C494.711 833.591 497.479 981.872 503.42 1130.7C547.695 1134.93 595.506 1132.64 640.875 1134.55ZM324.703 1150.88C289.965 1147.47 219.725 1159.51 230.587 1133.45C239.381 1118.41 261.545 1128.93 276.85 1126.59C325.153 1125.44 327.945 1137.43 326.368 1108.34C326.686 960.494 315.558 817.251 314.914 669.659C315.346 535.682 300.676 402.9 314.838 269.692C239.675 354.798 242.912 359.021 172.298 297.177C208.993 1315.81 232.964 1053.18 130.607 1232.84C118.286 1252.09 265.641 1250.14 266.812 1251.69C291.127 1222.74 310.977 1187.32 324.703 1150.88ZM1005.82 1248.85C999.484 1215.03 966.573 1183.51 957.38 1147.48C940.401 1057.37 947.736 965.768 940.337 873.904C937.436 740.373 925.65 612.046 916.845 479.785C911.45 395.99 916.273 316.936 906.787 233.516C873.951 251.662 844.478 274.883 813.694 298.784C804.834 309.154 787.952 306.365 788.461 320.948C793.501 425.684 799.385 526.295 804.467 631.083C843.217 1268.45 805.885 1119.19 890.531 1140.04C936.836 1169.43 850.204 1163.26 834.443 1162.48C848.005 1191.36 861.43 1219.51 870.054 1250.33C915.175 1249.84 960.498 1249.35 1005.82 1248.85ZM806.958 1138.27C794.693 865.464 778.144 592.474 764.517 318.477C763.041 305.168 750.952 299.478 742.439 288.115C705.515 244.781 712.582 258.25 674.905 283.356C647.707 308.149 622.621 310.131 626.51 333.767C632.343 452.44 637.63 566.515 643.488 685.049C650.931 834.99 656.543 983.373 665.297 1133.92C710.263 1139.85 760.065 1136.22 806.958 1138.27ZM180.708 224.978C161.157 179.225 183.822 167.535 214.471 153.88C183.589 149.707 161.488 118.331 183.79 95.8264C216.014 67.7814 240.252 108.275 252.747 91.1959C269.436 83.0991 252.687 64.7774 262.327 52.1543C265.61 43.1636 276.787 41.485 281.452 34.2755C277.013 13.1014 304.912 -8.51728 322.804 3.54573C358.243 26.5858 337.286 35.0505 371.968 46.0569C389.027 68.7827 404.889 87.3404 428.82 58.7402C436.963 53.0124 445.325 53.0156 456.482 53.6913C465.701 48.2386 472.144 33.6406 485.868 32.1068C499.456 27.224 511.917 34.3065 523.863 39.1014C535.17 33.8587 546.708 25.9736 561.115 28.0137C568.777 29.0768 574.32 32.4797 580.814 38.4664C589.022 48.2419 605.257 35.3371 614.465 44.4336C623.667 55.6321 632.246 56.5536 645.886 58.0059C657.286 59.9727 657.98 75.0674 668.096 77.8955C684.766 81.0183 679.165 66.9819 688.46 59.8978C714.945 47.4848 741.679 20.0259 764.748 47.1347C814.225 18.9481 810.853 49.8228 829.442 45.7964C882.29 27.6636 853.412 64.797 897.598 27.789C912.823 20.4183 926.515 27.4129 934.916 42.3821C945.228 40.3502 959.531 38.3834 969.414 47.138C990.459 73.081 1000.22 60.5214 1012.13 74.4324C1041.97 117.269 998.873 130.719 1010.37 146.613C1013.23 150.768 1015.16 151.415 1021.9 150.557C1056.05 151.504 1055.19 183.42 1063.44 202.179C1111.19 207.713 1099.38 570.492 1102.35 574.757C1105.98 747.453 1121.63 916.876 1111.04 1089.6C1099.82 1188.04 1175.09 1248.88 1149.73 1268.12C1127.71 1281.89 1097.77 1281.95 1074.32 1281.21C1022.25 1267.62 969.769 1274.83 915.415 1274.34C494.276 1282.39 177.798 1280.17 130.96 1265.02C83.0175 1251.49 108.642 1222.14 124.136 1197.36C142.331 1170.09 160.477 1143.41 180.405 1116.5C183.296 1103.62 179.471 1090.03 179.852 1075.82C146.341 193.083 131.92 285.767 180.708 224.978Z" fill="black"/>
<path fill-rule="evenodd" clip-rule="evenodd" d="M1023.24 526.303C1044.16 1069.91 1062.23 1163.25 1023.61 1108.57C1014.68 857.515 998.343 605.827 993.522 353.99C1021.93 327.087 1016.38 387.517 1017.98 402.602C1019.8 444.377 1021.52 484.259 1023.24 526.303Z" fill="black"/>
<path fill-rule="evenodd" clip-rule="evenodd" d="M1076.42 1217.9C1061.74 1266.15 1034.39 1177.6 1034.89 1163.11C1043.48 1141.61 1059.82 1162.1 1062.4 1177.53C1067.26 1191.39 1072.59 1203.32 1076.42 1217.9Z" fill="black"/>
<path fill-rule="evenodd" clip-rule="evenodd" d="M279.817 1251.97H281.595C282.781 1251.97 283.966 1251.97 285.152 1251.98C288.674 1252.88 292.149 1254.17 295.728 1254.6C304.386 1255.63 311.311 1258.64 313.622 1267.96C313.62 1268.84 313.62 1269.73 313.619 1270.61C313.606 1273.05 313.43 1275.51 313.607 1277.93C314.189 1285.87 305.502 1292.94 298.342 1290.47C293.934 1288.95 289.431 1287.44 284.844 1286.78C280.227 1286.11 275.147 1284.2 270.923 1288C263.171 1294.97 254.04 1299.15 244.073 1301.86C241.291 1302.61 238.454 1303.6 236.016 1305.08C232.261 1307.38 229.133 1310.91 225.169 1312.59C221.797 1314.01 217.366 1314.54 213.873 1313.65C209.733 1312.59 207.533 1314.05 205.696 1316.87C204.031 1319.43 203.108 1322.46 201.539 1325.09C196.625 1333.34 189.988 1336.44 182.167 1331.17C176.935 1327.64 176.624 1322.22 178.573 1316.21C177.141 1316.05 176.027 1315.93 174.914 1315.82C174.624 1315.79 174.334 1315.77 174.044 1315.75C168.203 1312.34 163.683 1307.99 163.268 1300.73C163.269 1299.84 163.269 1298.95 163.269 1298.07C163.289 1296.3 163.307 1294.53 163.326 1292.75C163.359 1292.46 163.388 1292.18 163.411 1291.89C164.272 1288.68 165.333 1285.52 165.937 1282.26C166.529 1279.08 163.63 1275.8 160.771 1276.98C152.343 1280.47 143.751 1281.95 134.712 1281.2C134.573 1281.19 134.42 1281.25 134.287 1281.31C125.706 1285 118.68 1282.33 112.364 1276.2C111.328 1275.19 109.633 1274.85 108.241 1274.2C107.059 1274.18 105.878 1274.16 104.698 1274.14C102.97 1272.87 101.335 1271.44 99.4887 1270.38C97.8393 1269.43 95.9553 1268.89 94.1755 1268.17C93.5301 1269.99 92.6533 1271.77 92.2931 1273.64C91.6428 1277.03 92.2475 1281.01 90.6568 1283.8C85.417 1292.98 76.1809 1296.57 66.4575 1299.08C65.2726 1299.07 64.0878 1299.06 62.9029 1299.04C54.9152 1297.15 50.8798 1289.92 52.5618 1282.04C53.9406 1275.58 57.4219 1270.52 61.247 1265.48C63.6999 1262.25 63.136 1260.02 59.3434 1258.75C54.1313 1257 48.8344 1255.49 43.5457 1253.99C38.8975 1252.67 33.8924 1252.14 29.6223 1250.08C24.4265 1247.58 18.6733 1244.74 15.2426 1240.41C9.51221 1233.18 14.4081 1223.74 24.6775 1220.09C27.0489 1220.1 29.4202 1220.1 31.7916 1220.11C42.9655 1223.18 54.1704 1226.16 65.3069 1229.37C77.0903 1232.77 88.5967 1232.51 99.8489 1227.41C106.694 1224.3 114.722 1227.82 117.18 1234.75C117.694 1236.2 119.367 1237.79 120.846 1238.26C130.981 1241.52 141.011 1240.15 150.93 1237.02C151.224 1237.01 151.515 1236.98 151.807 1236.95C153.002 1236.68 154.198 1236.41 155.393 1236.14C155.974 1236.12 156.556 1236.1 157.136 1236.07C158.336 1235.8 159.535 1235.53 160.733 1235.27C161.314 1235.24 161.892 1235.22 162.471 1235.19C163.952 1235.18 165.434 1235.17 166.915 1235.15C168.693 1235.15 170.471 1235.15 172.25 1235.15C175.512 1230.45 178.77 1225.74 182.04 1221.05C185.262 1216.42 188.632 1211.95 194.332 1210.06C197.068 1209.15 199.927 1208.48 202.494 1207.23C210.188 1203.47 219.258 1208.72 219.291 1217.28C219.302 1219.91 218.575 1222.55 218.186 1225.2C218.66 1225.25 218.971 1225.37 219.234 1225.31C219.647 1225.2 220.169 1225.07 220.402 1224.76C223.561 1220.63 228.088 1220.51 232.507 1221.15C235.711 1221.61 237.209 1220.26 238.304 1217.79C239.851 1214.3 241.308 1210.76 242.799 1207.24C244.717 1202.72 249.404 1200.13 254.719 1200.67C259.592 1201.17 264.444 1204.34 264.49 1208.25C264.591 1216.7 266.286 1225.41 262.325 1233.49C261.066 1236.06 261.773 1237.19 263.828 1238.92C265.962 1240.7 268.025 1243.21 268.825 1245.79C270.059 1249.78 272.254 1251.73 276.26 1251.99C277.445 1251.98 278.63 1251.97 279.817 1251.97Z" fill="#FDEFC2"/>
<path fill-rule="evenodd" clip-rule="evenodd" d="M854.156 1320.2C854.156 1321.09 854.156 1321.98 854.154 1322.87C853.846 1323.76 853.538 1324.64 853.23 1325.53C852.687 1332.79 848.168 1337.25 840.892 1336.98C833.728 1336.72 826.583 1335.88 819.431 1335.3C817.948 1335 816.465 1334.71 814.983 1334.41C813.476 1333.97 811.859 1333.75 810.485 1333.05C808.273 1331.92 806.37 1330.09 804.078 1329.24C793.185 1325.25 790.28 1319.48 792.702 1308.68C785.102 1306.34 777.439 1303.96 769.761 1301.63C762.407 1299.39 756.353 1295.18 757.159 1286.56C757.194 1285.98 757.228 1285.4 757.261 1284.82C759.479 1280.57 763.216 1278.52 767.416 1276.31C773.169 1273.28 780.987 1272.94 783.779 1265.17C784.429 1263.36 786.736 1261.79 788.644 1260.84C801.676 1254.35 814.597 1247.56 827.963 1241.81C842.015 1235.76 850.337 1237.51 859.752 1247.5C860.634 1244.81 861.336 1242.66 862.039 1240.51C862.042 1239.62 862.045 1238.73 862.05 1237.85C861.848 1233.34 860.813 1228.68 861.622 1224.36C863.185 1216.01 870.32 1212.4 877.351 1209.77C885.391 1206.76 893.836 1204.83 902.104 1202.43C903.882 1202.42 905.661 1202.42 907.439 1202.42C916.095 1204.97 917.881 1207.87 919.16 1216.66C920.022 1222.57 918.528 1229.03 922.857 1234.4C924.591 1236.55 925.637 1239.44 926.361 1242.17C927.123 1245.03 927.849 1248.23 927.325 1251.04C925.818 1259.13 923.673 1267.11 922.082 1273.84C927.95 1281.66 933.496 1289 938.954 1296.4C939.42 1297.04 939.311 1298.09 939.468 1298.95C939.482 1300.13 939.495 1301.31 939.507 1302.5C939.199 1303.31 938.732 1304.1 938.609 1304.94C937.553 1312.06 934.363 1314.9 927.311 1314.93C921.872 1314.95 916.432 1314.98 910.992 1315.01C905.064 1314.99 899.136 1314.96 893.209 1314.94C892.567 1314.64 891.926 1314.09 891.282 1314.08C880.048 1314.02 868.812 1314 857.578 1314.1C856.688 1314.11 855.807 1315.16 854.922 1315.72C854.643 1316.62 854.364 1317.53 854.085 1318.44C854.11 1319.02 854.133 1319.61 854.156 1320.2Z" fill="#FDEFC2"/>
<path fill-rule="evenodd" clip-rule="evenodd" d="M53.2109 1287.28C54.2669 1289.89 55.4696 1293.33 57.0276 1296.6C58.5253 1299.74 60.9503 1299.59 63.0428 1297.3C65.6291 1294.48 68.1617 1291.53 70.2346 1288.32C73.5983 1283.12 78.2299 1280.22 84.2011 1279.01C87.9543 1278.25 91.6195 1277.07 95.3531 1276.2C98.0079 1275.57 98.7477 1274.39 98.2246 1271.49C96.9681 1264.51 97.6819 1257.66 100.757 1251.1C103.299 1245.68 101.991 1240.12 98.9433 1235.66C95.2048 1230.18 90.5846 1228.38 84.4456 1232.4C75.0422 1238.57 65.8035 1237.94 56.4719 1232.32C53.1766 1230.33 49.7396 1228.59 46.3971 1226.68C42.3995 1224.4 38.2242 1224.28 33.9495 1225.61C28.5373 1227.29 24.3555 1231.11 24.719 1234.66C25.26 1239.93 29.6113 1241.68 33.8566 1243.13C38.0531 1244.56 42.4158 1245.51 46.6041 1246.97C53.8888 1249.5 57.3601 1254.4 57.1384 1262.1C57.0195 1266.21 56.3643 1270.32 55.7271 1274.4C55.1127 1278.34 54.2099 1282.23 53.2109 1287.28ZM259.346 1231.42H259.519C259.519 1228.61 259.62 1225.79 259.497 1222.97C259.238 1216.94 256.525 1213.69 250.598 1214.63C245.417 1215.45 240.523 1218.28 235.603 1220.46C233.085 1221.57 233.026 1223.61 233.401 1226.37C234.589 1235.12 236.144 1243.99 235.787 1252.74C235.233 1266.29 229.006 1278.02 220.944 1288.75C219.467 1290.72 223.113 1301.95 225.45 1302.64C225.852 1302.76 226.332 1302.68 226.762 1302.62C233.735 1301.56 240.513 1299.89 245.59 1294.56C248.844 1291.14 251.932 1287.52 254.786 1283.76C263.598 1272.15 270.987 1270.28 284.443 1275.97C289.593 1278.15 294.974 1280 300.427 1281.17C304.862 1282.13 309.954 1281.28 312.322 1277.18C313.826 1274.57 313.424 1270.39 312.735 1267.17C312.317 1265.22 309.917 1263.46 308.059 1262.1C298.253 1254.91 286.811 1253.66 275.146 1253.4C264.914 1253.16 259.279 1247.41 259.344 1237.2C259.357 1235.27 259.346 1233.35 259.346 1231.42ZM164.358 1286.47C163.642 1300.01 167.99 1311.56 178.186 1320.62C184.502 1326.24 191.49 1325.73 197.457 1319.54C203.074 1313.7 202.936 1307.39 197.025 1301.08C196.317 1300.32 195.496 1299.67 194.759 1298.94C187.975 1292.22 188.844 1284.06 196.683 1278.63C199.311 1276.81 201.999 1274.7 203.817 1272.13C214.215 1257.42 215.414 1241.69 207.875 1225.44C202.134 1213.07 196.282 1212.27 187.882 1222.9C183.132 1228.92 179.24 1235.63 175.162 1242.16C170.946 1248.9 165.238 1251.84 157.197 1250.8C152.726 1250.22 148.067 1250.15 143.599 1250.71C136.91 1251.54 129.912 1252.03 124.818 1257.48C120.752 1261.83 120.186 1266.53 123.187 1270.75C126.177 1274.96 130.892 1276.11 136.229 1273.75C139.342 1272.38 142.298 1270.65 145.416 1269.29C155.342 1264.95 164.278 1270.78 164.356 1281.58C164.367 1283.21 164.358 1284.84 164.358 1286.47ZM140.976 1297.39C132.218 1299.36 124.125 1298.51 116.218 1295.31C115.19 1294.89 113.668 1295.47 112.439 1295.82C105.605 1297.74 98.751 1299.61 91.9976 1301.79C90.3483 1302.32 88.7121 1303.67 87.6365 1305.07C81.869 1312.59 75.5588 1319.25 66.0512 1322.09C56.8842 1324.82 48.9883 1322.78 42.4793 1316.02C31.4594 1304.57 27.8822 1290.96 31.4202 1275.43C33.1184 1267.99 32.869 1268.36 25.6593 1265.31C20.5632 1263.15 15.4981 1260.33 11.2772 1256.79C-5.05391 1243.07 -0.384839 1221.57 12.361 1211C25.5061 1200.1 42.9308 1198.2 58.0429 1206.14C58.3037 1206.28 58.584 1206.39 58.8219 1206.56C65.6308 1211.48 71.8073 1212.66 80.4789 1208.7C95.1005 1202.03 112.915 1210.75 121.316 1226.49C122.003 1227.78 122.65 1229.09 123.174 1230.11C131.498 1228.92 139.56 1226.65 147.529 1226.93C155.614 1227.22 158.936 1223.28 162.816 1217.36C167.226 1210.64 172.579 1204.17 178.715 1199.02C190.902 1188.78 206.449 1189.5 218.408 1199.98C220.603 1201.9 221.803 1201.17 223.67 1199.9C233.929 1192.94 244.975 1188.86 257.605 1191.36C273.016 1194.42 282.704 1206 283.092 1221.73C283.157 1224.37 283.1 1227.01 283.1 1229.92C287.135 1230.55 290.761 1231.15 294.397 1231.67C305.517 1233.27 315.378 1237.72 324.214 1244.61C335.219 1253.19 340.449 1268.05 336.595 1281.17C332.442 1295.3 322.099 1302.22 308.155 1304.61C297.58 1306.42 287.885 1303.08 278.447 1299.07C274.968 1297.59 273.309 1298.21 271.231 1301.17C259.827 1317.42 243.869 1325.5 224.263 1327.03C222.585 1327.16 220.546 1328.54 219.5 1329.96C212.724 1339.11 204.477 1345.87 192.856 1347.65C183.019 1349.15 173.996 1347.2 166.002 1341.17C152.316 1330.84 144.669 1316.86 141.452 1300.22C141.315 1299.52 141.213 1298.8 140.976 1297.39Z" fill="black"/>
<path fill-rule="evenodd" clip-rule="evenodd" d="M840.875 1333.49C841.566 1333.15 842.257 1332.81 842.95 1332.47C843.965 1330.38 845.274 1328.38 845.937 1326.18C847.322 1321.59 845.787 1317.28 842.448 1315.31C825.691 1305.43 822.017 1287.18 834.487 1272.29C838.947 1266.96 845.179 1263.12 850.595 1258.58C851.626 1257.72 852.614 1256.8 854.094 1255.49C849.654 1255.05 846.142 1255.27 842.996 1254.29C828.385 1249.79 816.083 1253.25 807.056 1265.42C798.536 1276.91 788.073 1281.68 773.957 1278.73C769.05 1277.7 764.979 1280 762.138 1284.16C759.233 1288.41 761.033 1292.38 766.128 1292.45C770.696 1292.52 775.27 1291.81 779.847 1291.73C789.524 1291.55 796.042 1297.83 796.554 1307.51C796.725 1310.76 796.942 1314.02 797.41 1317.24C798.66 1325.86 803.036 1328.08 810.328 1323.95C810.457 1323.88 810.583 1323.8 810.713 1323.73C821.616 1317.63 828.838 1318.78 837.103 1328.08C838.553 1329.71 839.627 1331.68 840.875 1333.49ZM891.894 1310.12C902.577 1300.48 904.096 1300.23 917.433 1303.87C920.37 1304.67 923.564 1304.84 926.62 1304.74C927.961 1304.69 929.796 1303.47 930.383 1302.28C930.799 1301.44 929.853 1299.35 928.905 1298.5C924.897 1294.92 920.579 1291.98 914.756 1292.11C908.1 1292.26 903.858 1288.09 902.533 1281.58C901.032 1274.22 903.087 1268.87 908.39 1263.28C922.474 1248.44 921.454 1235.3 909.226 1220.62C903.511 1213.76 891.789 1211.16 886.394 1215.34C878.932 1221.12 873.934 1228.73 874.193 1238.42C874.318 1243.13 876.103 1247.93 877.84 1252.42C882.061 1263.31 879.483 1270.67 869.046 1275.95C866.404 1277.28 863.455 1278.18 861.118 1279.92C857.84 1282.35 854.834 1285.23 852.084 1288.25C851.281 1289.14 851.111 1291.68 851.801 1292.57C852.691 1293.72 854.765 1294.58 856.274 1294.5C859.043 1294.35 861.784 1293.49 864.512 1292.82C874.455 1290.37 879.079 1292.21 884.879 1300.76C887.01 1303.9 889.429 1306.85 891.894 1310.12ZM773.519 1316.23C770.686 1316.23 768.191 1316.25 765.696 1316.22C744.068 1316.02 730.708 1294.42 740.157 1274.94C746.664 1261.54 760.923 1253.45 775.937 1255.28C781.483 1255.96 785.194 1254.76 788.891 1250.31C797.053 1240.48 806.751 1232.49 819.823 1229.96C828.367 1228.3 836.902 1228.4 845.372 1230.6C846.925 1231 848.496 1231.33 850.352 1231.76C850.743 1230.46 850.968 1229.33 851.418 1228.29C853.993 1222.33 855.93 1215.97 859.35 1210.54C876.233 1183.73 909.978 1182.52 929.363 1207.75C945.22 1228.39 946.398 1247.29 933.264 1270.08C932.907 1270.7 932.656 1271.38 932.29 1272.17C935.3 1274.06 938.287 1275.7 941.012 1277.69C948.644 1283.28 953.872 1290.61 954.54 1300.2C955.547 1314.67 943.117 1328.06 928.515 1328.41C923.237 1328.54 917.939 1327.53 912.639 1327.22C911.179 1327.14 909.306 1327.27 908.258 1328.11C896.652 1337.36 887.977 1337.3 876.624 1327.58C874.542 1325.79 872.63 1323.81 870.174 1321.48C869.993 1323.29 869.827 1324.42 869.776 1325.55C869.379 1334.56 865.733 1342.22 859.819 1348.79C850.424 1359.23 834.394 1359.13 823.817 1348.44C821.334 1345.93 819.68 1345.87 816.718 1347.47C804.341 1354.18 792.834 1351.89 783.694 1341.14C777.777 1334.18 774.107 1326.22 773.519 1316.23Z" fill="black"/>
</svg>
