<svg width="36" height="36" viewBox="0 0 36 36" fill="none" xmlns="http://www.w3.org/2000/svg">
<path d="M18 22.4499C24.3272 22.4499 29.6667 23.4781 29.6667 27.4448C29.6667 31.413 24.2922 32.4046 18 32.4046C11.6743 32.4046 6.33334 31.3765 6.33334 27.4098C6.33334 23.4416 11.7079 22.4499 18 22.4499ZM18 3.23796C22.2862 3.23796 25.7204 6.67091 25.7204 10.9541C25.7204 15.2372 22.2862 18.6717 18 18.6717C13.7153 18.6717 10.2796 15.2372 10.2796 10.9541C10.2796 6.67091 13.7153 3.23796 18 3.23796Z" fill="#E0E0E0"/>
<path d="M18 22.4499C24.3272 22.4499 29.6667 23.4781 29.6667 27.4448C29.6667 31.413 24.2922 32.4046 18 32.4046C11.6743 32.4046 6.33334 31.3765 6.33334 27.4098C6.33334 23.4416 11.7079 22.4499 18 22.4499ZM18 3.23796C22.2862 3.23796 25.7204 6.67091 25.7204 10.9541C25.7204 15.2372 22.2862 18.6717 18 18.6717C13.7153 18.6717 10.2796 15.2372 10.2796 10.9541C10.2796 6.67091 13.7153 3.23796 18 3.23796Z" fill="#E0E0E0"/>
</svg>
