<svg width="36" height="36" viewBox="0 0 36 36" fill="none" xmlns="http://www.w3.org/2000/svg">
<path d="M28.332 4.0846V8.95259H7.9541V4.0846C7.9541 3.49768 8.4299 3.02189 9.01681 3.02189H13.7563C13.9784 3.02189 14.201 2.90927 14.2885 2.70519C14.9679 1.12165 20.7434 1.12165 21.4228 2.70519C21.5104 2.90927 21.733 3.02189 21.955 3.02189H27.2693C27.8562 3.02189 28.332 3.49768 28.332 4.0846Z" fill="#FF7E7E"/>
<path d="M12.2832 4.97623V5.81638H13.6398V6.29341H12.2832V7.55382H11.7668V4.49472H13.8061L13.8018 4.97623H12.2832ZM15.8237 7.58445C14.9184 7.58445 14.2132 6.91821 14.2132 6.00245C14.2132 5.08406 14.9204 4.42045 15.8237 4.42045C16.7277 4.42045 17.4341 5.08488 17.4341 6.00245C17.4341 6.91852 16.7286 7.58445 15.8237 7.58445ZM15.8237 4.89305C15.2022 4.89305 14.7428 5.39396 14.7428 6.00245C14.7428 6.61258 15.2042 7.11185 15.8237 7.11185C16.4436 7.11185 16.9045 6.61212 16.9045 6.00245C16.9045 5.39324 16.4443 4.89305 15.8237 4.89305ZM19.4998 7.58445C18.5946 7.58445 17.8893 6.91821 17.8893 6.00245C17.8893 5.08406 18.5966 4.42045 19.4998 4.42045C20.4039 4.42045 21.1102 5.08488 21.1102 6.00245C21.1102 6.91852 20.4047 7.58445 19.4998 7.58445ZM19.4998 4.89305C18.8783 4.89305 18.4189 5.39396 18.4189 6.00245C18.4189 6.61258 18.8803 7.11185 19.4998 7.11185C20.1198 7.11185 20.5807 6.61212 20.5807 6.00245C20.5807 5.39324 20.1205 4.89305 19.4998 4.89305ZM24.5192 6.00904C24.5192 6.95779 23.9586 7.55382 22.7777 7.55382H21.7623V4.49472H22.8126C23.8561 4.49472 24.5192 5.01056 24.5192 6.00904ZM23.9986 6.02206C23.9986 5.3219 23.5976 4.9718 22.7951 4.9718H22.2787V7.06804H22.8521C23.5677 7.06804 23.9986 6.73467 23.9986 6.02206Z" fill="black"/>
<path d="M32.3166 12.3994H3.96973V31.6293H32.3166V12.3994Z" fill="#FBC41A"/>
<path d="M32.3185 12.4012V31.6308H3.97095V29.2981C26.8616 26.2748 28.6735 16.1897 28.5193 12.4012H32.3185Z" fill="#F59F02"/>
<path d="M33.9486 8.95084H2.33789V12.3994H33.9486V8.95084Z" fill="#DEE1E6"/>
<path d="M33.9497 8.95274V12.4012H28.6787C28.8913 11.3173 28.8328 9.86135 28.7637 8.95274H33.9497Z" fill="#C7CBD1"/>
<path d="M33.948 31.585H2.33789V34.4586H33.948V31.585Z" fill="#DEE1E6"/>
<path d="M14.0651 20.9378H7.15771V31.583H14.0651V20.9378Z" fill="white"/>
<path d="M14.0665 20.94V31.583H7.15894V30.5681C12.0687 29.4416 12.2387 23.7137 12.0155 20.94H14.0665Z" fill="#DEE1E6"/>
<path d="M29.567 15.3111H16.8147V24.1465H29.567V15.3111Z" fill="#4DABF4"/>
<path d="M29.5661 15.313V24.1441H16.8137V22.0878C27.2441 22.9008 27.7755 17.4066 27.6055 15.3131H29.5661V15.313Z" fill="#1D7BD5"/>
<path d="M33.9481 12.9141C34.2326 12.9141 34.4628 12.6836 34.4628 12.3994V8.95104C34.4628 8.66682 34.2326 8.43634 33.9481 8.43634H28.8467V4.08471C28.8467 3.21491 28.139 2.50718 27.2695 2.50718H21.9551C21.9224 2.50718 21.8928 2.49236 21.8958 2.5024C21.4217 1.39681 19.4981 1.00275 17.8555 1.00275C16.2134 1.00275 14.2898 1.39681 13.8243 2.48881C13.8188 2.49385 13.7927 2.50713 13.7565 2.50713H9.01708C8.14702 2.50713 7.4393 3.21485 7.4393 4.08465V8.43629H2.33795C2.05347 8.43629 1.82324 8.66677 1.82324 8.95099V12.3994C1.82324 12.6836 2.05347 12.9141 2.33795 12.9141H3.45481V31.0703H2.33795C2.05347 31.0703 1.82324 31.3008 1.82324 31.585V34.4586C1.82324 34.7429 2.05347 34.9733 2.33795 34.9733H33.9481C34.2326 34.9733 34.4628 34.7429 34.4628 34.4586V31.585C34.4628 31.3008 34.2326 31.0703 33.9481 31.0703H32.8312V12.9141H33.9481ZM8.46866 4.08471C8.46866 3.78237 8.71443 3.5366 9.01703 3.5366H13.7564C14.2028 3.5366 14.5969 3.29031 14.7617 2.90804C14.9462 2.47749 16.154 2.03216 17.8555 2.03216C19.5574 2.03216 20.7653 2.47749 20.9498 2.90804C21.1131 3.28979 21.5082 3.5366 21.955 3.5366H27.2695C27.5716 3.5366 27.8173 3.78237 27.8173 4.08471V8.43634H8.46866V4.08471ZM2.85265 9.46575C32.5037 9.46647 1.43361 9.46766 33.4334 9.46575V11.8847C27.1029 11.8847 9.1664 11.8847 2.85265 11.8847V9.46575ZM33.4334 33.9439H2.85265V32.0997C6.27143 32.1049 35.259 32.1107 33.4334 32.0997V33.9439H33.4334ZM31.8018 31.0703H14.5798V21.4691C14.5798 20.8923 14.1103 20.4231 13.5338 20.4231H7.68909C7.11257 20.4231 6.6431 20.8923 6.6431 21.4691V31.0703H4.48422V12.9141H31.8018V31.0703ZM7.67349 31.0683L7.68909 21.4525L13.5504 21.4691V31.0683H7.67349Z" fill="black"/>
<path d="M16.8145 24.6609H29.5671C29.8515 24.6609 30.0818 24.4304 30.0818 24.1462V15.3107C30.0818 15.0265 29.8515 14.796 29.5671 14.796H16.8145C16.53 14.796 16.2998 15.0265 16.2998 15.3107V24.1462C16.2998 24.4304 16.53 24.6609 16.8145 24.6609ZM29.0524 23.6315H23.7058V15.8255H29.0524V23.6315ZM17.3292 15.8254H22.6763V23.6314H17.3292V15.8254Z" fill="black"/>
</svg>
