<svg width="35" height="36" viewBox="0 0 35 36" fill="none" xmlns="http://www.w3.org/2000/svg">
<path d="M11.5784 4.07876C11.1684 4.48898 10.938 5.04528 10.938 5.62533C10.938 6.20537 11.1684 6.76167 11.5784 7.17189L22.4066 18L11.5784 28.8281C11.18 29.2407 10.9595 29.7933 10.9645 30.3668C10.9695 30.9404 11.1995 31.489 11.6051 31.8946C12.0107 32.3002 12.5593 32.5303 13.1329 32.5352C13.7064 32.5402 14.259 32.3197 14.6716 31.9213L27.0463 19.5466C27.4563 19.1364 27.6867 18.5801 27.6867 18C27.6867 17.42 27.4563 16.8637 27.0463 16.4535L14.6716 4.07876C14.2614 3.66867 13.7051 3.43829 13.125 3.43829C12.545 3.43829 11.9887 3.66867 11.5784 4.07876Z" fill="#9B9B9B"/>
</svg>
