<svg width="36" height="36" viewBox="0 0 36 36" fill="none" xmlns="http://www.w3.org/2000/svg">
<path d="M30.7021 28.9525L25.7437 24.0088C27.3435 21.9707 28.2116 19.4539 28.2083 16.863C28.2083 14.5555 27.5241 12.2999 26.2421 10.3813C24.9602 8.46273 23.1381 6.96739 21.0063 6.08437C18.8745 5.20134 16.5287 4.97031 14.2656 5.42047C12.0025 5.87063 9.9237 6.98177 8.29209 8.61338C6.66047 10.245 5.54933 12.3238 5.09917 14.5869C4.64901 16.85 4.88005 19.1958 5.76307 21.3276C6.64609 23.4594 8.14144 25.2815 10.06 26.5634C11.9786 27.8454 14.2342 28.5296 16.5417 28.5296C19.1326 28.5328 21.6494 27.6648 23.6875 26.065L28.6312 31.0234C28.7668 31.1601 28.9281 31.2686 29.1058 31.3426C29.2835 31.4166 29.4741 31.4547 29.6667 31.4547C29.8592 31.4547 30.0498 31.4166 30.2275 31.3426C30.4052 31.2686 30.5665 31.1601 30.7021 31.0234C30.8388 30.8878 30.9473 30.7265 31.0213 30.5488C31.0953 30.3711 31.1335 30.1805 31.1335 29.988C31.1335 29.7954 31.0953 29.6048 31.0213 29.4271C30.9473 29.2494 30.8388 29.0881 30.7021 28.9525ZM7.79166 16.863C7.79166 15.1324 8.30484 13.4407 9.2663 12.0017C10.2278 10.5628 11.5943 9.44128 13.1932 8.77901C14.792 8.11675 16.5514 7.94347 18.2487 8.28109C19.946 8.61871 21.5051 9.45207 22.7288 10.6758C23.9526 11.8995 24.7859 13.4586 25.1235 15.1559C25.4612 16.8533 25.2879 18.6126 24.6256 20.2114C23.9633 21.8103 22.8418 23.1769 21.4029 24.1383C19.964 25.0998 18.2723 25.613 16.5417 25.613C14.221 25.613 11.9954 24.6911 10.3545 23.0501C8.71354 21.4092 7.79166 19.1836 7.79166 16.863Z" fill="#E0E0E0"/>
</svg>
