<svg width="30" height="30" viewBox="0 0 30 30" fill="none" xmlns="http://www.w3.org/2000/svg">
<g clip-path="url(#clip0_241_680)">
<path d="M9.53125 9.39619V5.75036C9.53126 5.11039 9.69974 4.48169 10.0197 3.92747C10.3397 3.37325 10.8 2.91302 11.3542 2.59304C11.9084 2.27306 12.5371 2.10461 13.1771 2.10461C13.8171 2.10462 14.4458 2.27308 15 2.59306C15.5542 2.27308 16.1829 2.10462 16.8229 2.10461C17.4629 2.10461 18.0916 2.27306 18.6458 2.59304C19.2 2.91302 19.6603 3.37325 19.9803 3.92747C20.3003 4.48169 20.4687 5.11039 20.4687 5.75036V9.39619H21.3802C22.1054 9.39619 22.8009 9.68427 23.3137 10.1971C23.8265 10.7099 24.1146 11.4054 24.1146 12.1306V23.9795C24.1146 24.8618 23.7946 25.7142 23.2141 26.3786C22.6335 27.043 21.8317 27.4743 20.9573 27.5925C20.3132 27.4917 19.7264 27.1641 19.3025 26.6687C18.8787 26.1734 18.6458 25.5429 18.6458 24.891V5.75036C18.646 5.47203 18.5825 5.19735 18.4601 4.94738C18.3377 4.69741 18.1597 4.47878 17.9398 4.30826C17.7198 4.13774 17.4637 4.01985 17.1911 3.96363C16.9185 3.90742 16.6367 3.91437 16.3672 3.98395C16.6589 4.50713 16.8229 5.11051 16.8229 5.75036V24.891C16.8229 25.9173 17.162 26.8634 17.7344 27.6254H9.53125C8.56431 27.6254 7.63698 27.2412 6.95325 26.5575C6.26953 25.8738 5.88541 24.9465 5.88541 23.9795V12.1306C5.88541 11.4054 6.1735 10.7099 6.68629 10.1971C7.19909 9.68427 7.89459 9.39619 8.61979 9.39619H9.53125ZM11.3542 5.75036V9.39619H15V5.75036C15 5.26689 14.8079 4.80322 14.4661 4.46136C14.1242 4.11949 13.6605 3.92744 13.1771 3.92744C12.6936 3.92744 12.2299 4.11949 11.8881 4.46136C11.5462 4.80322 11.3542 5.26689 11.3542 5.75036Z" fill="white"/>
<circle cx="23.3333" cy="11.4426" r="6.25" fill="#EC0606"/>
</g>
<defs>
<clipPath id="clip0_241_680">
<rect width="29.1667" height="29.1667" fill="white" transform="translate(0.416664 0.281616)"/>
</clipPath>
</defs>
</svg>
