<svg width="25" height="25" viewBox="0 0 25 25" fill="none" xmlns="http://www.w3.org/2000/svg">
<path d="M15.4871 1.98801H8.79907C4.57077 1.98801 1.14307 5.41571 1.14307 9.64401V16.332C1.14307 20.5603 4.57077 23.988 8.79907 23.988H15.4871C19.7154 23.988 23.1431 20.5603 23.1431 16.332V9.64401C23.1431 5.41571 19.7154 1.98801 15.4871 1.98801Z" fill="#F8DE40"/>
<path d="M9.0501 9.263C9.04917 9.22469 9.03617 9.18765 9.01295 9.15716C8.98973 9.12668 8.95748 9.1043 8.92079 9.09321C8.88411 9.08213 8.84486 9.08291 8.80865 9.09544C8.77243 9.10797 8.7411 9.13161 8.7191 9.163C8.56939 9.38825 8.37589 9.58108 8.1501 9.73C7.86646 9.9188 7.53334 10.0195 7.1926 10.0195C6.85187 10.0195 6.51875 9.9188 6.2351 9.73C6.00863 9.58043 5.81447 9.38695 5.6641 9.161C5.64211 9.12961 5.61078 9.10597 5.57456 9.09344C5.53835 9.08091 5.4991 9.08013 5.46242 9.09121C5.42573 9.1023 5.39348 9.12468 5.37026 9.15516C5.34704 9.18565 5.33404 9.22269 5.3331 9.261C5.32907 9.63107 5.45109 9.99149 5.6791 10.283C5.85935 10.5118 6.08916 10.6968 6.35123 10.824C6.6133 10.9512 6.90081 11.0172 7.1921 11.0172C7.4834 11.0172 7.77091 10.9512 8.03298 10.824C8.29505 10.6968 8.52486 10.5118 8.7051 10.283C8.9319 9.99167 9.05349 9.63219 9.0501 9.263ZM18.9531 9.263C18.9522 9.22469 18.9392 9.18765 18.9159 9.15716C18.8927 9.12668 18.8605 9.1043 18.8238 9.09321C18.7871 9.08213 18.7479 9.08291 18.7116 9.09544C18.6754 9.10797 18.6441 9.13161 18.6221 9.163C18.4725 9.38798 18.2794 9.58077 18.0541 9.73C17.7703 9.91876 17.437 10.0195 17.0961 10.0195C16.7552 10.0195 16.4219 9.91876 16.1381 9.73C15.9116 9.58043 15.7175 9.38695 15.5671 9.161C15.5451 9.12961 15.5138 9.10597 15.4776 9.09344C15.4413 9.08091 15.4021 9.08013 15.3654 9.09121C15.3287 9.1023 15.2965 9.12468 15.2733 9.15516C15.25 9.18565 15.237 9.22269 15.2361 9.261C15.2321 9.63107 15.3541 9.99149 15.5821 10.283C15.7624 10.5118 15.9922 10.6968 16.2542 10.824C16.5163 10.9512 16.8038 11.0172 17.0951 11.0172C17.3864 11.0172 17.6739 10.9512 17.936 10.824C18.198 10.6968 18.4279 10.5118 18.6081 10.283C18.8349 9.99167 18.9565 9.63219 18.9531 9.263Z" fill="#864E20"/>
<path d="M23.143 14.926C21.7832 16.9623 19.936 18.6264 17.7694 19.767C15.6027 20.9076 13.1853 21.4886 10.737 21.457C5.19497 21.457 4.17397 20.457 1.59497 18.928C2.12969 20.4098 3.10831 21.6908 4.39746 22.5963C5.68661 23.5018 7.22359 23.9877 8.79897 23.988H15.487C17.5175 23.988 19.4648 23.1814 20.9006 21.7456C22.3364 20.3098 23.143 18.3625 23.143 16.332V14.926Z" fill="#E7C930"/>
<path d="M15.776 13.981C14.6779 14.6435 13.4251 15.0059 12.143 15.032C10.8608 15.0059 9.60805 14.6435 8.50998 13.981C8.14698 13.74 8.03198 13.766 8.03198 13.852C8.03198 14.908 10.087 15.56 12.143 15.56C14.199 15.56 16.254 14.908 16.254 13.852C16.254 13.766 16.143 13.74 15.776 13.981Z" fill="#864E20"/>
<path d="M13.2792 16.171C12.9341 16.3714 12.5422 16.477 12.1432 16.477C11.7441 16.477 11.3522 16.3714 11.0072 16.171C10.7392 15.971 10.7552 16.552 11.3482 16.707C11.6049 16.8034 11.8745 16.8614 12.1482 16.879C12.4219 16.8614 12.6914 16.8034 12.9482 16.707C13.5312 16.552 13.5432 15.968 13.2792 16.171Z" fill="#E7C930"/>
</svg>
