<svg width="480" height="962" viewBox="0 0 480 962" fill="none" xmlns="http://www.w3.org/2000/svg">
<path fill-rule="evenodd" clip-rule="evenodd" d="M469.69 64.0522C380.549 45.3921 310.926 36.062 260.822 36.062C210.718 36.062 144.238 48.3731 61.3824 72.9953L100.868 485.413L117.257 729.446L123.996 762.612L196.82 813.301L291.991 822.868L356.263 789.327L395.008 676.968L436.866 407.617L469.69 64.0522Z" fill="white"/>
<path fill-rule="evenodd" clip-rule="evenodd" d="M322.012 236.093C367.852 238.605 414.884 227.282 453.045 198.625C431.471 391.037 424.121 590.531 361.37 776.831C339.882 830.364 242.358 821.381 210.489 810.034C169.447 794.29 123.955 777.571 124.236 731.445C115.39 634.334 114.504 540.605 104.922 442.881C99.4588 372.314 88.7087 307.337 79.6908 239.541C116.876 203.444 281.63 246.105 322.012 236.093Z" fill="#C9E9FF"/>
<path opacity="0.372" fill-rule="evenodd" clip-rule="evenodd" d="M207.52 734.842C217.988 736.404 210.797 750.025 202.257 748.614C192.408 745.344 198.169 734.375 207.52 734.842Z" fill="#0280C7"/>
<path opacity="0.372" fill-rule="evenodd" clip-rule="evenodd" d="M136.161 406.425C146.752 406.598 139.933 423.993 130.629 419.504C126.71 415.681 128.614 405.413 136.161 406.425Z" fill="#0280C7"/>
<path opacity="0.372" fill-rule="evenodd" clip-rule="evenodd" d="M143.872 477.194C152.177 476.864 149.488 490.823 142.07 491.772C134.286 491.595 135.265 477.103 143.872 477.194Z" fill="#0280C7"/>
<path opacity="0.372" fill-rule="evenodd" clip-rule="evenodd" d="M265.609 754.576C265.652 764.372 252.31 767.617 253.477 755.321C255.198 748.73 264.362 744.864 265.609 754.576Z" fill="#0280C7"/>
<path opacity="0.372" fill-rule="evenodd" clip-rule="evenodd" d="M151.815 527.245C157.848 526.181 161.217 540.576 152.552 541.772C145.663 541.056 143.114 528.468 151.815 527.245Z" fill="#0280C7"/>
<path opacity="0.372" fill-rule="evenodd" clip-rule="evenodd" d="M143.812 277.189C136.385 276.998 137.549 264.968 145.231 263.994C152.606 264.123 151.883 276.581 143.812 277.189Z" fill="#0280C7"/>
<path opacity="0.372" fill-rule="evenodd" clip-rule="evenodd" d="M292.728 264.398C292.958 273.487 280.266 273.419 282.056 262.2C283.698 255.995 292.687 255.863 292.728 264.398Z" fill="#0280C7"/>
<path opacity="0.372" fill-rule="evenodd" clip-rule="evenodd" d="M406.226 285.523C413.759 285.358 412.798 297.383 404.986 298.021C397.958 297.61 397.964 286.26 406.226 285.523Z" fill="#0280C7"/>
<path opacity="0.372" fill-rule="evenodd" clip-rule="evenodd" d="M258.151 455.792C258.126 462.389 247.269 465.211 245.946 456.199C245.942 449.976 257.265 446.54 258.151 455.792Z" fill="#0280C7"/>
<path opacity="0.372" fill-rule="evenodd" clip-rule="evenodd" d="M295.807 467.507C301.285 466.734 304.309 477.161 298.065 480.101C290.981 483.802 286.865 467.96 295.807 467.507Z" fill="#0280C7"/>
<path opacity="0.372" fill-rule="evenodd" clip-rule="evenodd" d="M372.741 593.298C372.604 601.589 359.877 602.023 362.168 591.02C364.335 585.313 371.701 585.085 372.741 593.298Z" fill="#0280C7"/>
<path opacity="0.372" fill-rule="evenodd" clip-rule="evenodd" d="M323.897 742.082C324.542 749.946 312.108 752.139 313.934 741.309C315.22 735.082 323.388 733.703 323.897 742.082Z" fill="#0280C7"/>
<path opacity="0.372" fill-rule="evenodd" clip-rule="evenodd" d="M397.829 375.605C397.784 381.842 387.454 384.542 386.302 375.7C386.407 368.987 396.595 366.172 397.829 375.605Z" fill="#0280C7"/>
<path opacity="0.372" fill-rule="evenodd" clip-rule="evenodd" d="M190.343 255.514C190.399 263.268 177.23 263.757 179.84 252.968C181.805 248.056 190.521 247.634 190.343 255.514Z" fill="#0280C7"/>
<path opacity="0.372" fill-rule="evenodd" clip-rule="evenodd" d="M166.606 727.545C166.994 736.367 154.518 735.008 156.7 725.318C158.901 720.161 165.921 719.989 166.606 727.545Z" fill="#0280C7"/>
<path fill-rule="evenodd" clip-rule="evenodd" d="M278.916 707.425C275.143 715.043 271.33 725.082 264.505 733.844C259.621 732.155 276.611 712.319 278.916 707.425Z" fill="#F3EC72"/>
<path fill-rule="evenodd" clip-rule="evenodd" d="M321.762 680.913C316.844 679.741 319.218 665.934 326.149 668.17C325.222 670.866 323.667 675.381 321.762 680.913Z" fill="#F9EB6B"/>
<path fill-rule="evenodd" clip-rule="evenodd" d="M350.862 929.973C296.367 874.099 266.422 935.88 280.626 831.045C211.046 835.051 231.357 805.916 224.157 870.347C223.047 924.665 170.461 913.819 138.246 934.956C210.837 961.148 312.011 945.679 350.862 929.973ZM67.8546 86.0747C131.315 615.231 117.323 748.269 132.337 760.341C176.134 821.202 320.88 842.795 358.9 782.024C413.806 625.12 427.572 456.726 442.991 292.366C466.714 13.3848 489.669 83.5018 416.004 56.3828C288.862 25.1484 138.555 60.6281 67.8546 86.0747ZM308.209 30.827C357.529 30.1564 488.833 48.9727 478.944 71.4342C470.204 164.092 457.694 251.844 451.593 344.567C430.257 563.411 399.501 718.432 369.863 788.583C316.001 859.043 288.636 791.137 290.474 872.207C289.743 879.872 288.631 886.67 298.763 888.306C439.336 933.806 322.32 958.799 254.783 960.533C222.851 962.864 192.697 962.865 161.641 955.613C36.3287 922.533 221.087 916.499 210.195 876.61C211.734 855.897 218.012 826.971 210.663 822.877C161.449 805.535 111.405 783.838 112.436 727.736C103.084 616.961 100.758 508.953 88.9701 398.553C79.7845 289.896 60.4608 182.941 58.5801 76.8282C139.576 41.723 239.296 33.96 308.209 30.827Z" fill="black"/>
<path fill-rule="evenodd" clip-rule="evenodd" d="M81.3721 119.963C192.954 138.133 312.115 138.506 419.193 92.5471C476.915 90.4277 350.289 132.86 341.968 131.022C296.569 141.57 250.736 143.422 203.971 145.919C176.334 146.426 60.737 138.758 81.3721 119.963Z" fill="black"/>
<path fill-rule="evenodd" clip-rule="evenodd" d="M123.7 125.842C123.7 125.842 109.701 94.8059 110.064 94.0967C112.81 92.4542 118.292 90.4746 120.065 89.7337C121.237 89.2442 134.515 120.695 138.562 127.49C135.259 127.135 128.803 126.803 123.7 125.842Z" fill="#FCE767"/>
<path fill-rule="evenodd" clip-rule="evenodd" d="M107.177 7.71925C210.918 3.59353 249.041 1.60747 244.364 10.7211C157.1 24.884 177.477 53.3928 174.373 68.9174C104.213 85.5054 84.6716 140.753 76.6357 155.973C35.6434 158.999 19.6426 185.447 2.67145 221.527C-6.32703 221.703 9.74544 81.5959 16.4123 35.1884C16.5187 33.2285 16.6273 31.5371 16.7426 30.0752C17.8921 15.5028 19.713 23.716 26.8057 15.7829C26.8057 10.4071 53.596 7.71925 107.177 7.71925Z" fill="#E8BCFF"/>
<path fill-rule="evenodd" clip-rule="evenodd" d="M144.989 142.575C150.971 157.749 263.896 387.884 213.33 332.391C191.081 264.592 157.18 205.18 128.63 140.753C132.026 141.131 137.478 141.739 144.989 142.575Z" fill="#FEE968"/>
<path fill-rule="evenodd" clip-rule="evenodd" d="M31.3638 11.4615C31.1281 24.3983 9.47417 26.898 8.4101 10.9798C9.58091 -3.57419 30.7968 -3.44209 31.3638 11.4615Z" fill="#7C6EEE"/>
<path fill-rule="evenodd" clip-rule="evenodd" d="M39.1354 42.0927C33.8187 18.0186 78.9201 132.516 71.6202 140.694C65.0913 139.577 44.4522 66.1668 39.1354 42.0927Z" fill="#7973E7"/>
<path fill-rule="evenodd" clip-rule="evenodd" d="M154.183 55.5516C152.11 63.8547 69.0412 28.0616 55.8785 28.7129C73.6334 21.4158 156.257 47.2485 154.183 55.5516Z" fill="#7973E7"/>
<g opacity="0.684">
<path fill-rule="evenodd" clip-rule="evenodd" d="M284.107 723.238C295.211 719.403 298.796 702.639 306.772 692.155C312.648 688.93 338.261 679.968 310.19 683.657C316.345 671.024 320.005 654.397 324.358 639.786C333.467 635.659 348.359 625.326 325.597 631.552C333.677 600.604 330.685 602.21 349.914 585.721C332.928 586.697 350.721 577.148 354.472 567.59C354.676 557.057 340.051 576.184 336.388 583.288C333.578 575.724 328.116 575.083 332.106 593.18C327.311 604.076 323.469 618.464 319.572 631.784C309.628 608.259 305.606 622.25 317.663 640.559C315.371 653.865 310.665 666.665 305.475 680.578C304.241 677.691 301.101 660.465 296.655 669.829C296.964 677.862 304.19 683.613 299.868 692.959C296.485 705.927 283.148 712.508 284.107 723.238ZM269.327 655.225C270.933 636.291 276.095 629.331 289.859 621.16C289.621 601.268 292.135 555.89 322.185 569.675C351.02 481.342 384.384 544.314 369.838 600.55C351.384 643.595 365.752 659.198 344.532 686.03C353.034 696.396 353.974 706.87 343.289 717.739C321.587 742.156 297.882 744.485 269.666 752.245C246.587 793.995 221.178 780.177 252.893 745.546C270.394 718.796 267.29 687.066 269.327 655.225Z" fill="#7FC921"/>
</g>
<g opacity="0.715">
<path fill-rule="evenodd" clip-rule="evenodd" d="M173.395 593.506C210.121 610.805 318.519 597.864 293.608 576.81C270.122 576.198 248.243 589.458 223.563 586.044C205.999 589.299 147.127 564.132 173.395 593.506ZM282.718 704.97C96.1263 662.512 130.091 719.71 160.364 553.952C359.367 545.522 325.765 550.694 282.718 704.97Z" fill="white"/>
<path fill-rule="evenodd" clip-rule="evenodd" d="M391.464 456.237C424.872 442.971 365.163 439.128 356.161 434.659C330.61 427.335 323.821 412.204 310.656 411.836C286.479 430.743 383.873 458.737 391.464 456.237ZM318.26 396.362C446.108 419.956 421.558 429.617 417.441 459.11C404.496 495.342 400.188 529.178 381.743 551.184C346.994 554.693 287.781 527.769 270.792 520.538C263.485 514.208 270.193 502.278 271.046 492.743C281.655 458.582 295.915 389.956 318.26 396.362Z" fill="white"/>
<path fill-rule="evenodd" clip-rule="evenodd" d="M267.166 422.07C271.129 456.88 214.848 465.499 195.597 475.64C183.918 478.967 169.208 486.058 161.514 477.643C140.932 437.149 119.712 392.237 125.239 367.671C143.579 346.927 175.82 341.717 201.263 331.673C214.134 328.578 234.149 321.357 242.18 335.223C254.893 362.57 265.642 397.493 267.166 422.07Z" fill="white"/>
<path fill-rule="evenodd" clip-rule="evenodd" d="M148.131 384.657C114.229 372.658 164.45 368.656 175.904 366.156C198.948 361.318 218.05 341.376 225.641 353C232.607 368.664 149.715 386.806 148.131 384.657Z" fill="#C1EAFF"/>
</g>
<g opacity="0.702">
<path fill-rule="evenodd" clip-rule="evenodd" d="M255.827 367.023C265.884 363.871 308.237 392.695 301.503 378.378C288.604 370.652 273.714 365.592 258.816 360.707C280.343 351.439 272.494 344.608 253.182 357.098C229.859 357.344 227.948 353.724 245.519 342.923C205.001 354.75 190.226 330.974 170.908 297.585C155.788 315.614 217.014 351.118 220.22 358.095C220.12 368.708 229.035 371.042 225.545 355.689C233.84 360.671 246.517 359.471 252.299 371.333C261.516 389.176 268.798 382.306 255.827 367.023ZM259.027 324.398C320.282 305.567 294.525 353.597 308.072 355.218C376.791 389.21 319.548 440.558 274.602 404.896C265.239 431.566 244.779 417.065 228.104 404.412C172.961 422.359 149.407 323.377 159.465 284.894C158.482 271.365 144.155 245.595 162.904 243.192C169.023 244.822 170.701 246.486 171.201 254.658C195.387 368.798 242.99 284.751 259.027 324.398Z" fill="#7FC922"/>
<path fill-rule="evenodd" clip-rule="evenodd" d="M256.038 366.643L256.112 366.856L255.901 366.82L256.038 366.643Z" fill="#7FC922"/>
</g>
</svg>
