<svg width="26" height="26" viewBox="0 0 26 26" fill="none" xmlns="http://www.w3.org/2000/svg">
<path d="M23.2133 2.43871H2.37992C2.10366 2.43871 1.8387 2.54845 1.64335 2.7438C1.448 2.93915 1.33826 3.2041 1.33826 3.48037V11.8137C1.33826 12.09 1.448 12.3549 1.64335 12.5503C1.8387 12.7456 2.10366 12.8554 2.37992 12.8554H5.50492V22.2304C5.50492 22.5066 5.61467 22.7716 5.81002 22.9669C6.00537 23.1623 6.27032 23.272 6.54659 23.272H19.0466C19.3229 23.272 19.5878 23.1623 19.7832 22.9669C19.9785 22.7716 20.0883 22.5066 20.0883 22.2304V12.8554H23.2133C23.4895 12.8554 23.7545 12.7456 23.9498 12.5503C24.1452 12.3549 24.2549 12.09 24.2549 11.8137V3.48037C24.2549 3.2041 24.1452 2.93915 23.9498 2.7438C23.7545 2.54845 23.4895 2.43871 23.2133 2.43871ZM7.58826 21.1887V19.1054C8.14079 19.1054 8.6707 19.3249 9.0614 19.7156C9.4521 20.1063 9.67159 20.6362 9.67159 21.1887H7.58826ZM18.0049 21.1887H15.9216C15.9216 20.6362 16.1411 20.1063 16.5318 19.7156C16.9225 19.3249 17.4524 19.1054 18.0049 19.1054V21.1887ZM18.0049 17.022C16.8999 17.022 15.84 17.461 15.0586 18.2424C14.2772 19.0238 13.8383 20.0836 13.8383 21.1887H11.7549C11.7549 20.0836 11.3159 19.0238 10.5345 18.2424C9.75313 17.461 8.69333 17.022 7.58826 17.022V8.68871H18.0049V17.022ZM22.1716 10.772H20.0883V7.64704C20.0883 7.37077 19.9785 7.10582 19.7832 6.91047C19.5878 6.71512 19.3229 6.60537 19.0466 6.60537H6.54659C6.27032 6.60537 6.00537 6.71512 5.81002 6.91047C5.61467 7.10582 5.50492 7.37077 5.50492 7.64704V10.772H3.42159V4.52204H22.1716V10.772ZM12.7966 15.9804C13.4147 15.9804 14.0188 15.7971 14.5327 15.4537C15.0467 15.1103 15.4472 14.6223 15.6837 14.0513C15.9202 13.4802 15.9821 12.8519 15.8615 12.2457C15.741 11.6395 15.4433 11.0827 15.0063 10.6457C14.5693 10.2086 14.0124 9.911 13.4062 9.79042C12.8001 9.66984 12.1717 9.73173 11.6007 9.96825C11.0297 10.2048 10.5416 10.6053 10.1982 11.1192C9.85487 11.6331 9.67159 12.2373 9.67159 12.8554C9.67159 13.6842 10.0008 14.479 10.5869 15.0651C11.1729 15.6511 11.9678 15.9804 12.7966 15.9804ZM12.7966 11.8137C13.0026 11.8137 13.204 11.8748 13.3753 11.9893C13.5466 12.1037 13.6801 12.2664 13.759 12.4567C13.8378 12.6471 13.8584 12.8565 13.8182 13.0586C13.778 13.2607 13.6788 13.4463 13.5332 13.5919C13.3875 13.7376 13.2019 13.8368 12.9998 13.877C12.7977 13.9172 12.5883 13.8966 12.398 13.8177C12.2076 13.7389 12.0449 13.6054 11.9305 13.4341C11.816 13.2628 11.7549 13.0614 11.7549 12.8554C11.7549 12.5791 11.8647 12.3142 12.06 12.1188C12.2554 11.9235 12.5203 11.8137 12.7966 11.8137Z" fill="#363636"/>
</svg>
